<svg width="12" height="14" viewBox="0 0 12 14" fill="none" xmlns="http://www.w3.org/2000/svg">
    <path d="M11.4137 10.7476C11.2108 11.2164 10.9706 11.6479 10.6924 12.0445C10.3131 12.5853 10.0025 12.9597 9.76317 13.1675C9.39215 13.5087 8.99463 13.6835 8.56895 13.6934C8.26336 13.6934 7.89483 13.6065 7.46584 13.4301C7.03544 13.2545 6.63991 13.1675 6.27825 13.1675C5.89895 13.1675 5.49216 13.2545 5.05704 13.4301C4.62126 13.6065 4.2702 13.6984 4.0018 13.7075C3.59359 13.7249 3.18672 13.5452 2.78058 13.1675C2.52137 12.9414 2.19714 12.5539 1.80873 12.0048C1.392 11.4185 1.04939 10.7385 0.780983 9.96337C0.493527 9.1261 0.349426 8.31532 0.349426 7.53039C0.349426 6.63125 0.543714 5.85576 0.932868 5.2059C1.23871 4.68391 1.64559 4.27215 2.15482 3.96987C2.66406 3.66759 3.21429 3.51355 3.80685 3.5037C4.13107 3.5037 4.55625 3.60399 5.08462 3.80109C5.6115 3.99885 5.9498 4.09914 6.09813 4.09914C6.20902 4.09914 6.58484 3.98188 7.22195 3.74809C7.82444 3.53127 8.33293 3.4415 8.74949 3.47686C9.87828 3.56796 10.7263 4.01293 11.2903 4.8146C10.2808 5.42628 9.78139 6.28301 9.79132 7.38207C9.80043 8.23814 10.111 8.95053 10.7214 9.51616C10.998 9.77869 11.3069 9.98159 11.6506 10.1257C11.576 10.3418 11.4973 10.5489 11.4137 10.7476V10.7476ZM8.82486 0.560402C8.82486 1.23139 8.57972 1.85789 8.0911 2.43777C7.50145 3.12713 6.78824 3.52548 6.01481 3.46262C6.00496 3.38212 5.99924 3.2974 5.99924 3.20837C5.99924 2.56423 6.27966 1.87486 6.77764 1.31121C7.02625 1.02583 7.34244 0.788536 7.72588 0.599242C8.1085 0.412773 8.4704 0.309651 8.81078 0.291992C8.82072 0.381693 8.82486 0.471399 8.82486 0.560393V0.560402Z" fill="black"/>
</svg>
