<svg width="20" height="20" viewBox="0 0 20 20" fill="none" xmlns="http://www.w3.org/2000/svg">
    <path fill-rule="evenodd" clip-rule="evenodd" d="M10 2C5.58172 2 2 5.58172 2 10C2 14.4183 5.58172 18 10 18C14.4183 18 18 14.4183 18 10C18 5.58172 14.4183 2 10 2ZM0 10C0 4.47715 4.47715 0 10 0C15.5228 0 20 4.47715 20 10C20 15.5228 15.5228 20 10 20C4.47715 20 0 15.5228 0 10ZM10.7071 6.29289C11.0976 6.68342 11.0976 7.31658 10.7071 7.70711L9.4142 9H13C13.5523 9 14 9.4477 14 10C14 10.5523 13.5523 11 13 11H9.4142L10.7071 12.2929C11.0976 12.6834 11.0976 13.3166 10.7071 13.7071C10.3166 14.0976 9.6834 14.0976 9.2929 13.7071L6.29289 10.7071C5.90237 10.3166 5.90237 9.6834 6.29289 9.2929L9.2929 6.29289C9.6834 5.90237 10.3166 5.90237 10.7071 6.29289Z" fill="#2AB2A3"/>
</svg>
