<svg width="17" height="17" viewBox="0 0 17 17" fill="none" xmlns="http://www.w3.org/2000/svg">
    <path fill-rule="evenodd" clip-rule="evenodd" d="M16.17 8.4375C16.17 7.8525 16.1175 7.29 16.02 6.75H8.25V9.94125H12.69C12.4987 10.9725 11.9175 11.8462 11.0438 12.4312V14.5012H13.71C15.27 13.065 16.17 10.95 16.17 8.4375Z" fill="#4285F4"/>
    <path fill-rule="evenodd" clip-rule="evenodd" d="M8.24994 16.4989C10.4774 16.4989 12.3449 15.7602 13.7099 14.5002L11.0437 12.4302C10.3049 12.9252 9.35994 13.2177 8.24994 13.2177C6.10119 13.2177 4.28244 11.7664 3.63369 9.81641H0.877441V11.9539C2.23494 14.6502 5.02494 16.4989 8.24994 16.4989Z" fill="#34A853"/>
    <path fill-rule="evenodd" clip-rule="evenodd" d="M3.63375 9.8184C3.46875 9.3234 3.375 8.79465 3.375 8.2509C3.375 7.70715 3.46875 7.1784 3.63375 6.6834V4.5459H0.8775C0.31875 5.65965 0 6.91965 0 8.2509C0 9.58215 0.31875 10.8421 0.8775 11.9559L3.63375 9.8184Z" fill="#FBBC05"/>
    <path fill-rule="evenodd" clip-rule="evenodd" d="M8.24994 3.28125C9.46119 3.28125 10.5487 3.6975 11.4037 4.515L13.7699 2.14875C12.3412 0.8175 10.4737 0 8.24994 0C5.02494 0 2.23494 1.84875 0.877441 4.545L3.63369 6.6825C4.28244 4.7325 6.10119 3.28125 8.24994 3.28125Z" fill="#EA4335"/>
</svg>
