<svg width="375" height="812" viewBox="0 0 375 812" fill="none" xmlns="http://www.w3.org/2000/svg">
    <g clip-path="url(#clip0_2667_17468)">
        <rect width="375" height="812" rx="40" fill="#FFEBC2"/>
        <path d="M219.382 1C200.426 3.9141 181.354 6.56852 161.966 8.38623C107.434 13.6662 56.3656 28.6118 6.22001 52.3574C-66.0554 86.4898 -133.31 128.499 -208.5 153.803V311.741C-129.502 272.213 -71.1623 205.449 -3.47443 147.34C118.86 41.7974 279.886 54.1174 429.486 17.1862C446.595 12.8007 462.983 7.26098 478.91 1L219.382 1Z" fill="#FFF4E0"/>
        <path d="M406.634 105.128C327.434 140.299 248.234 167.565 166.38 194.83C94.22 219.442 36.14 264.307 -26.3256 312.664C-82.2705 355.221 -138.244 401.76 -208.5 407.877V529H-170.703C-148.689 493.742 -111.498 470.227 -72.98 455.137C-37.78 441.952 -3.47442 429.632 29.9656 410.301C38.7656 405.915 45.8056 398.875 54.6056 392.701C98.6056 364.569 137.326 340.824 181.326 312.664C206.86 296.824 229.74 282.773 257.006 275.733C340.62 252.882 407.471 208.016 481.42 165.805C513.677 147.455 548.213 137.818 583.5 134.298V75.7852C522.939 73.8232 462.81 79.7668 406.634 105.128Z" fill="#FFF4E0"/>
        <path d="M420.714 396.221C367.914 426.112 308.074 425.246 252.649 444.578C226.249 454.243 192.636 460.648 159.138 486.327C143.327 498.445 134.296 514.545 121.168 529H583.5V326.802C576.806 327.321 570.055 328.158 563.246 329.37C508.714 338.17 467.34 370.715 420.714 396.221Z" fill="#FFF4E0"/>
        <path d="M309.648 410.591C317.789 419.556 330.381 411.917 334.294 402.889C337.386 395.787 337.954 387.611 339.027 380.035C340.258 371.513 341.362 362.99 342.372 354.467C346.064 323.06 350.356 290.231 343.003 259.013C341.394 252.258 334.609 223.028 322.397 230.509C320.819 231.488 322.271 233.981 323.848 233.003C335.02 226.185 342.467 270.945 343.098 277.037C344.739 293.041 344.013 309.202 342.625 325.206C341.078 342.662 339.027 360.086 336.566 377.415C335.493 385.023 334.956 393.167 332.243 400.395C329.402 408.003 319.146 416.746 311.731 408.571C310.437 407.182 308.417 409.202 309.648 410.591Z" fill="#FFCE5C"/>
        <path d="M-5.7635 331.204C-12.9269 316.747 -11.5384 300.396 -7.43601 285.244C-3.45984 270.566 2.59909 256.141 9.98341 242.852C24.4049 216.936 47.757 194.114 78.3356 190.232C80.1659 190.011 80.1659 187.107 78.3356 187.359C46.6841 191.4 22.4799 214.506 7.4904 241.431C-0.525051 255.825 -7.152 271.703 -11.0335 287.706C-14.6941 302.732 -15.2621 318.546 -8.22493 332.687C-7.43601 334.329 -4.94302 332.845 -5.7635 331.204Z" fill="#FFCE5C"/>
        <path d="M567.973 356.045C555.918 355.225 543.264 354.183 534.049 355.256C514.137 357.561 495.518 366.178 476.174 371.386C456.293 376.721 435.655 378.489 415.143 380.193C400.185 381.456 385.227 382.718 370.237 382.718C356.51 382.75 342.783 381.771 329.118 380.54C307.439 378.615 285.349 376.563 263.196 373.817C213.115 367.63 162.877 357.971 117.151 338.653C106.043 333.949 95.0609 328.931 84.2369 323.596C33.2409 298.47 -14.41 266.399 -57.0118 228.489C-73.0427 214.221 -88.3478 199.164 -102.864 183.318L-102.927 183.255C-105.83 180.067 -102.359 175.143 -98.446 176.879L-77.1451 186.317C-73.7685 187.801 -69.7292 187.327 -67.0154 184.802C-63.7334 181.74 -64.8695 177.921 -66.1633 174.575C-70.3919 163.59 -76.2615 153.268 -80.2061 142.189C-82.4151 135.939 -84.0876 126.122 -84.3716 116.747C-84.5294 111.475 -77.3976 109.928 -75.441 114.79C-71.7489 123.944 -61.7769 140.894 -52.6254 152.7C-51.1107 154.657 -48.1443 152.637 -49.3435 150.459C-57.138 136.507 -65.8477 118.388 -66.4789 108.287C-66.6682 105.162 -64.4592 102.29 -61.3667 102.006C-57.4221 101.627 -55.718 105.983 -54.5819 109.487C-50.3849 122.271 -43.6632 134.487 -32.997 142.473C-37.9199 134.865 -43.253 124.196 -45.9353 115.452C-47.4501 110.528 -41.0125 107.182 -38.0146 111.317C-34.8589 115.673 -31.861 122.176 -29.7151 125.932C-17.471 147.271 -1.28233 166.273 17.778 181.614C29.5172 191.084 42.2977 199.133 55.0152 207.182C78.8091 222.176 106.358 236.096 134.381 246.671C150.349 252.637 166.443 257.561 182.063 261.001C203.774 265.768 225.927 268.798 248.27 270.755C282.383 273.754 316.874 274.291 350.766 274.764C398.133 275.427 446.857 275.522 491.068 258.224C500.283 254.625 518.555 248.217 534.996 244.272C539.887 243.104 542.222 250.174 537.615 252.226C524.771 258.003 510.003 264.221 497.822 268.577C496.054 269.208 494.666 270.692 494.35 272.554C493.625 276.879 500.378 275.995 504.701 274.89L557.685 261.38C563.271 259.96 566.963 267.062 562.671 270.945C560.21 273.154 557.149 275.017 554.277 276.311C543.327 281.235 526.097 286.948 511.17 292.378C506.342 294.145 508.235 301.5 513.284 300.585C528.022 297.965 549.512 291.652 567.531 286.727C573.148 285.181 576.461 292.883 571.57 296.071C559.01 304.183 545.82 310.749 532.029 316.367C515.525 323.122 518.807 336.853 530.42 338.842C537.015 339.978 543.2 340.578 547.271 340.61C553.172 340.673 562.261 342.409 570.213 345.534C575.957 347.838 574.032 356.456 567.973 356.045Z" fill="#FEAF8F"/>
        <path d="M142.838 287.138C149.402 307.34 169.851 313.116 185.408 306.393C201.597 299.764 214.22 284.518 223.371 268.104C207.814 266.178 190.994 264.947 175.815 261.001C164.833 258.16 153.599 254.278 142.365 249.638C138.957 261.79 139.619 275.048 142.838 287.138Z" fill="#FEAF8F"/>
        <path d="M265.153 379.972C264.49 377.952 263.827 375.9 263.164 373.817C257.421 355.793 251.993 336.538 250.668 317.914C249.248 297.965 248.522 282.561 248.238 270.755C244.23 270.408 227.316 268.514 223.34 268.072C212.61 284.486 206.646 297.586 187.617 304.183C169.346 310.907 150.98 307.308 143.28 287.106C139.493 275.016 138.704 261.759 142.743 249.638C139.935 248.659 137.158 247.649 134.349 246.607C118.003 260.212 105.254 278.141 95.7866 297.018C91.4317 305.667 87.5818 314.537 84.2052 323.596C69.8153 361.948 63.5039 403.362 61.8629 444.019C59.5908 500.489 62.1154 558.349 72.0874 613.999L421.675 600.552C354.679 537.232 294.185 469.271 265.153 379.972Z" fill="#FFCE5C"/>
        <path d="M189.29 217.883C182.631 211.507 183.073 199.512 190.173 193.514C194.055 190.232 199.356 188.716 202.859 185.086C210.969 176.69 205.415 163.306 205.573 151.848C205.699 140.737 212.989 130.983 222.141 124.196C238.771 111.791 249.721 118.641 263.038 113.938C294.816 102.732 289.483 85.0235 302.2 71.7028C314.918 58.4137 334.42 53.4264 353.039 53.3948C366.86 53.3948 379.83 60.718 393.652 60.3077C409.778 59.8342 411.072 41.684 441.871 39.9163C463.298 38.7168 484.063 50.2698 494.035 68.6725C504.038 87.0753 498.863 117.536 481.412 129.815C468.695 138.748 442.913 142.504 427.418 140.611C411.198 138.622 401.731 126.343 388.288 135.434C372.856 145.85 372.478 169.335 357.677 180.541C346.096 189.316 329.813 187.643 315.265 185.939C300.749 184.234 284.087 183.571 273.547 193.514C266.383 200.301 262.944 211.349 253.571 214.695C240.444 219.367 225.044 205.352 212.926 212.17C209.676 214.001 207.372 217.094 204.342 219.272C201.313 221.45 196.737 222.523 193.992 220.061L189.29 217.883Z" fill="#4B3425"/>
        <path d="M191.972 198.439C200.461 191.873 202.165 180.983 201.376 170.819C200.272 156.362 195.917 141.147 207.403 129.499C225.359 111.318 254.77 116.368 274.556 101.343C285.412 93.1042 288.852 79.4363 297.94 69.6826C307.281 59.6447 320.377 53.2685 334.073 52.2899C356.825 50.6801 388.572 63.7167 405.675 41.7155C410.977 34.8657 413.912 19.1461 401.983 17.1574C398.291 16.5577 393.81 18.0413 392.295 21.7344C390.749 25.5223 394.883 27.9844 398.228 26.9112C399.995 26.343 399.238 23.5653 397.471 24.1334C396.713 23.5337 395.987 22.9024 395.23 22.3026C396.019 21.1978 397.06 20.5034 398.354 20.1562C399.743 19.7142 401.415 19.7774 402.772 20.2824C406.18 21.5451 407.569 25.3645 407.6 28.7104C407.663 34.3607 404.382 39.6321 400.248 43.2622C392.043 50.4276 380.367 52.2268 369.858 51.8165C356.857 51.3114 343.919 48.0917 330.886 49.7016C321.324 50.9011 312.109 54.5942 304.315 60.2445C296.015 66.2735 290.461 74.0071 285.475 82.877C282.477 88.18 279.416 93.4515 274.777 97.4603C270.202 101.406 264.742 104.121 259.094 106.141C240.854 112.706 218.448 113.085 204.5 128.363C196.548 137.107 195.822 148.06 197.147 159.329C198.536 171.355 201.723 187.328 190.552 195.913C189.069 197.05 190.489 199.543 191.972 198.439Z" fill="#4B3425"/>
        <path d="M235.268 208.697C244.767 213.369 256.033 212.737 264.648 206.393C269.318 202.952 272.947 198.059 278.059 195.187C285.223 191.178 293.428 192.504 301.033 194.461C313.056 197.523 324.48 200.869 337.039 199.259C347.674 197.902 357.078 193.23 364.273 185.212C371.846 176.753 377.022 165.926 386.394 159.202C397.755 151.058 412.681 151.847 425.714 154.53C448.53 159.171 476.521 171.039 495.739 151.248C500.914 145.913 509.151 130.856 499.368 126.185C496.181 124.669 491.952 124.827 489.806 127.952C487.786 130.919 488.481 134.991 491.605 136.759C493.214 137.674 494.666 135.181 493.057 134.265C488.702 131.803 493.719 127.479 497.033 128.363C499.021 128.899 500.251 130.193 500.662 132.403C501.072 134.739 500.409 137.548 499.652 139.726C497.916 144.935 494.161 149.354 489.806 152.605C480.876 159.265 469.925 160.37 459.133 159.044C438.274 156.456 417.509 145.566 396.177 151.437C377.4 156.614 371.72 175.238 358.34 187.075C350.23 194.24 339.501 196.955 328.866 196.828C318.01 196.671 308.259 192.851 297.751 190.705C287.242 188.558 278.533 190.105 270.517 197.333C266.068 201.311 262.092 205.604 256.285 207.592C249.816 209.802 242.842 209.202 236.751 206.203C235.047 205.383 233.596 207.876 235.268 208.697Z" fill="#4B3425"/>
        <path d="M83.7635 337.358C72.687 325.995 54.2262 327.478 38.7002 330.824C23.1742 334.17 5.97573 338.337 -7.71996 330.319C-8.66667 326.563 -5.29008 322.996 -1.72415 321.481C1.87333 319.966 5.91261 319.587 9.22609 317.535C20.0501 310.78 15.3481 292.598 24.1209 283.318C31.1897 275.869 44.917 276.563 50.0607 267.662C56.1512 257.119 45.1378 241.02 53.8791 232.561C56.1196 230.383 59.2122 229.373 61.9892 228.015C76.6632 220.913 84.2369 201.91 78.5251 186.633C85.2151 186.412 91.274 190.957 95.0924 196.45C98.9108 201.942 101.025 208.413 103.771 214.505C109.514 227.163 123.494 237.958 134.349 246.639C135.769 247.775 132.077 249.448 132.708 251.153C133.308 252.794 132.992 254.593 132.645 256.298C129.205 274.038 125.703 291.904 118.886 308.634C112.07 325.363 101.562 341.052 86.6036 351.216L83.7635 337.358Z" fill="#FFCE5C"/>
        <path d="M241.043 277.132C262.375 253.268 292.418 236.507 324.89 230.352C313.782 239.379 301.664 250.774 303.368 264.506C303.873 268.514 305.577 272.46 305.104 276.5C303.683 288.653 283.866 294.524 285.16 306.677C286.012 314.758 296.394 320.25 295.826 328.363C295.258 336.317 284.181 341.81 285.728 349.638C286.706 354.594 292.386 357.371 295.132 361.696C299.171 368.041 296.268 376.121 296.836 383.476C297.593 393.64 307.092 408.95 317.569 411.349C286.359 412.296 254.076 389.632 238.929 363.937C223.75 338.243 225.201 304.594 242.526 280.13L241.043 277.132Z" fill="#FFCE5C"/>
        <path d="M270.517 393.83C248.711 379.625 227.379 363.968 221.699 336.98C216.334 311.538 227 285.212 247.986 270.061C249.09 269.24 248.017 267.378 246.881 268.198C225.991 283.287 214.851 308.887 219.016 334.455C223.75 363.558 246.187 380.604 269.413 395.692C270.612 396.449 271.685 394.587 270.517 393.83Z" fill="#4B3425"/>
        <path d="M80.8602 337.927C92.5363 304.909 110.082 272.965 134.223 247.396C135.17 246.386 133.655 244.84 132.677 245.881C108.283 271.765 90.5798 303.994 78.7775 337.358C78.3041 338.653 80.3869 339.221 80.8602 337.927Z" fill="#4B3425"/>
        <path d="M64.5453 317.347C66.8805 317.22 68.9633 317.852 70.8882 319.177C72.0243 319.967 73.1288 318.104 71.9927 317.315C69.8153 315.8 67.2276 315.042 64.5768 315.2C63.1568 315.232 63.1568 317.41 64.5453 317.347Z" fill="#4B3425"/>
        <path d="M70.7621 301.216C73.1919 303.584 75.7796 305.73 78.5251 307.687C79.6611 308.508 80.7341 306.614 79.6296 305.825C77.0103 303.962 74.5805 301.911 72.3084 299.67C71.267 298.723 69.7522 300.238 70.7621 301.216Z" fill="#4B3425"/>
        <path d="M102.824 256.708C106.043 258.129 109.293 259.518 112.512 260.938C113.774 261.475 114.879 259.612 113.616 259.076C110.398 257.655 107.147 256.267 103.929 254.846C102.666 254.309 101.562 256.172 102.824 256.708Z" fill="#4B3425"/>
        <path d="M112.102 250.364C113.017 253.173 114.879 255.509 117.466 256.929C118.697 257.592 119.77 255.73 118.571 255.067C116.488 253.899 114.942 252.068 114.184 249.796C113.774 248.47 111.691 249.038 112.102 250.364Z" fill="#4B3425"/>
        <path d="M116.93 239.6C118.287 243.041 120.464 245.85 123.43 248.028C124.566 248.849 125.639 246.986 124.535 246.166C122.073 244.335 120.149 241.873 119.044 239.032C118.508 237.738 116.393 238.306 116.93 239.6Z" fill="#4B3425"/>
        <path d="M238.866 286.096C241.8 285.37 244.735 284.644 247.67 283.918C249.027 283.571 248.459 281.488 247.102 281.835C244.167 282.561 241.232 283.287 238.298 284.013C236.941 284.328 237.509 286.412 238.866 286.096Z" fill="#4B3425"/>
        <path d="M234.606 297.744C237.856 297.334 241.012 297.586 244.167 298.565C245.493 298.975 246.061 296.892 244.735 296.481C241.422 295.44 238.045 295.156 234.606 295.566C233.249 295.755 233.217 297.933 234.606 297.744Z" fill="#4B3425"/>
        <path d="M227.821 344.65C230.061 346.986 232.302 349.322 234.542 351.689C235.521 352.7 237.035 351.153 236.089 350.174C233.848 347.838 231.608 345.503 229.367 343.135C228.389 342.093 226.874 343.64 227.821 344.65Z" fill="#4B3425"/>
        <path d="M228.389 339.158C231.355 339.695 234.322 340.231 237.288 340.8C238.645 341.052 239.244 338.969 237.856 338.716C234.89 338.18 231.923 337.643 228.957 337.075C227.6 336.822 227 338.906 228.389 339.158Z" fill="#4B3425"/>
        <path d="M227.221 329.909C229.84 331.33 232.649 332.087 235.584 332.15C236.972 332.182 236.972 330.036 235.584 329.972C232.996 329.909 230.566 329.246 228.294 328.015C227.063 327.384 225.99 329.246 227.221 329.909Z" fill="#4B3425"/>
        <path d="M200.493 185.591C201.755 169.272 188.753 157.403 185.755 142.157C182.442 125.333 196.075 118.988 207.025 109.992C217.407 101.469 219.932 88.5588 220.152 75.5538C220.247 69.3354 219.048 62.0437 213.936 57.8455C210.433 54.973 204.942 54.0892 201.313 57.2458C198.126 60.0235 197.4 65.9894 201.313 68.5462C204.816 70.819 209.612 68.925 210.685 64.9793C211.19 63.1801 208.382 62.4225 207.908 64.2217C206.615 68.9566 200.808 65.8 201.66 61.9806C202.67 57.4667 207.814 57.6877 210.906 59.4553C215.324 61.949 216.776 67.3152 217.186 72.0816C217.754 79.0891 216.587 86.8543 214.788 93.6724C211.664 105.541 200.777 110.371 192.098 117.694C183.546 124.954 180.549 134.518 183.546 145.408C187.365 159.203 198.757 170.661 197.589 185.655C197.463 187.454 200.335 187.454 200.493 185.591Z" fill="#4B3425"/>
        <path d="M217.47 152.574C219.742 140.8 228.357 131.362 239.939 128.174C241.737 127.669 240.98 124.891 239.181 125.396C226.685 128.837 217.154 139.064 214.693 151.816C214.346 153.647 217.123 154.405 217.47 152.574Z" fill="#1F160F"/>
        <path d="M281.436 120.788C288.094 116.621 294.974 112.202 298.918 105.163C301.127 101.248 302.611 96.9871 305.104 93.2308C307.881 89.0642 311.32 85.5288 315.202 82.4038C316.653 81.2359 314.602 79.2157 313.151 80.3521C306.713 85.4973 301.979 91.8104 298.54 99.2914C294.469 108.193 288.094 113.212 279.953 118.294C278.406 119.272 279.858 121.766 281.436 120.788Z" fill="#1F160F"/>
        <path d="M333.095 73.1236C344.928 63.9696 360.234 68.6413 372.983 72.9027C374.75 73.5024 375.507 70.6931 373.74 70.1249C359.729 65.4848 343.824 61.1918 331.043 71.1034C329.56 72.2082 331.643 74.2284 333.095 73.1236Z" fill="#1F160F"/>
        <path d="M193.802 271.923L207.056 185.023C207.056 185.023 164.076 193.988 156.502 226.185L174.395 227.826L155.618 258.035C148.739 269.114 153.946 283.761 166.285 287.99C166.506 288.054 166.695 288.148 166.916 288.211C179.002 292.283 191.877 284.518 193.802 271.923Z" fill="#FEAF8F"/>
        <path d="M214.03 224.512C209.581 227.037 203.932 225.459 201.408 221.008C198.883 216.557 200.461 210.907 204.91 208.382C209.36 205.857 215.009 207.435 217.533 211.886C220.026 216.336 218.48 221.987 214.03 224.512Z" fill="#FEAF8F"/>
        <path d="M205.447 218.104C208.792 217.473 212.137 216.873 215.482 216.305C216.839 216.084 216.271 214.001 214.914 214.221C211.569 214.79 208.224 215.389 204.879 216.021C203.522 216.273 204.09 218.357 205.447 218.104Z" fill="#4B3425"/>
        <path d="M174.363 227.826L156.691 256.33L187.649 228.11L174.363 227.826Z" fill="#4B3425"/>
        <path d="M168.935 209.581C168.935 209.581 180.517 212.611 190.268 213.369C190.268 213.369 172.091 223.312 162.277 219.682L168.935 209.581Z" fill="white"/>
        <path d="M185.945 192.252C180.233 194.24 174.426 196.734 169.219 199.796C168.557 200.175 168.462 201.311 169.219 201.658C171.365 202.7 173.48 203.71 175.625 204.752C176.888 205.351 177.961 203.489 176.73 202.889C174.584 201.848 172.47 200.837 170.324 199.796C170.324 200.427 170.324 201.027 170.324 201.658C175.373 198.691 180.99 196.292 186.513 194.335C187.838 193.893 187.27 191.81 185.945 192.252Z" fill="#4B3425"/>
        <path d="M189.732 204.594C192.225 202.921 196.737 205.131 197.968 207.53C198.599 208.761 200.461 207.688 199.83 206.425C198.063 203.016 192.067 200.365 188.627 202.7C187.491 203.49 188.596 205.384 189.732 204.594Z" fill="#4B3425"/>
        <g filter="url(#filter0_ddddd_2667_17468)">
            <rect x="-293" y="472" width="960" height="960" rx="480" fill="white"/>
            <rect x="153.5" y="526" width="68" height="30" rx="15" fill="#FFEBC2"/>
            <path d="M169.594 545.156C169.122 545.156 168.67 545.082 168.238 544.934C167.81 544.786 167.434 544.572 167.11 544.292C166.79 544.012 166.56 543.68 166.42 543.296L167.974 542.72C168.022 542.856 168.122 542.984 168.274 543.104C168.426 543.22 168.616 543.316 168.844 543.392C169.072 543.464 169.322 543.5 169.594 543.5C169.854 543.5 170.098 543.462 170.326 543.386C170.558 543.306 170.744 543.196 170.884 543.056C171.028 542.916 171.1 542.752 171.1 542.564C171.1 542.376 171.026 542.22 170.878 542.096C170.73 541.972 170.54 541.874 170.308 541.802C170.076 541.726 169.838 541.668 169.594 541.628C168.99 541.54 168.448 541.398 167.968 541.202C167.492 541.002 167.116 540.728 166.84 540.38C166.564 540.028 166.426 539.582 166.426 539.042C166.426 538.522 166.572 538.068 166.864 537.68C167.16 537.292 167.548 536.99 168.028 536.774C168.512 536.558 169.034 536.45 169.594 536.45C170.058 536.45 170.506 536.524 170.938 536.672C171.37 536.82 171.746 537.034 172.066 537.314C172.39 537.594 172.622 537.93 172.762 538.322L171.208 538.886C171.16 538.75 171.06 538.624 170.908 538.508C170.756 538.392 170.566 538.298 170.338 538.226C170.11 538.154 169.862 538.118 169.594 538.118C169.338 538.114 169.094 538.152 168.862 538.232C168.634 538.312 168.446 538.422 168.298 538.562C168.154 538.702 168.082 538.862 168.082 539.042C168.082 539.278 168.15 539.456 168.286 539.576C168.426 539.696 168.61 539.782 168.838 539.834C169.066 539.886 169.318 539.932 169.594 539.972C170.162 540.056 170.686 540.206 171.166 540.422C171.646 540.634 172.03 540.918 172.318 541.274C172.61 541.626 172.756 542.056 172.756 542.564C172.756 543.084 172.61 543.538 172.318 543.926C172.026 544.314 171.64 544.616 171.16 544.832C170.68 545.048 170.158 545.156 169.594 545.156ZM181.401 536.6V538.256H178.929V545H177.273V538.256H174.801V536.6H181.401ZM183.8 545V536.6H189.116V538.256H185.456V539.672H188.312V541.328H185.456V543.344H189.116V545H183.8ZM191.644 545V536.6H194.74C195.2 536.6 195.614 536.716 195.982 536.948C196.354 537.18 196.65 537.49 196.87 537.878C197.09 538.262 197.2 538.686 197.2 539.15C197.2 539.622 197.088 540.052 196.864 540.44C196.64 540.824 196.34 541.13 195.964 541.358C195.592 541.586 195.184 541.7 194.74 541.7H193.3V545H191.644ZM193.3 540.044H194.554C194.738 540.044 194.904 540 195.052 539.912C195.2 539.82 195.318 539.698 195.406 539.546C195.498 539.39 195.544 539.218 195.544 539.03C195.544 538.846 195.498 538.678 195.406 538.526C195.318 538.37 195.2 538.246 195.052 538.154C194.904 538.062 194.738 538.016 194.554 538.016H193.3V540.044ZM206.071 545.156C205.567 545.156 205.107 545.034 204.691 544.79C204.275 544.546 203.943 544.218 203.695 543.806C203.451 543.39 203.329 542.93 203.329 542.426H204.985C204.985 542.618 205.033 542.796 205.129 542.96C205.225 543.124 205.355 543.256 205.519 543.356C205.683 543.452 205.867 543.5 206.071 543.5C206.267 543.5 206.447 543.452 206.611 543.356C206.779 543.256 206.913 543.124 207.013 542.96C207.113 542.796 207.163 542.618 207.163 542.426C207.163 542.162 207.091 541.942 206.947 541.766C206.803 541.59 206.601 541.458 206.341 541.37C206.081 541.282 205.777 541.238 205.429 541.238V539.972C205.893 539.972 206.259 539.89 206.527 539.726C206.795 539.558 206.929 539.31 206.929 538.982C206.929 538.818 206.889 538.67 206.809 538.538C206.729 538.402 206.621 538.294 206.485 538.214C206.349 538.13 206.199 538.088 206.035 538.088C205.871 538.088 205.709 538.13 205.549 538.214C205.389 538.294 205.257 538.402 205.153 538.538C205.053 538.67 205.003 538.818 205.003 538.982H203.347C203.347 538.63 203.419 538.3 203.563 537.992C203.707 537.684 203.903 537.414 204.151 537.182C204.403 536.946 204.689 536.762 205.009 536.63C205.329 536.498 205.665 536.432 206.017 536.432C206.477 536.432 206.901 536.546 207.289 536.774C207.681 537.002 207.995 537.31 208.231 537.698C208.467 538.082 208.585 538.51 208.585 538.982C208.585 539.282 208.517 539.584 208.381 539.888C208.249 540.192 208.055 540.41 207.799 540.542C208.023 540.626 208.209 540.77 208.357 540.974C208.509 541.174 208.623 541.404 208.699 541.664C208.779 541.92 208.819 542.174 208.819 542.426C208.819 542.926 208.695 543.384 208.447 543.8C208.199 544.212 207.867 544.542 207.451 544.79C207.035 545.034 206.575 545.156 206.071 545.156Z" fill="#E0A500"/>
            <path d="M36.4518 610L40.5318 589H44.0268L48.9018 601.855L53.7918 589H57.2868L61.3668 610H57.1368L54.8118 597.955L50.3268 609.79H47.4768L43.0068 597.955L40.6668 610H36.4518ZM63.6838 595H67.8238V610H63.6838V595ZM65.7838 593.275C65.1838 593.275 64.6788 593.075 64.2688 592.675C63.8588 592.275 63.6538 591.78 63.6538 591.19C63.6538 590.6 63.8588 590.105 64.2688 589.705C64.6788 589.305 65.1788 589.105 65.7688 589.105C66.3588 589.105 66.8538 589.305 67.2538 589.705C67.6638 590.105 67.8688 590.6 67.8688 591.19C67.8688 591.78 67.6688 592.275 67.2688 592.675C66.8788 593.075 66.3838 593.275 65.7838 593.275ZM84.6067 600.46V610H80.4667V601.6C80.4667 601.07 80.3367 600.595 80.0767 600.175C79.8267 599.745 79.4867 599.405 79.0567 599.155C78.6367 598.905 78.1667 598.78 77.6467 598.78C77.1267 598.78 76.6517 598.905 76.2217 599.155C75.7917 599.405 75.4517 599.745 75.2017 600.175C74.9517 600.595 74.8267 601.07 74.8267 601.6V610H70.6867L70.6717 595H74.8117L74.8267 596.11C75.3267 595.63 75.9117 595.255 76.5817 594.985C77.2617 594.715 77.9767 594.58 78.7267 594.58C79.8167 594.58 80.8017 594.845 81.6817 595.375C82.5717 595.905 83.2817 596.615 83.8117 597.505C84.3417 598.385 84.6067 599.37 84.6067 600.46ZM97.7373 587.5H101.877V610H97.7373V608.41C97.2773 608.99 96.7073 609.465 96.0273 609.835C95.3473 610.205 94.5723 610.39 93.7023 610.39C92.6123 610.39 91.5923 610.185 90.6423 609.775C89.6923 609.365 88.8523 608.8 88.1223 608.08C87.4023 607.35 86.8373 606.51 86.4273 605.56C86.0173 604.61 85.8123 603.59 85.8123 602.5C85.8123 601.41 86.0173 600.39 86.4273 599.44C86.8373 598.49 87.4023 597.655 88.1223 596.935C88.8523 596.205 89.6923 595.635 90.6423 595.225C91.5923 594.815 92.6123 594.61 93.7023 594.61C94.5723 594.61 95.3473 594.795 96.0273 595.165C96.7073 595.525 97.2773 596 97.7373 596.59V587.5ZM93.7623 606.415C94.4423 606.415 95.0573 606.24 95.6073 605.89C96.1573 605.54 96.5923 605.07 96.9123 604.48C97.2323 603.88 97.3923 603.22 97.3923 602.5C97.3923 601.77 97.2323 601.11 96.9123 600.52C96.5923 599.93 96.1573 599.46 95.6073 599.11C95.0573 598.76 94.4423 598.585 93.7623 598.585C93.0723 598.585 92.4473 598.76 91.8873 599.11C91.3273 599.46 90.8823 599.935 90.5523 600.535C90.2223 601.125 90.0573 601.78 90.0573 602.5C90.0573 603.22 90.2223 603.88 90.5523 604.48C90.8923 605.07 91.3423 605.54 91.9023 605.89C92.4623 606.24 93.0823 606.415 93.7623 606.415ZM109.482 592.09V595H113.457V599.14H109.482V610H105.342V599.14H103.842V595H105.342V592.09C105.342 591.18 105.567 590.355 106.017 589.615C106.467 588.865 107.067 588.265 107.817 587.815C108.577 587.365 109.412 587.14 110.322 587.14C110.992 587.14 111.652 587.28 112.302 587.56C112.952 587.83 113.532 588.255 114.042 588.835L111.072 591.76C111.002 591.6 110.897 591.48 110.757 591.4C110.617 591.32 110.472 591.28 110.322 591.28C110.092 591.28 109.892 591.36 109.722 591.52C109.562 591.67 109.482 591.86 109.482 592.09ZM114.971 604.51V595H119.111V603.37C119.111 603.9 119.236 604.38 119.486 604.81C119.746 605.23 120.091 605.565 120.521 605.815C120.951 606.065 121.421 606.19 121.931 606.19C122.451 606.19 122.926 606.065 123.356 605.815C123.786 605.565 124.126 605.23 124.376 604.81C124.626 604.38 124.751 603.9 124.751 603.37V595H128.891L128.906 610H124.766L124.751 608.86C124.251 609.34 123.661 609.715 122.981 609.985C122.311 610.255 121.601 610.39 120.851 610.39C119.771 610.39 118.786 610.125 117.896 609.595C117.006 609.065 116.296 608.36 115.766 607.48C115.236 606.59 114.971 605.6 114.971 604.51ZM131.348 610V587.5H135.488V610H131.348ZM295.878 589V593.14H289.698V610H285.558V593.14H279.378V589H295.878ZM312.209 600.46V610H308.069V601.6C308.069 601.07 307.939 600.595 307.679 600.175C307.429 599.745 307.089 599.405 306.659 599.155C306.239 598.905 305.769 598.78 305.249 598.78C304.729 598.78 304.254 598.905 303.824 599.155C303.394 599.405 303.054 599.745 302.804 600.175C302.554 600.595 302.429 601.07 302.429 601.6V610H298.289L298.274 587.5H302.414L302.429 596.11C302.929 595.63 303.514 595.255 304.184 594.985C304.864 594.715 305.579 594.58 306.329 594.58C307.419 594.58 308.404 594.845 309.284 595.375C310.174 595.905 310.884 596.615 311.414 597.505C311.944 598.385 312.209 599.37 312.209 600.46ZM325.325 595H329.465V610H325.31L325.115 608.44C324.725 609.02 324.225 609.49 323.615 609.85C323.005 610.21 322.29 610.39 321.47 610.39C320.35 610.39 319.305 610.18 318.335 609.76C317.365 609.34 316.51 608.76 315.77 608.02C315.03 607.28 314.45 606.425 314.03 605.455C313.62 604.475 313.415 603.425 313.415 602.305C313.415 601.235 313.61 600.235 314 599.305C314.39 598.375 314.94 597.555 315.65 596.845C316.36 596.135 317.175 595.58 318.095 595.18C319.025 594.78 320.025 594.58 321.095 594.58C322.015 594.58 322.84 594.775 323.57 595.165C324.31 595.555 324.955 596.05 325.505 596.65L325.325 595ZM321.365 606.415C322.045 606.415 322.66 606.24 323.21 605.89C323.76 605.54 324.195 605.07 324.515 604.48C324.835 603.88 324.995 603.22 324.995 602.5C324.995 601.77 324.835 601.11 324.515 600.52C324.195 599.93 323.76 599.46 323.21 599.11C322.66 598.76 322.045 598.585 321.365 598.585C320.675 598.585 320.05 598.76 319.49 599.11C318.93 599.46 318.485 599.935 318.155 600.535C317.825 601.125 317.66 601.78 317.66 602.5C317.66 603.22 317.825 603.88 318.155 604.48C318.495 605.07 318.945 605.54 319.505 605.89C320.065 606.24 320.685 606.415 321.365 606.415ZM340.039 599.14H337.339V610H333.199V599.14H331.129V595H333.199V590.29H337.339V595H340.039V599.14ZM71.2002 648L75.2802 627H78.7752L83.6502 639.855L88.5402 627H92.0352L96.1152 648H91.8852L89.5602 635.955L85.0752 647.79H82.2252L77.7552 635.955L75.4152 648H71.2002ZM108.417 633H112.557V648H108.402L108.207 646.44C107.817 647.02 107.317 647.49 106.707 647.85C106.097 648.21 105.382 648.39 104.562 648.39C103.442 648.39 102.397 648.18 101.427 647.76C100.457 647.34 99.6018 646.76 98.8618 646.02C98.1218 645.28 97.5418 644.425 97.1218 643.455C96.7118 642.475 96.5068 641.425 96.5068 640.305C96.5068 639.235 96.7018 638.235 97.0918 637.305C97.4818 636.375 98.0318 635.555 98.7418 634.845C99.4518 634.135 100.267 633.58 101.187 633.18C102.117 632.78 103.117 632.58 104.187 632.58C105.107 632.58 105.932 632.775 106.662 633.165C107.402 633.555 108.047 634.05 108.597 634.65L108.417 633ZM104.457 644.415C105.137 644.415 105.752 644.24 106.302 643.89C106.852 643.54 107.287 643.07 107.607 642.48C107.927 641.88 108.087 641.22 108.087 640.5C108.087 639.77 107.927 639.11 107.607 638.52C107.287 637.93 106.852 637.46 106.302 637.11C105.752 636.76 105.137 636.585 104.457 636.585C103.767 636.585 103.142 636.76 102.582 637.11C102.022 637.46 101.577 637.935 101.247 638.535C100.917 639.125 100.752 639.78 100.752 640.5C100.752 641.22 100.917 641.88 101.247 642.48C101.587 643.07 102.037 643.54 102.597 643.89C103.157 644.24 103.777 644.415 104.457 644.415ZM128.92 648H124.15L120.97 642.525L119.14 644.7V648H115V625.5H119.14V638.265L123.55 633H128.95L123.805 639.165L128.92 648ZM136.147 648.39C134.767 648.39 133.507 648.035 132.367 647.325C131.237 646.615 130.332 645.66 129.652 644.46C128.982 643.26 128.647 641.935 128.647 640.485C128.647 639.395 128.842 638.375 129.232 637.425C129.622 636.465 130.157 635.625 130.837 634.905C131.527 634.175 132.327 633.605 133.237 633.195C134.147 632.785 135.117 632.58 136.147 632.58C137.337 632.58 138.422 632.835 139.402 633.345C140.392 633.855 141.227 634.55 141.907 635.43C142.597 636.31 143.087 637.305 143.377 638.415C143.677 639.525 143.727 640.68 143.527 641.88H133.117C133.247 642.32 133.447 642.72 133.717 643.08C133.997 643.43 134.337 643.71 134.737 643.92C135.147 644.13 135.617 644.24 136.147 644.25C136.667 644.26 137.147 644.14 137.587 643.89C138.027 643.64 138.402 643.305 138.712 642.885L142.942 643.86C142.332 645.19 141.422 646.28 140.212 647.13C139.002 647.97 137.647 648.39 136.147 648.39ZM132.967 638.82H139.342C139.212 638.32 138.992 637.87 138.682 637.47C138.372 637.07 137.997 636.755 137.557 636.525C137.127 636.295 136.657 636.18 136.147 636.18C135.647 636.18 135.177 636.295 134.737 636.525C134.307 636.755 133.937 637.07 133.627 637.47C133.327 637.86 133.107 638.31 132.967 638.82ZM149.806 648.27C149.036 648.21 148.296 648.05 147.586 647.79C146.876 647.52 146.241 647.16 145.681 646.71C145.131 646.25 144.701 645.7 144.391 645.06L147.871 643.56C147.981 643.72 148.146 643.895 148.366 644.085C148.586 644.265 148.851 644.425 149.161 644.565C149.481 644.705 149.851 644.775 150.271 644.775C150.581 644.775 150.881 644.74 151.171 644.67C151.461 644.59 151.696 644.465 151.876 644.295C152.056 644.115 152.146 643.88 152.146 643.59C152.146 643.27 152.031 643.025 151.801 642.855C151.571 642.685 151.291 642.56 150.961 642.48C150.641 642.39 150.331 642.315 150.031 642.255C149.111 642.095 148.241 641.81 147.421 641.4C146.611 640.98 145.951 640.44 145.441 639.78C144.931 639.12 144.676 638.33 144.676 637.41C144.676 636.4 144.941 635.53 145.471 634.8C146.001 634.06 146.691 633.49 147.541 633.09C148.391 632.69 149.311 632.49 150.301 632.49C151.471 632.49 152.556 632.735 153.556 633.225C154.556 633.715 155.361 634.405 155.971 635.295L152.701 637.23C152.571 637.04 152.401 636.86 152.191 636.69C151.991 636.51 151.756 636.36 151.486 636.24C151.226 636.11 150.946 636.035 150.646 636.015C150.256 635.985 149.901 636.01 149.581 636.09C149.261 636.16 149.006 636.295 148.816 636.495C148.636 636.695 148.546 636.965 148.546 637.305C148.546 637.635 148.691 637.88 148.981 638.04C149.271 638.19 149.606 638.305 149.986 638.385C150.366 638.455 150.701 638.54 150.991 638.64C151.861 638.92 152.676 639.28 153.436 639.72C154.206 640.15 154.826 640.68 155.296 641.31C155.766 641.94 155.986 642.68 155.956 643.53C155.956 644.52 155.661 645.39 155.071 646.14C154.481 646.88 153.716 647.445 152.776 647.835C151.846 648.215 150.856 648.36 149.806 648.27ZM177.384 627H182.274L175.014 638.535V648H170.874V638.535L163.614 627H168.504L172.944 634.035L177.384 627ZM187.536 648.39C186.156 648.39 184.896 648.035 183.756 647.325C182.626 646.615 181.721 645.665 181.041 644.475C180.371 643.275 180.036 641.95 180.036 640.5C180.036 639.4 180.231 638.375 180.621 637.425C181.011 636.465 181.546 635.625 182.226 634.905C182.916 634.175 183.716 633.605 184.626 633.195C185.536 632.785 186.506 632.58 187.536 632.58C188.916 632.58 190.171 632.935 191.301 633.645C192.441 634.355 193.346 635.31 194.016 636.51C194.696 637.71 195.036 639.04 195.036 640.5C195.036 641.59 194.841 642.61 194.451 643.56C194.061 644.51 193.521 645.35 192.831 646.08C192.151 646.8 191.356 647.365 190.446 647.775C189.546 648.185 188.576 648.39 187.536 648.39ZM187.536 644.25C188.176 644.25 188.751 644.08 189.261 643.74C189.771 643.39 190.171 642.93 190.461 642.36C190.751 641.79 190.896 641.17 190.896 640.5C190.896 639.81 190.741 639.18 190.431 638.61C190.131 638.03 189.726 637.57 189.216 637.23C188.706 636.89 188.146 636.72 187.536 636.72C186.906 636.72 186.336 636.895 185.826 637.245C185.316 637.595 184.911 638.055 184.611 638.625C184.321 639.195 184.176 639.82 184.176 640.5C184.176 641.21 184.326 641.85 184.626 642.42C184.936 642.98 185.346 643.425 185.856 643.755C186.366 644.085 186.926 644.25 187.536 644.25ZM195.732 642.51V633H199.872V641.37C199.872 641.9 199.997 642.38 200.247 642.81C200.507 643.23 200.852 643.565 201.282 643.815C201.712 644.065 202.182 644.19 202.692 644.19C203.212 644.19 203.687 644.065 204.117 643.815C204.547 643.565 204.887 643.23 205.137 642.81C205.387 642.38 205.512 641.9 205.512 641.37V633H209.652L209.667 648H205.527L205.512 646.86C205.012 647.34 204.422 647.715 203.742 647.985C203.072 648.255 202.362 648.39 201.612 648.39C200.532 648.39 199.547 648.125 198.657 647.595C197.767 647.065 197.057 646.36 196.527 645.48C195.997 644.59 195.732 643.6 195.732 642.51ZM230.807 627H234.947V648H230.807V638.82H222.827V648H218.687V627H222.827V634.68H230.807V627ZM248.667 633H252.807V648H248.652L248.457 646.44C248.067 647.02 247.567 647.49 246.957 647.85C246.347 648.21 245.632 648.39 244.812 648.39C243.692 648.39 242.647 648.18 241.677 647.76C240.707 647.34 239.852 646.76 239.112 646.02C238.372 645.28 237.792 644.425 237.372 643.455C236.962 642.475 236.757 641.425 236.757 640.305C236.757 639.235 236.952 638.235 237.342 637.305C237.732 636.375 238.282 635.555 238.992 634.845C239.702 634.135 240.517 633.58 241.437 633.18C242.367 632.78 243.367 632.58 244.437 632.58C245.357 632.58 246.182 632.775 246.912 633.165C247.652 633.555 248.297 634.05 248.847 634.65L248.667 633ZM244.707 644.415C245.387 644.415 246.002 644.24 246.552 643.89C247.102 643.54 247.537 643.07 247.857 642.48C248.177 641.88 248.337 641.22 248.337 640.5C248.337 639.77 248.177 639.11 247.857 638.52C247.537 637.93 247.102 637.46 246.552 637.11C246.002 636.76 245.387 636.585 244.707 636.585C244.017 636.585 243.392 636.76 242.832 637.11C242.272 637.46 241.827 637.935 241.497 638.535C241.167 639.125 241.002 639.78 241.002 640.5C241.002 641.22 241.167 641.88 241.497 642.48C241.837 643.07 242.287 643.54 242.847 643.89C243.407 644.24 244.027 644.415 244.707 644.415ZM259.361 655.5H255.221V633H259.361V634.62C259.841 634.03 260.411 633.55 261.071 633.18C261.731 632.8 262.501 632.61 263.381 632.61C264.471 632.61 265.491 632.815 266.441 633.225C267.401 633.635 268.241 634.205 268.961 634.935C269.681 635.655 270.246 636.49 270.656 637.44C271.066 638.39 271.271 639.41 271.271 640.5C271.271 641.59 271.066 642.615 270.656 643.575C270.246 644.535 269.681 645.38 268.961 646.11C268.241 646.83 267.401 647.395 266.441 647.805C265.491 648.215 264.471 648.42 263.381 648.42C262.501 648.42 261.731 648.23 261.071 647.85C260.411 647.47 259.841 646.99 259.361 646.41V655.5ZM263.321 636.585C262.641 636.585 262.026 636.765 261.476 637.125C260.936 637.475 260.506 637.945 260.186 638.535C259.876 639.125 259.721 639.78 259.721 640.5C259.721 641.22 259.876 641.88 260.186 642.48C260.506 643.07 260.936 643.54 261.476 643.89C262.026 644.24 262.641 644.415 263.321 644.415C264.001 644.415 264.621 644.24 265.181 643.89C265.751 643.54 266.201 643.07 266.531 642.48C266.871 641.89 267.041 641.23 267.041 640.5C267.041 639.79 266.876 639.14 266.546 638.55C266.216 637.95 265.766 637.475 265.196 637.125C264.636 636.765 264.011 636.585 263.321 636.585ZM277.101 655.5H272.961V633H277.101V634.62C277.581 634.03 278.151 633.55 278.811 633.18C279.471 632.8 280.241 632.61 281.121 632.61C282.211 632.61 283.231 632.815 284.181 633.225C285.141 633.635 285.981 634.205 286.701 634.935C287.421 635.655 287.986 636.49 288.396 637.44C288.806 638.39 289.011 639.41 289.011 640.5C289.011 641.59 288.806 642.615 288.396 643.575C287.986 644.535 287.421 645.38 286.701 646.11C285.981 646.83 285.141 647.395 284.181 647.805C283.231 648.215 282.211 648.42 281.121 648.42C280.241 648.42 279.471 648.23 278.811 647.85C278.151 647.47 277.581 646.99 277.101 646.41V655.5ZM281.061 636.585C280.381 636.585 279.766 636.765 279.216 637.125C278.676 637.475 278.246 637.945 277.926 638.535C277.616 639.125 277.461 639.78 277.461 640.5C277.461 641.22 277.616 641.88 277.926 642.48C278.246 643.07 278.676 643.54 279.216 643.89C279.766 644.24 280.381 644.415 281.061 644.415C281.741 644.415 282.361 644.24 282.921 643.89C283.491 643.54 283.941 643.07 284.271 642.48C284.611 641.89 284.781 641.23 284.781 640.5C284.781 639.79 284.616 639.14 284.286 638.55C283.956 637.95 283.506 637.475 282.936 637.125C282.376 636.765 281.751 636.585 281.061 636.585ZM299.994 633H304.404L296.184 655.5H291.804L294.504 648L289.104 633H293.634L296.574 642.345L299.994 633Z" fill="#4B3425"/>
            <path d="M145.089 610V589H153.429C154.569 589 155.599 589.29 156.519 589.87C157.449 590.44 158.184 591.21 158.724 592.18C159.274 593.14 159.549 594.205 159.549 595.375C159.549 596.295 159.389 597.15 159.069 597.94C158.749 598.72 158.299 599.405 157.719 599.995C157.139 600.585 156.464 601.045 155.694 601.375L160.689 610H155.919L151.134 601.75H149.229V610H145.089ZM149.229 597.61H152.934C153.384 597.61 153.794 597.5 154.164 597.28C154.544 597.05 154.844 596.745 155.064 596.365C155.294 595.975 155.409 595.545 155.409 595.075C155.409 594.615 155.294 594.195 155.064 593.815C154.844 593.425 154.544 593.115 154.164 592.885C153.794 592.655 153.384 592.54 152.934 592.54H149.229V597.61ZM168.228 610.39C166.848 610.39 165.588 610.035 164.448 609.325C163.318 608.615 162.413 607.66 161.733 606.46C161.063 605.26 160.728 603.935 160.728 602.485C160.728 601.395 160.923 600.375 161.313 599.425C161.703 598.465 162.238 597.625 162.918 596.905C163.608 596.175 164.408 595.605 165.318 595.195C166.228 594.785 167.198 594.58 168.228 594.58C169.418 594.58 170.503 594.835 171.483 595.345C172.473 595.855 173.308 596.55 173.988 597.43C174.678 598.31 175.168 599.305 175.458 600.415C175.758 601.525 175.808 602.68 175.608 603.88H165.198C165.328 604.32 165.528 604.72 165.798 605.08C166.078 605.43 166.418 605.71 166.818 605.92C167.228 606.13 167.698 606.24 168.228 606.25C168.748 606.26 169.228 606.14 169.668 605.89C170.108 605.64 170.483 605.305 170.793 604.885L175.023 605.86C174.413 607.19 173.503 608.28 172.293 609.13C171.083 609.97 169.728 610.39 168.228 610.39ZM165.048 600.82H171.423C171.293 600.32 171.073 599.87 170.763 599.47C170.453 599.07 170.078 598.755 169.638 598.525C169.208 598.295 168.738 598.18 168.228 598.18C167.728 598.18 167.258 598.295 166.818 598.525C166.388 598.755 166.018 599.07 165.708 599.47C165.408 599.86 165.188 600.31 165.048 600.82ZM181.887 610.27C181.117 610.21 180.377 610.05 179.667 609.79C178.957 609.52 178.322 609.16 177.762 608.71C177.212 608.25 176.782 607.7 176.472 607.06L179.952 605.56C180.062 605.72 180.227 605.895 180.447 606.085C180.667 606.265 180.932 606.425 181.242 606.565C181.562 606.705 181.932 606.775 182.352 606.775C182.662 606.775 182.962 606.74 183.252 606.67C183.542 606.59 183.777 606.465 183.957 606.295C184.137 606.115 184.227 605.88 184.227 605.59C184.227 605.27 184.112 605.025 183.882 604.855C183.652 604.685 183.372 604.56 183.042 604.48C182.722 604.39 182.412 604.315 182.112 604.255C181.192 604.095 180.322 603.81 179.502 603.4C178.692 602.98 178.032 602.44 177.522 601.78C177.012 601.12 176.757 600.33 176.757 599.41C176.757 598.4 177.022 597.53 177.552 596.8C178.082 596.06 178.772 595.49 179.622 595.09C180.472 594.69 181.392 594.49 182.382 594.49C183.552 594.49 184.637 594.735 185.637 595.225C186.637 595.715 187.442 596.405 188.052 597.295L184.782 599.23C184.652 599.04 184.482 598.86 184.272 598.69C184.072 598.51 183.837 598.36 183.567 598.24C183.307 598.11 183.027 598.035 182.727 598.015C182.337 597.985 181.982 598.01 181.662 598.09C181.342 598.16 181.087 598.295 180.897 598.495C180.717 598.695 180.627 598.965 180.627 599.305C180.627 599.635 180.772 599.88 181.062 600.04C181.352 600.19 181.687 600.305 182.067 600.385C182.447 600.455 182.782 600.54 183.072 600.64C183.942 600.92 184.757 601.28 185.517 601.72C186.287 602.15 186.907 602.68 187.377 603.31C187.847 603.94 188.067 604.68 188.037 605.53C188.037 606.52 187.742 607.39 187.152 608.14C186.562 608.88 185.797 609.445 184.857 609.835C183.927 610.215 182.937 610.36 181.887 610.27ZM196.296 610.39C194.916 610.39 193.656 610.035 192.516 609.325C191.386 608.615 190.481 607.665 189.801 606.475C189.131 605.275 188.796 603.95 188.796 602.5C188.796 601.4 188.991 600.375 189.381 599.425C189.771 598.465 190.306 597.625 190.986 596.905C191.676 596.175 192.476 595.605 193.386 595.195C194.296 594.785 195.266 594.58 196.296 594.58C197.676 594.58 198.931 594.935 200.061 595.645C201.201 596.355 202.106 597.31 202.776 598.51C203.456 599.71 203.796 601.04 203.796 602.5C203.796 603.59 203.601 604.61 203.211 605.56C202.821 606.51 202.281 607.35 201.591 608.08C200.911 608.8 200.116 609.365 199.206 609.775C198.306 610.185 197.336 610.39 196.296 610.39ZM196.296 606.25C196.936 606.25 197.511 606.08 198.021 605.74C198.531 605.39 198.931 604.93 199.221 604.36C199.511 603.79 199.656 603.17 199.656 602.5C199.656 601.81 199.501 601.18 199.191 600.61C198.891 600.03 198.486 599.57 197.976 599.23C197.466 598.89 196.906 598.72 196.296 598.72C195.666 598.72 195.096 598.895 194.586 599.245C194.076 599.595 193.671 600.055 193.371 600.625C193.081 601.195 192.936 601.82 192.936 602.5C192.936 603.21 193.086 603.85 193.386 604.42C193.696 604.98 194.106 605.425 194.616 605.755C195.126 606.085 195.686 606.25 196.296 606.25ZM204.492 604.51V595H208.632V603.37C208.632 603.9 208.757 604.38 209.007 604.81C209.267 605.23 209.612 605.565 210.042 605.815C210.472 606.065 210.942 606.19 211.452 606.19C211.972 606.19 212.447 606.065 212.877 605.815C213.307 605.565 213.647 605.23 213.897 604.81C214.147 604.38 214.272 603.9 214.272 603.37V595H218.412L218.427 610H214.287L214.272 608.86C213.772 609.34 213.182 609.715 212.502 609.985C211.832 610.255 211.122 610.39 210.372 610.39C209.292 610.39 208.307 610.125 207.417 609.595C206.527 609.065 205.817 608.36 205.287 607.48C204.757 606.59 204.492 605.6 204.492 604.51ZM220.854 610L220.839 595H224.979L224.994 596.11C225.494 595.63 226.079 595.255 226.749 594.985C227.429 594.715 228.144 594.58 228.894 594.58C229.444 594.58 229.994 594.66 230.544 594.82L228.909 599.005C228.549 598.855 228.184 598.78 227.814 598.78C227.294 598.78 226.819 598.905 226.389 599.155C225.959 599.405 225.619 599.745 225.369 600.175C225.119 600.595 224.994 601.07 224.994 601.6V610H220.854ZM239.754 605.26L243.474 607.27C242.784 608.21 241.919 608.965 240.879 609.535C239.839 610.105 238.704 610.39 237.474 610.39C236.094 610.39 234.834 610.035 233.694 609.325C232.564 608.615 231.659 607.665 230.979 606.475C230.309 605.275 229.974 603.95 229.974 602.5C229.974 601.4 230.169 600.375 230.559 599.425C230.949 598.465 231.484 597.625 232.164 596.905C232.854 596.175 233.654 595.605 234.564 595.195C235.474 594.785 236.444 594.58 237.474 594.58C238.704 594.58 239.839 594.865 240.879 595.435C241.919 596.005 242.784 596.77 243.474 597.73L239.754 599.74C239.444 599.41 239.089 599.16 238.689 598.99C238.299 598.81 237.894 598.72 237.474 598.72C236.834 598.72 236.259 598.895 235.749 599.245C235.249 599.595 234.849 600.06 234.549 600.64C234.259 601.21 234.114 601.83 234.114 602.5C234.114 603.16 234.264 603.775 234.564 604.345C234.864 604.915 235.264 605.375 235.764 605.725C236.274 606.075 236.844 606.25 237.474 606.25C237.904 606.25 238.314 606.16 238.704 605.98C239.094 605.8 239.444 605.56 239.754 605.26ZM251.61 610.39C250.23 610.39 248.97 610.035 247.83 609.325C246.7 608.615 245.795 607.66 245.115 606.46C244.445 605.26 244.11 603.935 244.11 602.485C244.11 601.395 244.305 600.375 244.695 599.425C245.085 598.465 245.62 597.625 246.3 596.905C246.99 596.175 247.79 595.605 248.7 595.195C249.61 594.785 250.58 594.58 251.61 594.58C252.8 594.58 253.885 594.835 254.865 595.345C255.855 595.855 256.69 596.55 257.37 597.43C258.06 598.31 258.55 599.305 258.84 600.415C259.14 601.525 259.19 602.68 258.99 603.88H248.58C248.71 604.32 248.91 604.72 249.18 605.08C249.46 605.43 249.8 605.71 250.2 605.92C250.61 606.13 251.08 606.24 251.61 606.25C252.13 606.26 252.61 606.14 253.05 605.89C253.49 605.64 253.865 605.305 254.175 604.885L258.405 605.86C257.795 607.19 256.885 608.28 255.675 609.13C254.465 609.97 253.11 610.39 251.61 610.39ZM248.43 600.82H254.805C254.675 600.32 254.455 599.87 254.145 599.47C253.835 599.07 253.46 598.755 253.02 598.525C252.59 598.295 252.12 598.18 251.61 598.18C251.11 598.18 250.64 598.295 250.2 598.525C249.77 598.755 249.4 599.07 249.09 599.47C248.79 599.86 248.57 600.31 248.43 600.82ZM265.269 610.27C264.499 610.21 263.759 610.05 263.049 609.79C262.339 609.52 261.704 609.16 261.144 608.71C260.594 608.25 260.164 607.7 259.854 607.06L263.334 605.56C263.444 605.72 263.609 605.895 263.829 606.085C264.049 606.265 264.314 606.425 264.624 606.565C264.944 606.705 265.314 606.775 265.734 606.775C266.044 606.775 266.344 606.74 266.634 606.67C266.924 606.59 267.159 606.465 267.339 606.295C267.519 606.115 267.609 605.88 267.609 605.59C267.609 605.27 267.494 605.025 267.264 604.855C267.034 604.685 266.754 604.56 266.424 604.48C266.104 604.39 265.794 604.315 265.494 604.255C264.574 604.095 263.704 603.81 262.884 603.4C262.074 602.98 261.414 602.44 260.904 601.78C260.394 601.12 260.139 600.33 260.139 599.41C260.139 598.4 260.404 597.53 260.934 596.8C261.464 596.06 262.154 595.49 263.004 595.09C263.854 594.69 264.774 594.49 265.764 594.49C266.934 594.49 268.019 594.735 269.019 595.225C270.019 595.715 270.824 596.405 271.434 597.295L268.164 599.23C268.034 599.04 267.864 598.86 267.654 598.69C267.454 598.51 267.219 598.36 266.949 598.24C266.689 598.11 266.409 598.035 266.109 598.015C265.719 597.985 265.364 598.01 265.044 598.09C264.724 598.16 264.469 598.295 264.279 598.495C264.099 598.695 264.009 598.965 264.009 599.305C264.009 599.635 264.154 599.88 264.444 600.04C264.734 600.19 265.069 600.305 265.449 600.385C265.829 600.455 266.164 600.54 266.454 600.64C267.324 600.92 268.139 601.28 268.899 601.72C269.669 602.15 270.289 602.68 270.759 603.31C271.229 603.94 271.449 604.68 271.419 605.53C271.419 606.52 271.124 607.39 270.534 608.14C269.944 608.88 269.179 609.445 268.239 609.835C267.309 610.215 266.319 610.36 265.269 610.27Z" fill="#FFBD1A"/>
        </g>
    </g>
    <defs>
        <filter id="filter0_ddddd_2667_17468" x="-403" y="88" width="1180" height="1365" filterUnits="userSpaceOnUse" color-interpolation-filters="sRGB">
            <feFlood flood-opacity="0" result="BackgroundImageFix"/>
            <feColorMatrix in="SourceAlpha" type="matrix" values="0 0 0 0 0 0 0 0 0 0 0 0 0 0 0 0 0 0 127 0" result="hardAlpha"/>
            <feOffset/>
            <feColorMatrix type="matrix" values="0 0 0 0 0.294118 0 0 0 0 0.203922 0 0 0 0 0.145098 0 0 0 0.05 0"/>
            <feBlend mode="normal" in2="BackgroundImageFix" result="effect1_dropShadow_2667_17468"/>
            <feColorMatrix in="SourceAlpha" type="matrix" values="0 0 0 0 0 0 0 0 0 0 0 0 0 0 0 0 0 0 127 0" result="hardAlpha"/>
            <feOffset dy="-17"/>
            <feGaussianBlur stdDeviation="19"/>
            <feColorMatrix type="matrix" values="0 0 0 0 0.294118 0 0 0 0 0.203922 0 0 0 0 0.145098 0 0 0 0.05 0"/>
            <feBlend mode="normal" in2="effect1_dropShadow_2667_17468" result="effect2_dropShadow_2667_17468"/>
            <feColorMatrix in="SourceAlpha" type="matrix" values="0 0 0 0 0 0 0 0 0 0 0 0 0 0 0 0 0 0 127 0" result="hardAlpha"/>
            <feOffset dy="-69"/>
            <feGaussianBlur stdDeviation="34.5"/>
            <feColorMatrix type="matrix" values="0 0 0 0 0.294118 0 0 0 0 0.203922 0 0 0 0 0.145098 0 0 0 0.04 0"/>
            <feBlend mode="normal" in2="effect2_dropShadow_2667_17468" result="effect3_dropShadow_2667_17468"/>
            <feColorMatrix in="SourceAlpha" type="matrix" values="0 0 0 0 0 0 0 0 0 0 0 0 0 0 0 0 0 0 127 0" result="hardAlpha"/>
            <feOffset dy="-154"/>
            <feGaussianBlur stdDeviation="46.5"/>
            <feColorMatrix type="matrix" values="0 0 0 0 0.294118 0 0 0 0 0.203922 0 0 0 0 0.145098 0 0 0 0.03 0"/>
            <feBlend mode="normal" in2="effect3_dropShadow_2667_17468" result="effect4_dropShadow_2667_17468"/>
            <feColorMatrix in="SourceAlpha" type="matrix" values="0 0 0 0 0 0 0 0 0 0 0 0 0 0 0 0 0 0 127 0" result="hardAlpha"/>
            <feOffset dy="-274"/>
            <feGaussianBlur stdDeviation="55"/>
            <feColorMatrix type="matrix" values="0 0 0 0 0.294118 0 0 0 0 0.203922 0 0 0 0 0.145098 0 0 0 0.01 0"/>
            <feBlend mode="normal" in2="effect4_dropShadow_2667_17468" result="effect5_dropShadow_2667_17468"/>
            <feBlend mode="normal" in="SourceGraphic" in2="effect5_dropShadow_2667_17468" result="shape"/>
        </filter>
        <clipPath id="clip0_2667_17468">
            <rect width="375" height="812" rx="40" fill="white"/>
        </clipPath>
    </defs>
</svg>
