<svg width="375" height="812" viewBox="0 0 375 812" fill="none" xmlns="http://www.w3.org/2000/svg">
    <g clip-path="url(#clip0_2663_139)">
        <rect width="375" height="812" rx="40" fill="#FFD2C2"/>
        <path opacity="0.48" d="M135.806 449.935C73.8496 446.523 12.3987 435.433 -46.6303 417.067C-63.0243 411.949 -79.4715 406.164 -93.3638 396.354C-107.256 386.544 -118.487 372.096 -120.669 355.542C-121.601 348.398 -120.696 340.668 -116.252 334.857C-107.496 323.367 -89.7976 323.981 -75.3464 326.62C-39.8971 333.071 -5.45902 344.746 26.3709 361.14C-24.6208 339.442 -74.202 303.961 -89.5581 252.06C-91.5275 245.422 -92.8848 238.438 -91.9533 231.587C-89.3718 212.874 -69.518 199.759 -50.0635 198.533C-30.6355 197.307 -11.8995 205.33 4.97351 214.714C34.0356 230.894 60.3565 251.713 82.499 276.078C33.4501 251.9 4.46786 200.425 -8.22684 148.498C-9.77043 142.233 -11.1011 135.622 -9.47769 129.358C-6.04453 116.243 9.79058 109.072 23.6297 110.565C37.4688 112.057 49.5779 120.028 60.596 128.238C99.9309 157.534 134.875 194.534 151.854 239.771C115.952 202.265 104.695 144.259 124.043 96.4365C129.312 83.4012 137.11 70.6858 149.246 63.0886C161.408 55.4913 178.627 54.3717 189.645 63.3551C198.322 70.4459 201.489 81.9084 203.804 92.7045C214.157 141.3 216.073 191.629 209.473 240.917C208.541 198.319 223.658 155.482 251.336 122.24C265.627 105.073 283.246 90.5453 302.86 79.376C331.603 63.0353 364.87 92.2247 350.685 121.441C350.578 121.654 350.498 121.841 350.392 122.054C329.394 164.945 298.069 203.064 259.639 232.494C283.246 196.107 316.885 165.878 356.087 145.832C371.204 138.101 389.328 131.81 404.95 138.421C425.229 147.005 430.632 174.248 422.062 194.108C413.493 213.967 395.183 228.069 377.618 241.237C348.422 263.149 319.254 285.061 290.059 306.973C332.933 274.345 378.336 240.571 432.096 232.201C442.794 230.521 454.957 230.308 463.074 237.212C472.708 245.422 472.309 260.857 465.709 271.6C459.108 282.342 447.878 289.486 437.019 296.257C401.277 318.569 365.535 340.881 329.819 363.193C369.5 337.496 415.143 310.572 461.663 320.355C476.461 323.474 491.79 332.004 495.276 346.292C499.322 362.9 485.722 378.707 471.484 388.837C439.042 411.949 399.175 422.398 360.319 432.395C287.69 451.081 210.511 469.741 138.76 448.682L135.806 449.935Z" fill="#FFF0EB"/>
        <path d="M121.196 317.932C114.541 316.43 108.865 315.27 107.612 315.179C93.9585 314.132 80.0775 315.588 67.0399 319.912C-4.5531 343.76 2.35319 438.4 15.1857 497.133C15.6643 499.294 19.3796 518.659 21.0207 518.728C21.0207 518.728 51.1987 520.047 92.7733 521.868C93.571 452.918 97.1723 383.764 121.196 317.932Z" fill="#FE814B"/>
        <path d="M235.253 350.381C228.62 356.753 221.349 362.533 213.44 367.243C198.009 376.437 176.72 381.102 159.283 379.145C133.527 376.277 135.1 343.213 146.246 324.85C146.77 324.008 132.57 320.458 121.173 317.909C97.1722 383.764 93.571 452.918 92.7732 521.868C125.96 523.324 166.395 525.076 204.573 526.76C219.252 466.435 233.68 406.133 240.814 344.26C238.17 347.241 235.982 349.699 235.253 350.381Z" fill="white"/>
        <path d="M368.524 401.195C368.569 385.517 365.88 368.746 360.045 354.159C343.018 311.606 286.036 293.971 253.122 330.061C252.575 330.676 245.897 338.435 240.814 344.238C233.68 406.133 219.252 466.436 204.573 526.738C272.314 529.696 332.875 532.336 332.898 532.336C333.263 532.336 341.24 510.126 342.243 507.828C346.642 497.702 350.563 487.371 353.982 476.858C360.364 457.22 365.606 436.444 367.749 415.873C368.227 411.117 368.501 406.201 368.524 401.195Z" fill="#FE814B"/>
        <path d="M117.709 238.265C118.666 240.859 119.624 243.43 120.604 246.024C121.06 247.276 123.088 246.73 122.61 245.478C121.652 242.884 120.695 240.313 119.715 237.718C119.259 236.467 117.253 236.99 117.709 238.265Z" fill="#4B3425"/>
        <path d="M138.382 361.213C140.707 376.55 155.637 380.692 169.267 380.26C186.498 379.691 203.206 374.116 217.543 364.672C224.403 360.144 230.74 354.842 236.575 349.084C238.489 347.196 251.914 329.81 253.1 330.061C234.364 326.215 214.83 325.419 196.254 325.168C178.111 324.941 161.654 324.44 146.246 324.872C139.681 335.75 136.399 348.06 138.382 361.213Z" fill="#FEAF8F"/>
        <path d="M259.869 433.03C256.587 458.493 250.023 483.411 240.336 507.213C239.834 508.465 241.84 508.988 242.341 507.759C252.097 483.798 258.638 458.698 261.943 433.03C262.126 431.71 260.029 431.71 259.869 433.03Z" fill="#4B3425"/>
        <path d="M131.476 341.097C126.849 354.136 126.803 368.29 131.362 381.374C131.795 382.626 133.824 382.102 133.368 380.828C128.923 368.062 128.969 354.409 133.482 341.666C133.915 340.369 131.909 339.845 131.476 341.097Z" fill="#4B3425"/>
        <path d="M143.533 390.637C156.617 395.779 172.184 393.913 185.495 390.75C199.923 387.314 214.716 381.443 225.885 371.476C226.888 370.589 225.406 369.11 224.403 369.997C213.508 379.737 198.989 385.403 184.926 388.748C171.956 391.82 156.822 393.663 144.08 388.634C142.85 388.134 142.303 390.136 143.533 390.637Z" fill="#4B3425"/>
        <path d="M103.965 259.382C103.554 255.149 100.409 251.645 96.762 249.779C93.1152 247.89 88.9896 247.367 84.9552 246.866C75.7696 245.706 66.6068 244.545 57.4212 243.408C51.3583 242.634 44.999 241.746 40.1441 237.878C35.2892 234.009 32.8275 226.113 36.634 221.13C41.6712 214.553 53.2729 217.398 57.9911 210.571C61.5696 205.406 58.6065 197.828 53.8883 193.778C49.1701 189.727 43.1072 187.861 37.9332 184.47C30.3431 179.487 24.8727 171.067 23.2544 161.851C22.9581 160.213 22.7986 158.484 23.3 156.891C24.4625 153.25 28.8615 151.725 32.44 152.522C36.0413 153.318 39.05 155.753 42.0587 157.96C47.0504 161.601 53.2501 164.832 59.0395 162.853C64.6694 160.941 67.8605 154.774 69.5699 148.881C71.2794 142.964 72.1227 136.593 75.4733 131.518C79.0974 125.989 85.5934 122.643 91.9983 123.03C98.4031 123.394 104.512 127.468 107.566 133.384C110.256 138.641 110.529 144.807 111.714 150.656C112.877 156.481 115.521 162.671 120.763 164.992C124.615 166.698 129.014 165.947 133.208 165.879C137.402 165.811 142.189 166.858 144.263 170.681C145.471 172.933 145.448 175.664 145.288 178.235C144.514 190.114 141.459 201.697 140.32 213.552C139.157 225.385 140.16 238.106 146.656 247.89L103.965 259.382Z" fill="#4B3425"/>
        <path d="M223.104 325.669L134.234 231.711C121.698 235.602 108.295 231.552 99.2238 222.495C91.1095 245.569 82.8128 285.005 105.332 315.338L127.396 293.675C127.396 293.675 136.057 320.822 144.605 347.492C152.605 372.455 183.239 381.602 203.662 365.15C203.935 364.923 204.209 364.718 204.459 364.49C221.372 350.791 238.056 341.484 223.104 325.669Z" fill="#FEAF8F"/>
        <path d="M134.234 231.711L107.384 203.335C107.384 203.335 103.327 210.822 99.2239 222.495C108.318 231.575 121.698 235.602 134.234 231.711Z" fill="#FEAF8F"/>
        <path d="M167.079 237.969C165.438 246.616 157.118 252.305 148.457 250.667C139.795 249.028 134.097 240.723 135.738 232.076C137.379 223.428 145.699 217.739 154.36 219.378C163.021 220.994 168.72 229.322 167.079 237.969Z" fill="#FEAF8F"/>
        <path d="M148.343 241.837C151.238 236.763 154.155 231.711 157.141 226.682C157.825 225.521 156.024 224.475 155.34 225.635C152.354 230.641 149.437 235.716 146.542 240.79C145.881 241.974 147.682 243.021 148.343 241.837Z" fill="#4B3425"/>
        <path d="M127.396 293.674L145.22 348.538L142.531 276.607L127.396 293.674Z" fill="#4B3425"/>
        <path d="M94.1865 239.516C90.5168 249.028 87.3714 259.314 85.6619 269.349C85.5024 270.282 86.3457 270.896 87.189 270.532C90.9043 268.871 94.6424 267.21 98.3576 265.549C99.5885 265.003 98.5172 263.205 97.3092 263.751C93.5939 265.412 89.8558 267.074 86.1406 268.735C86.642 269.122 87.1662 269.508 87.6677 269.918C89.3772 259.86 92.5226 249.574 96.1923 240.085C96.6938 238.834 94.6652 238.288 94.1865 239.516Z" fill="#4B3425"/>
        <path d="M115.954 237.15C117.116 240.449 118.302 243.749 119.464 247.048C119.92 248.3 121.926 247.754 121.47 246.502C120.307 243.203 119.122 239.903 117.96 236.603C117.527 235.352 115.498 235.898 115.954 237.15Z" fill="#4B3425"/>
        <path d="M118.21 249.187C120.262 248.027 122.313 246.844 124.387 245.683C125.55 245.023 124.501 243.225 123.339 243.885C121.287 245.046 119.236 246.229 117.162 247.39C115.977 248.05 117.025 249.847 118.21 249.187Z" fill="#4B3425"/>
        <path d="M108.729 227.911C113.242 232.758 119.35 235.352 125.983 235.238C127.328 235.216 127.328 233.122 125.983 233.168C119.874 233.281 114.381 230.938 110.21 226.455C109.276 225.453 107.794 226.933 108.729 227.911Z" fill="#4B3425"/>
        <path d="M101.161 289.807C101.161 289.807 102.027 278.247 105.355 273.468C111.008 265.345 113.264 264.844 118.302 261.908C120.398 260.68 123.316 260.202 125.755 260.27C128.171 260.316 130.747 262.159 130.678 264.571C130.633 266.937 128.33 268.553 126.256 269.691C117.093 274.788 106.723 279.453 101.868 288.76L101.161 289.807Z" fill="#4B3425"/>
        <path d="M132.342 259.564C133.733 262.59 133.687 265.981 132.274 269.007C131.704 270.213 133.505 271.26 134.074 270.054C135.852 266.299 135.852 262.294 134.143 258.517C133.573 257.311 131.795 258.358 132.342 259.564Z" fill="#4B3425"/>
        <path d="M45.3867 410.639C43.1985 439.857 44.908 470.031 50.4923 498.817C50.743 500.137 52.7488 499.568 52.4981 498.271C46.9366 469.69 45.2955 439.675 47.4608 410.639C47.5748 409.296 45.4778 409.296 45.3867 410.639Z" fill="#4B3425"/>
        <path d="M161.244 275.106C160.856 275.197 164.344 282.434 166.783 287.736C167.466 289.192 168.105 290.74 169.358 291.764C170.589 292.788 172.549 293.22 174.19 292.31C176.31 291.149 176.925 288.282 176.082 286.37C175.216 284.459 173.347 283.276 171.546 282.183C168.173 280.113 161.244 275.106 161.244 275.106Z" fill="#A28FFF"/>
        <path d="M222.534 283.366C222.147 283.457 225.634 290.694 228.073 295.996C228.757 297.452 229.395 298.999 230.648 300.023C231.879 301.047 233.839 301.48 235.481 300.569C237.6 299.409 238.216 296.542 237.372 294.63C236.506 292.719 234.637 291.535 232.837 290.443C229.486 288.372 222.534 283.366 222.534 283.366Z" fill="#A28FFF"/>
        <path d="M64.9657 277.063C64.715 276.767 59.7005 283.025 55.9852 287.508C54.9595 288.759 53.8655 290.011 53.4552 291.558C53.0677 293.128 53.5464 295.063 55.0507 296.155C57.0337 297.566 59.8828 296.86 61.2276 295.267C62.5724 293.674 62.8459 291.467 63.0511 289.374C63.4613 285.46 64.9657 277.063 64.9657 277.063Z" fill="#A28FFF"/>
        <path d="M126.826 243.34C126.439 243.317 127.67 251.259 128.467 257.016C128.695 258.609 128.878 260.27 129.767 261.613C130.656 262.955 132.411 263.911 134.234 263.524C136.604 263.024 138.018 260.452 137.767 258.381C137.493 256.311 136.057 254.627 134.644 253.057C132.023 250.144 126.826 243.34 126.826 243.34Z" fill="#A28FFF"/>
        <path d="M140.73 220.424C137.516 209.729 141.482 200.058 149.118 192.48C154.907 186.723 162.68 181.74 166.509 174.298C169.837 167.859 166.121 161.533 159.899 158.734C156.047 157.004 151.739 156.845 147.614 156.504C144.309 156.23 140.092 156.686 141.117 151.975C141.687 149.358 143.032 146.4 146.086 146.127C147.408 146.013 147.431 143.92 146.086 144.056C142.895 144.329 140.912 146.4 139.773 149.29C138.793 151.748 137.676 155.957 140.616 157.505C142.257 158.369 144.582 158.347 146.383 158.506C149.642 158.802 152.947 158.87 156.115 159.667C161.859 161.1 167.671 165.879 165.119 172.364C163.25 177.075 158.737 180.92 155.067 184.243C151.443 187.519 147.636 190.682 144.491 194.46C138.2 201.992 135.898 211.527 138.747 220.993C139.089 222.245 141.117 221.698 140.73 220.424Z" fill="#4B3425"/>
        <path d="M47.0503 222.814C50.492 222.518 52.8169 220.493 54.9594 217.921C57.3983 215.031 60.0195 211.686 60.4526 207.818C61.2275 200.718 54.1161 196.326 47.8252 196.053C40.9189 195.78 30.5937 198.283 26.1946 204.132C24.5535 206.316 23.3227 209.707 25.0322 212.233C26.3769 214.235 29.0437 214.804 30.9811 213.348C32.0296 212.551 31.0039 210.731 29.9327 211.55C26.3997 214.212 26.4909 207.545 27.3798 206.089C28.132 204.882 29.2033 203.836 30.3429 203.016C31.8929 201.901 33.6935 201.128 35.4942 200.491C40.3035 198.761 46.2069 197.168 51.2442 198.67C56.441 200.195 59.86 205.019 57.6034 210.321C55.9395 214.258 51.7 220.356 47.0503 220.743C45.7283 220.857 45.7283 222.928 47.0503 222.814Z" fill="#4B3425"/>
        <rect x="189" y="146" width="80" height="80" rx="40" fill="white"/>
        <g filter="url(#filter0_ddddd_2663_139)">
            <rect x="197" y="154" width="64" height="64" rx="32" fill="#A28FFF"/>
            <path fill-rule="evenodd" clip-rule="evenodd" d="M237.781 170.781C238.822 169.74 240.511 169.74 241.552 170.781L249.552 178.781C250.594 179.822 250.594 181.511 249.552 182.552C248.511 183.594 246.822 183.594 245.781 182.552L237.781 174.552C236.74 173.511 236.74 171.822 237.781 170.781Z" fill="#1C0070"/>
            <path fill-rule="evenodd" clip-rule="evenodd" d="M249.552 170.781C250.594 171.822 250.594 173.511 249.552 174.552L241.552 182.552C240.511 183.594 238.822 183.594 237.781 182.552C236.74 181.511 236.74 179.822 237.781 178.781L245.781 170.781C246.822 169.74 248.511 169.74 249.552 170.781Z" fill="#1C0070"/>
            <path fill-rule="evenodd" clip-rule="evenodd" d="M208.448 170.781C209.489 169.74 211.178 169.74 212.219 170.781L220.219 178.781C221.26 179.822 221.26 181.511 220.219 182.552C219.178 183.594 217.489 183.594 216.448 182.552L208.448 174.552C207.406 173.511 207.406 171.822 208.448 170.781Z" fill="#1C0070"/>
            <path fill-rule="evenodd" clip-rule="evenodd" d="M220.219 170.781C221.26 171.822 221.26 173.511 220.219 174.552L212.219 182.552C211.178 183.594 209.489 183.594 208.448 182.552C207.406 181.511 207.406 179.822 208.448 178.781L216.448 170.781C217.489 169.74 219.178 169.74 220.219 170.781Z" fill="#1C0070"/>
            <path fill-rule="evenodd" clip-rule="evenodd" d="M219.26 191.973C222.054 189.829 225.478 188.667 229 188.667C232.522 188.667 235.946 189.829 238.74 191.973C241.535 194.117 243.543 197.124 244.455 200.526C244.836 201.948 243.992 203.411 242.569 203.792C241.147 204.173 239.685 203.329 239.303 201.906C238.696 199.638 237.357 197.634 235.494 196.205C233.631 194.775 231.348 194 229 194C226.652 194 224.37 194.775 222.507 196.205C220.644 197.634 219.305 199.638 218.697 201.906C218.316 203.329 216.854 204.173 215.431 203.792C214.008 203.411 213.164 201.948 213.545 200.526C214.457 197.124 216.466 194.117 219.26 191.973Z" fill="#1C0070"/>
        </g>
        <g filter="url(#filter1_ddddd_2663_139)">
            <rect x="-292" y="472" width="960" height="960" rx="480" fill="white"/>
            <rect x="154" y="526" width="67" height="30" rx="15" fill="#FFD2C2"/>
            <path d="M169.761 545.156C169.313 545.156 168.879 545.086 168.459 544.946C168.043 544.806 167.679 544.606 167.367 544.346C167.055 544.086 166.835 543.776 166.707 543.416L167.493 543.122C167.581 543.37 167.741 543.584 167.973 543.764C168.209 543.94 168.483 544.076 168.795 544.172C169.111 544.268 169.433 544.316 169.761 544.316C170.145 544.316 170.503 544.252 170.835 544.124C171.167 543.996 171.435 543.818 171.639 543.59C171.843 543.358 171.945 543.086 171.945 542.774C171.945 542.458 171.839 542.198 171.627 541.994C171.415 541.79 171.141 541.63 170.805 541.514C170.473 541.394 170.125 541.302 169.761 541.238C169.189 541.138 168.675 541.002 168.219 540.83C167.767 540.658 167.409 540.416 167.145 540.104C166.881 539.788 166.749 539.372 166.749 538.856C166.749 538.372 166.889 537.952 167.169 537.596C167.449 537.24 167.817 536.964 168.273 536.768C168.733 536.572 169.229 536.474 169.761 536.474C170.197 536.474 170.623 536.542 171.039 536.678C171.455 536.814 171.821 537.012 172.137 537.272C172.457 537.532 172.687 537.85 172.827 538.226L172.029 538.514C171.941 538.262 171.779 538.048 171.543 537.872C171.311 537.692 171.039 537.556 170.727 537.464C170.415 537.368 170.093 537.32 169.761 537.32C169.381 537.316 169.025 537.38 168.693 537.512C168.365 537.64 168.099 537.82 167.895 538.052C167.691 538.28 167.589 538.548 167.589 538.856C167.589 539.216 167.683 539.494 167.871 539.69C168.063 539.882 168.323 540.026 168.651 540.122C168.979 540.218 169.349 540.304 169.761 540.38C170.297 540.472 170.795 540.616 171.255 540.812C171.715 541.004 172.085 541.262 172.365 541.586C172.645 541.906 172.785 542.302 172.785 542.774C172.785 543.254 172.645 543.674 172.365 544.034C172.085 544.39 171.715 544.666 171.255 544.862C170.799 545.058 170.301 545.156 169.761 545.156ZM181.389 536.6V537.44H178.509V545H177.669V537.44H174.795V536.6H181.389ZM183.794 545V536.6H188.906V537.44H184.634V540.08H188.168V540.92H184.634V544.16H188.906V545H183.794ZM191.509 545V536.6H194.197C194.645 536.6 195.049 536.71 195.409 536.93C195.769 537.146 196.055 537.44 196.267 537.812C196.483 538.18 196.591 538.594 196.591 539.054C196.591 539.518 196.481 539.936 196.261 540.308C196.045 540.68 195.755 540.974 195.391 541.19C195.031 541.406 194.633 541.514 194.197 541.514H192.349V545H191.509ZM192.349 540.674H194.131C194.427 540.674 194.697 540.602 194.941 540.458C195.189 540.31 195.385 540.112 195.529 539.864C195.677 539.612 195.751 539.328 195.751 539.012C195.751 538.696 195.677 538.414 195.529 538.166C195.385 537.914 195.189 537.716 194.941 537.572C194.697 537.424 194.427 537.35 194.131 537.35H192.349V540.674ZM202.834 545V544.256C203.162 543.952 203.522 543.62 203.914 543.26C204.306 542.896 204.694 542.522 205.078 542.138C205.466 541.75 205.82 541.368 206.14 540.992C206.46 540.612 206.716 540.254 206.908 539.918C207.104 539.578 207.202 539.278 207.202 539.018C207.202 538.702 207.124 538.414 206.968 538.154C206.816 537.89 206.61 537.68 206.35 537.524C206.094 537.364 205.808 537.284 205.492 537.284C205.176 537.284 204.886 537.364 204.622 537.524C204.362 537.68 204.154 537.89 203.998 538.154C203.842 538.414 203.764 538.702 203.764 539.018H202.924C202.924 538.538 203.04 538.104 203.272 537.716C203.508 537.328 203.82 537.02 204.208 536.792C204.596 536.56 205.024 536.444 205.492 536.444C205.96 536.444 206.386 536.56 206.77 536.792C207.158 537.024 207.466 537.334 207.694 537.722C207.926 538.11 208.042 538.542 208.042 539.018C208.042 539.302 207.966 539.614 207.814 539.954C207.666 540.29 207.464 540.64 207.208 541.004C206.952 541.364 206.664 541.728 206.344 542.096C206.024 542.464 205.69 542.824 205.342 543.176C204.994 543.524 204.656 543.852 204.328 544.16H208.168V545H202.834Z" fill="#FE814B"/>
            <path d="M22.4795 610V589H26.6195V610H22.4795ZM44.0071 600.46V610H39.8671V601.6C39.8671 601.07 39.7371 600.595 39.4771 600.175C39.2271 599.745 38.8871 599.405 38.4571 599.155C38.0371 598.905 37.5671 598.78 37.0471 598.78C36.5271 598.78 36.0521 598.905 35.6221 599.155C35.1921 599.405 34.8521 599.745 34.6021 600.175C34.3521 600.595 34.2271 601.07 34.2271 601.6V610H30.0871L30.0721 595H34.2121L34.2271 596.11C34.7271 595.63 35.3121 595.255 35.9821 594.985C36.6621 594.715 37.3771 594.58 38.1271 594.58C39.2171 594.58 40.2021 594.845 41.0821 595.375C41.9721 595.905 42.6821 596.615 43.2121 597.505C43.7421 598.385 44.0071 599.37 44.0071 600.46ZM54.5657 599.14H51.8657V610H47.7257V599.14H45.6557V595H47.7257V590.29H51.8657V595H54.5657V599.14ZM62.9525 610.39C61.5725 610.39 60.3125 610.035 59.1725 609.325C58.0425 608.615 57.1375 607.66 56.4575 606.46C55.7875 605.26 55.4525 603.935 55.4525 602.485C55.4525 601.395 55.6475 600.375 56.0375 599.425C56.4275 598.465 56.9625 597.625 57.6425 596.905C58.3325 596.175 59.1325 595.605 60.0425 595.195C60.9525 594.785 61.9225 594.58 62.9525 594.58C64.1425 594.58 65.2275 594.835 66.2075 595.345C67.1975 595.855 68.0325 596.55 68.7125 597.43C69.4025 598.31 69.8925 599.305 70.1825 600.415C70.4825 601.525 70.5325 602.68 70.3325 603.88H59.9225C60.0525 604.32 60.2525 604.72 60.5225 605.08C60.8025 605.43 61.1425 605.71 61.5425 605.92C61.9525 606.13 62.4225 606.24 62.9525 606.25C63.4725 606.26 63.9525 606.14 64.3925 605.89C64.8325 605.64 65.2075 605.305 65.5175 604.885L69.7475 605.86C69.1375 607.19 68.2275 608.28 67.0175 609.13C65.8075 609.97 64.4525 610.39 62.9525 610.39ZM59.7725 600.82H66.1475C66.0175 600.32 65.7975 599.87 65.4875 599.47C65.1775 599.07 64.8025 598.755 64.3625 598.525C63.9325 598.295 63.4625 598.18 62.9525 598.18C62.4525 598.18 61.9825 598.295 61.5425 598.525C61.1125 598.755 60.7425 599.07 60.4325 599.47C60.1325 599.86 59.9125 600.31 59.7725 600.82ZM71.8658 610V587.5H76.0058V610H71.8658ZM79.0002 610V587.5H83.1402V610H79.0002ZM86.1346 595H90.2746V610H86.1346V595ZM88.2346 593.275C87.6346 593.275 87.1296 593.075 86.7196 592.675C86.3096 592.275 86.1046 591.78 86.1046 591.19C86.1046 590.6 86.3096 590.105 86.7196 589.705C87.1296 589.305 87.6296 589.105 88.2196 589.105C88.8096 589.105 89.3046 589.305 89.7046 589.705C90.1146 590.105 90.3196 590.6 90.3196 591.19C90.3196 591.78 90.1196 592.275 89.7196 592.675C89.3296 593.075 88.8346 593.275 88.2346 593.275ZM103.749 595H107.889V610.21C107.889 611.32 107.664 612.32 107.214 613.21C106.764 614.11 106.149 614.88 105.369 615.52C104.599 616.16 103.709 616.65 102.699 616.99C101.699 617.33 100.639 617.5 99.5188 617.5C98.4588 617.5 97.4438 617.29 96.4738 616.87C95.5038 616.46 94.6438 615.89 93.8938 615.16C93.1438 614.43 92.5588 613.59 92.1388 612.64L95.9188 610.915C96.1288 611.415 96.4138 611.845 96.7738 612.205C97.1438 612.565 97.5638 612.84 98.0338 613.03C98.5138 613.23 99.0088 613.33 99.5188 613.33C100.069 613.33 100.594 613.265 101.094 613.135C101.604 613.005 102.059 612.81 102.459 612.55C102.859 612.29 103.174 611.965 103.404 611.575C103.634 611.185 103.749 610.73 103.749 610.21V608.47C103.289 609.04 102.729 609.505 102.069 609.865C101.419 610.215 100.664 610.39 99.8038 610.39C98.7238 610.39 97.7088 610.185 96.7588 609.775C95.8188 609.365 94.9888 608.8 94.2688 608.08C93.5488 607.35 92.9838 606.51 92.5738 605.56C92.1638 604.61 91.9588 603.59 91.9588 602.5C91.9588 601.41 92.1638 600.39 92.5738 599.44C92.9838 598.49 93.5488 597.655 94.2688 596.935C94.9888 596.205 95.8188 595.635 96.7588 595.225C97.7088 594.815 98.7238 594.61 99.8038 594.61C100.664 594.61 101.419 594.79 102.069 595.15C102.729 595.5 103.289 595.96 103.749 596.53V595ZM99.8638 606.415C100.544 606.415 101.159 606.24 101.709 605.89C102.259 605.53 102.689 605.055 102.999 604.465C103.319 603.875 103.479 603.22 103.479 602.5C103.479 601.78 103.319 601.125 102.999 600.535C102.689 599.935 102.259 599.46 101.709 599.11C101.159 598.76 100.544 598.585 99.8638 598.585C99.1938 598.585 98.5788 598.76 98.0188 599.11C97.4688 599.46 97.0288 599.935 96.6988 600.535C96.3688 601.125 96.2038 601.78 96.2038 602.5C96.2038 603.22 96.3688 603.88 96.6988 604.48C97.0288 605.07 97.4688 605.54 98.0188 605.89C98.5788 606.24 99.1938 606.415 99.8638 606.415ZM117.081 610.39C115.701 610.39 114.441 610.035 113.301 609.325C112.171 608.615 111.266 607.66 110.586 606.46C109.916 605.26 109.581 603.935 109.581 602.485C109.581 601.395 109.776 600.375 110.166 599.425C110.556 598.465 111.091 597.625 111.771 596.905C112.461 596.175 113.261 595.605 114.171 595.195C115.081 594.785 116.051 594.58 117.081 594.58C118.271 594.58 119.356 594.835 120.336 595.345C121.326 595.855 122.161 596.55 122.841 597.43C123.531 598.31 124.021 599.305 124.311 600.415C124.611 601.525 124.661 602.68 124.461 603.88H114.051C114.181 604.32 114.381 604.72 114.651 605.08C114.931 605.43 115.271 605.71 115.671 605.92C116.081 606.13 116.551 606.24 117.081 606.25C117.601 606.26 118.081 606.14 118.521 605.89C118.961 605.64 119.336 605.305 119.646 604.885L123.876 605.86C123.266 607.19 122.356 608.28 121.146 609.13C119.936 609.97 118.581 610.39 117.081 610.39ZM113.901 600.82H120.276C120.146 600.32 119.926 599.87 119.616 599.47C119.306 599.07 118.931 598.755 118.491 598.525C118.061 598.295 117.591 598.18 117.081 598.18C116.581 598.18 116.111 598.295 115.671 598.525C115.241 598.755 114.871 599.07 114.561 599.47C114.261 599.86 114.041 600.31 113.901 600.82ZM140.193 600.46V610H136.053V601.6C136.053 601.07 135.923 600.595 135.663 600.175C135.413 599.745 135.073 599.405 134.643 599.155C134.223 598.905 133.753 598.78 133.233 598.78C132.713 598.78 132.238 598.905 131.808 599.155C131.378 599.405 131.038 599.745 130.788 600.175C130.538 600.595 130.413 601.07 130.413 601.6V610H126.273L126.258 595H130.398L130.413 596.11C130.913 595.63 131.498 595.255 132.168 594.985C132.848 594.715 133.563 594.58 134.313 594.58C135.403 594.58 136.388 594.845 137.268 595.375C138.158 595.905 138.868 596.615 139.398 597.505C139.928 598.385 140.193 599.37 140.193 600.46ZM150.752 599.14H148.052V610H143.912V599.14H141.842V595H143.912V590.29H148.052V595H150.752V599.14Z" fill="#FE631B"/>
            <path d="M159.468 610L163.548 589H167.043L171.918 601.855L176.808 589H180.303L184.383 610H180.153L177.828 597.955L173.343 609.79H170.493L166.023 597.955L163.683 610H159.468ZM192.275 610.39C190.895 610.39 189.635 610.035 188.495 609.325C187.365 608.615 186.46 607.665 185.78 606.475C185.11 605.275 184.775 603.95 184.775 602.5C184.775 601.4 184.97 600.375 185.36 599.425C185.75 598.465 186.285 597.625 186.965 596.905C187.655 596.175 188.455 595.605 189.365 595.195C190.275 594.785 191.245 594.58 192.275 594.58C193.655 594.58 194.91 594.935 196.04 595.645C197.18 596.355 198.085 597.31 198.755 598.51C199.435 599.71 199.775 601.04 199.775 602.5C199.775 603.59 199.58 604.61 199.19 605.56C198.8 606.51 198.26 607.35 197.57 608.08C196.89 608.8 196.095 609.365 195.185 609.775C194.285 610.185 193.315 610.39 192.275 610.39ZM192.275 606.25C192.915 606.25 193.49 606.08 194 605.74C194.51 605.39 194.91 604.93 195.2 604.36C195.49 603.79 195.635 603.17 195.635 602.5C195.635 601.81 195.48 601.18 195.17 600.61C194.87 600.03 194.465 599.57 193.955 599.23C193.445 598.89 192.885 598.72 192.275 598.72C191.645 598.72 191.075 598.895 190.565 599.245C190.055 599.595 189.65 600.055 189.35 600.625C189.06 601.195 188.915 601.82 188.915 602.5C188.915 603.21 189.065 603.85 189.365 604.42C189.675 604.98 190.085 605.425 190.595 605.755C191.105 606.085 191.665 606.25 192.275 606.25ZM208.169 610.39C206.789 610.39 205.529 610.035 204.389 609.325C203.259 608.615 202.354 607.665 201.674 606.475C201.004 605.275 200.669 603.95 200.669 602.5C200.669 601.4 200.864 600.375 201.254 599.425C201.644 598.465 202.179 597.625 202.859 596.905C203.549 596.175 204.349 595.605 205.259 595.195C206.169 594.785 207.139 594.58 208.169 594.58C209.549 594.58 210.804 594.935 211.934 595.645C213.074 596.355 213.979 597.31 214.649 598.51C215.329 599.71 215.669 601.04 215.669 602.5C215.669 603.59 215.474 604.61 215.084 605.56C214.694 606.51 214.154 607.35 213.464 608.08C212.784 608.8 211.989 609.365 211.079 609.775C210.179 610.185 209.209 610.39 208.169 610.39ZM208.169 606.25C208.809 606.25 209.384 606.08 209.894 605.74C210.404 605.39 210.804 604.93 211.094 604.36C211.384 603.79 211.529 603.17 211.529 602.5C211.529 601.81 211.374 601.18 211.064 600.61C210.764 600.03 210.359 599.57 209.849 599.23C209.339 598.89 208.779 598.72 208.169 598.72C207.539 598.72 206.969 598.895 206.459 599.245C205.949 599.595 205.544 600.055 205.244 600.625C204.954 601.195 204.809 601.82 204.809 602.5C204.809 603.21 204.959 603.85 205.259 604.42C205.569 604.98 205.979 605.425 206.489 605.755C206.999 606.085 207.559 606.25 208.169 606.25ZM228.488 587.5H232.628V610H228.488V608.41C228.028 608.99 227.458 609.465 226.778 609.835C226.098 610.205 225.323 610.39 224.453 610.39C223.363 610.39 222.343 610.185 221.393 609.775C220.443 609.365 219.603 608.8 218.873 608.08C218.153 607.35 217.588 606.51 217.178 605.56C216.768 604.61 216.563 603.59 216.563 602.5C216.563 601.41 216.768 600.39 217.178 599.44C217.588 598.49 218.153 597.655 218.873 596.935C219.603 596.205 220.443 595.635 221.393 595.225C222.343 594.815 223.363 594.61 224.453 594.61C225.323 594.61 226.098 594.795 226.778 595.165C227.458 595.525 228.028 596 228.488 596.59V587.5ZM224.513 606.415C225.193 606.415 225.808 606.24 226.358 605.89C226.908 605.54 227.343 605.07 227.663 604.48C227.983 603.88 228.143 603.22 228.143 602.5C228.143 601.77 227.983 601.11 227.663 600.52C227.343 599.93 226.908 599.46 226.358 599.11C225.808 598.76 225.193 598.585 224.513 598.585C223.823 598.585 223.198 598.76 222.638 599.11C222.078 599.46 221.633 599.935 221.303 600.535C220.973 601.125 220.808 601.78 220.808 602.5C220.808 603.22 220.973 603.88 221.303 604.48C221.643 605.07 222.093 605.54 222.653 605.89C223.213 606.24 223.833 606.415 224.513 606.415ZM258.149 589V593.14H251.969V610H247.829V593.14H241.649V589H258.149ZM258.774 610L258.759 595H262.899L262.914 596.11C263.414 595.63 263.999 595.255 264.669 594.985C265.349 594.715 266.064 594.58 266.814 594.58C267.364 594.58 267.914 594.66 268.464 594.82L266.829 599.005C266.469 598.855 266.104 598.78 265.734 598.78C265.214 598.78 264.739 598.905 264.309 599.155C263.879 599.405 263.539 599.745 263.289 600.175C263.039 600.595 262.914 601.07 262.914 601.6V610H258.774ZM279.804 595H283.944V610H279.789L279.594 608.44C279.204 609.02 278.704 609.49 278.094 609.85C277.484 610.21 276.769 610.39 275.949 610.39C274.829 610.39 273.784 610.18 272.814 609.76C271.844 609.34 270.989 608.76 270.249 608.02C269.509 607.28 268.929 606.425 268.509 605.455C268.099 604.475 267.894 603.425 267.894 602.305C267.894 601.235 268.089 600.235 268.479 599.305C268.869 598.375 269.419 597.555 270.129 596.845C270.839 596.135 271.654 595.58 272.574 595.18C273.504 594.78 274.504 594.58 275.574 594.58C276.494 594.58 277.319 594.775 278.049 595.165C278.789 595.555 279.434 596.05 279.984 596.65L279.804 595ZM275.844 606.415C276.524 606.415 277.139 606.24 277.689 605.89C278.239 605.54 278.674 605.07 278.994 604.48C279.314 603.88 279.474 603.22 279.474 602.5C279.474 601.77 279.314 601.11 278.994 600.52C278.674 599.93 278.239 599.46 277.689 599.11C277.139 598.76 276.524 598.585 275.844 598.585C275.154 598.585 274.529 598.76 273.969 599.11C273.409 599.46 272.964 599.935 272.634 600.535C272.304 601.125 272.139 601.78 272.139 602.5C272.139 603.22 272.304 603.88 272.634 604.48C272.974 605.07 273.424 605.54 273.984 605.89C274.544 606.24 275.164 606.415 275.844 606.415ZM294.945 605.26L298.665 607.27C297.975 608.21 297.11 608.965 296.07 609.535C295.03 610.105 293.895 610.39 292.665 610.39C291.285 610.39 290.025 610.035 288.885 609.325C287.755 608.615 286.85 607.665 286.17 606.475C285.5 605.275 285.165 603.95 285.165 602.5C285.165 601.4 285.36 600.375 285.75 599.425C286.14 598.465 286.675 597.625 287.355 596.905C288.045 596.175 288.845 595.605 289.755 595.195C290.665 594.785 291.635 594.58 292.665 594.58C293.895 594.58 295.03 594.865 296.07 595.435C297.11 596.005 297.975 596.77 298.665 597.73L294.945 599.74C294.635 599.41 294.28 599.16 293.88 598.99C293.49 598.81 293.085 598.72 292.665 598.72C292.025 598.72 291.45 598.895 290.94 599.245C290.44 599.595 290.04 600.06 289.74 600.64C289.45 601.21 289.305 601.83 289.305 602.5C289.305 603.16 289.455 603.775 289.755 604.345C290.055 604.915 290.455 605.375 290.955 605.725C291.465 606.075 292.035 606.25 292.665 606.25C293.095 606.25 293.505 606.16 293.895 605.98C294.285 605.8 294.635 605.56 294.945 605.26ZM314.121 610H309.351L306.171 604.525L304.341 606.7V610H300.201V587.5H304.341V600.265L308.751 595H314.151L309.006 601.165L314.121 610ZM315.509 595H319.649V610H315.509V595ZM317.609 593.275C317.009 593.275 316.504 593.075 316.094 592.675C315.684 592.275 315.479 591.78 315.479 591.19C315.479 590.6 315.684 590.105 316.094 589.705C316.504 589.305 317.004 589.105 317.594 589.105C318.184 589.105 318.679 589.305 319.079 589.705C319.489 590.105 319.694 590.6 319.694 591.19C319.694 591.78 319.494 592.275 319.094 592.675C318.704 593.075 318.209 593.275 317.609 593.275ZM336.432 600.46V610H332.292V601.6C332.292 601.07 332.162 600.595 331.902 600.175C331.652 599.745 331.312 599.405 330.882 599.155C330.462 598.905 329.992 598.78 329.472 598.78C328.952 598.78 328.477 598.905 328.047 599.155C327.617 599.405 327.277 599.745 327.027 600.175C326.777 600.595 326.652 601.07 326.652 601.6V610H322.512L322.497 595H326.637L326.652 596.11C327.152 595.63 327.737 595.255 328.407 594.985C329.087 594.715 329.802 594.58 330.552 594.58C331.642 594.58 332.627 594.845 333.507 595.375C334.397 595.905 335.107 596.615 335.637 597.505C336.167 598.385 336.432 599.37 336.432 600.46ZM349.428 595H353.568V610.21C353.568 611.32 353.343 612.32 352.893 613.21C352.443 614.11 351.828 614.88 351.048 615.52C350.278 616.16 349.388 616.65 348.378 616.99C347.378 617.33 346.318 617.5 345.198 617.5C344.138 617.5 343.123 617.29 342.153 616.87C341.183 616.46 340.323 615.89 339.573 615.16C338.823 614.43 338.238 613.59 337.818 612.64L341.598 610.915C341.808 611.415 342.093 611.845 342.453 612.205C342.823 612.565 343.243 612.84 343.713 613.03C344.193 613.23 344.688 613.33 345.198 613.33C345.748 613.33 346.273 613.265 346.773 613.135C347.283 613.005 347.738 612.81 348.138 612.55C348.538 612.29 348.853 611.965 349.083 611.575C349.313 611.185 349.428 610.73 349.428 610.21V608.47C348.968 609.04 348.408 609.505 347.748 609.865C347.098 610.215 346.343 610.39 345.483 610.39C344.403 610.39 343.388 610.185 342.438 609.775C341.498 609.365 340.668 608.8 339.948 608.08C339.228 607.35 338.663 606.51 338.253 605.56C337.843 604.61 337.638 603.59 337.638 602.5C337.638 601.41 337.843 600.39 338.253 599.44C338.663 598.49 339.228 597.655 339.948 596.935C340.668 596.205 341.498 595.635 342.438 595.225C343.388 594.815 344.403 594.61 345.483 594.61C346.343 594.61 347.098 594.79 347.748 595.15C348.408 595.5 348.968 595.96 349.428 596.53V595ZM345.543 606.415C346.223 606.415 346.838 606.24 347.388 605.89C347.938 605.53 348.368 605.055 348.678 604.465C348.998 603.875 349.158 603.22 349.158 602.5C349.158 601.78 348.998 601.125 348.678 600.535C348.368 599.935 347.938 599.46 347.388 599.11C346.838 598.76 346.223 598.585 345.543 598.585C344.873 598.585 344.258 598.76 343.698 599.11C343.148 599.46 342.708 599.935 342.378 600.535C342.048 601.125 341.883 601.78 341.883 602.5C341.883 603.22 342.048 603.88 342.378 604.48C342.708 605.07 343.148 605.54 343.698 605.89C344.258 606.24 344.873 606.415 345.543 606.415ZM74.7011 648.39C73.4611 648.39 72.3461 648.085 71.3561 647.475C70.3661 646.865 69.5811 646.065 69.0011 645.075C68.4211 644.075 68.1311 642.99 68.1311 641.82C68.1311 641.18 68.1911 640.62 68.3111 640.14C68.4311 639.65 68.6261 639.185 68.8961 638.745C69.1761 638.295 69.5461 637.81 70.0061 637.29C70.4761 636.77 71.0661 636.155 71.7761 635.445C71.4061 635.065 71.0911 634.72 70.8311 634.41C70.5711 634.09 70.3561 633.775 70.1861 633.465C70.0261 633.145 69.9111 632.815 69.8411 632.475C69.7711 632.135 69.7361 631.755 69.7361 631.335C69.7361 630.375 69.9661 629.52 70.4261 628.77C70.8861 628.02 71.4911 627.43 72.2411 627C73.0011 626.56 73.8211 626.34 74.7011 626.34C75.6211 626.34 76.4561 626.565 77.2061 627.015C77.9661 627.455 78.5711 628.05 79.0211 628.8C79.4711 629.55 79.6961 630.395 79.6961 631.335C79.6961 631.765 79.6561 632.155 79.5761 632.505C79.5061 632.845 79.3861 633.17 79.2161 633.48C79.0461 633.79 78.8311 634.105 78.5711 634.425C78.3111 634.735 77.9961 635.075 77.6261 635.445L81.0761 638.895L85.0061 634.95V640.8L84.0011 641.82L87.2561 645.075L84.3311 648L81.0761 644.745C80.3561 645.465 79.7311 646.06 79.2011 646.53C78.6711 647 78.1811 647.375 77.7311 647.655C77.2911 647.925 76.8311 648.115 76.3511 648.225C75.8811 648.335 75.3311 648.39 74.7011 648.39ZM74.7011 644.25C75.0111 644.25 75.2761 644.21 75.4961 644.13C75.7261 644.05 75.9561 643.92 76.1861 643.74C76.4261 643.55 76.6961 643.3 76.9961 642.99C77.3061 642.67 77.6911 642.28 78.1511 641.82L74.7011 638.37C74.2211 638.85 73.8211 639.25 73.5011 639.57C73.1911 639.88 72.9461 640.145 72.7661 640.365C72.5861 640.585 72.4561 640.81 72.3761 641.04C72.3061 641.26 72.2711 641.52 72.2711 641.82C72.2711 642.3 72.3861 642.725 72.6161 643.095C72.8561 643.455 73.1611 643.74 73.5311 643.95C73.9011 644.15 74.2911 644.25 74.7011 644.25ZM74.7011 633.15C75.0811 632.78 75.3711 632.505 75.5711 632.325C75.7711 632.135 75.9011 631.97 75.9611 631.83C76.0311 631.68 76.0661 631.49 76.0661 631.26C76.0661 630.81 75.9161 630.47 75.6161 630.24C75.3261 630 75.0211 629.88 74.7011 629.88C74.3511 629.88 74.0361 630.01 73.7561 630.27C73.4761 630.53 73.3361 630.86 73.3361 631.26C73.3361 631.49 73.3811 631.685 73.4711 631.845C73.5611 632.005 73.7011 632.18 73.8911 632.37C74.0911 632.56 74.3611 632.82 74.7011 633.15ZM96.2713 648V627H109.561V631.14H100.411V634.68H107.551V638.82H100.411V643.86H109.561V648H96.2713ZM112.253 648V633H116.393V634.11C116.903 633.63 117.493 633.255 118.163 632.985C118.833 632.715 119.543 632.58 120.293 632.58C121.313 632.58 122.248 632.815 123.098 633.285C123.958 633.755 124.648 634.38 125.168 635.16C125.698 634.38 126.388 633.755 127.238 633.285C128.088 632.815 129.018 632.58 130.028 632.58C131.118 632.58 132.103 632.845 132.983 633.375C133.873 633.905 134.583 634.615 135.113 635.505C135.643 636.385 135.908 637.37 135.908 638.46V648H131.768V639.6C131.768 639.08 131.638 638.61 131.378 638.19C131.128 637.76 130.793 637.42 130.373 637.17C129.953 636.91 129.483 636.78 128.963 636.78C128.443 636.78 127.968 636.905 127.538 637.155C127.118 637.405 126.778 637.745 126.518 638.175C126.268 638.595 126.143 639.07 126.143 639.6V648H122.003V639.6C122.003 639.07 121.878 638.595 121.628 638.175C121.378 637.745 121.038 637.405 120.608 637.155C120.188 636.905 119.718 636.78 119.198 636.78C118.688 636.78 118.218 636.91 117.788 637.17C117.368 637.42 117.028 637.76 116.768 638.19C116.518 638.61 116.393 639.08 116.393 639.6V648H112.253ZM144.621 648.39C143.241 648.39 141.981 648.035 140.841 647.325C139.711 646.615 138.806 645.665 138.126 644.475C137.456 643.275 137.121 641.95 137.121 640.5C137.121 639.4 137.316 638.375 137.706 637.425C138.096 636.465 138.631 635.625 139.311 634.905C140.001 634.175 140.801 633.605 141.711 633.195C142.621 632.785 143.591 632.58 144.621 632.58C146.001 632.58 147.256 632.935 148.386 633.645C149.526 634.355 150.431 635.31 151.101 636.51C151.781 637.71 152.121 639.04 152.121 640.5C152.121 641.59 151.926 642.61 151.536 643.56C151.146 644.51 150.606 645.35 149.916 646.08C149.236 646.8 148.441 647.365 147.531 647.775C146.631 648.185 145.661 648.39 144.621 648.39ZM144.621 644.25C145.261 644.25 145.836 644.08 146.346 643.74C146.856 643.39 147.256 642.93 147.546 642.36C147.836 641.79 147.981 641.17 147.981 640.5C147.981 639.81 147.826 639.18 147.516 638.61C147.216 638.03 146.811 637.57 146.301 637.23C145.791 636.89 145.231 636.72 144.621 636.72C143.991 636.72 143.421 636.895 142.911 637.245C142.401 637.595 141.996 638.055 141.696 638.625C141.406 639.195 141.261 639.82 141.261 640.5C141.261 641.21 141.411 641.85 141.711 642.42C142.021 642.98 142.431 643.425 142.941 643.755C143.451 644.085 144.011 644.25 144.621 644.25ZM162.045 637.14H159.345V648H155.205V637.14H153.135V633H155.205V628.29H159.345V633H162.045V637.14ZM163.862 633H168.002V648H163.862V633ZM165.962 631.275C165.362 631.275 164.857 631.075 164.447 630.675C164.037 630.275 163.832 629.78 163.832 629.19C163.832 628.6 164.037 628.105 164.447 627.705C164.857 627.305 165.357 627.105 165.947 627.105C166.537 627.105 167.032 627.305 167.432 627.705C167.842 628.105 168.047 628.6 168.047 629.19C168.047 629.78 167.847 630.275 167.447 630.675C167.057 631.075 166.562 631.275 165.962 631.275ZM177.186 648.39C175.806 648.39 174.546 648.035 173.406 647.325C172.276 646.615 171.371 645.665 170.691 644.475C170.021 643.275 169.686 641.95 169.686 640.5C169.686 639.4 169.881 638.375 170.271 637.425C170.661 636.465 171.196 635.625 171.876 634.905C172.566 634.175 173.366 633.605 174.276 633.195C175.186 632.785 176.156 632.58 177.186 632.58C178.566 632.58 179.821 632.935 180.951 633.645C182.091 634.355 182.996 635.31 183.666 636.51C184.346 637.71 184.686 639.04 184.686 640.5C184.686 641.59 184.491 642.61 184.101 643.56C183.711 644.51 183.171 645.35 182.481 646.08C181.801 646.8 181.006 647.365 180.096 647.775C179.196 648.185 178.226 648.39 177.186 648.39ZM177.186 644.25C177.826 644.25 178.401 644.08 178.911 643.74C179.421 643.39 179.821 642.93 180.111 642.36C180.401 641.79 180.546 641.17 180.546 640.5C180.546 639.81 180.391 639.18 180.081 638.61C179.781 638.03 179.376 637.57 178.866 637.23C178.356 636.89 177.796 636.72 177.186 636.72C176.556 636.72 175.986 636.895 175.476 637.245C174.966 637.595 174.561 638.055 174.261 638.625C173.971 639.195 173.826 639.82 173.826 640.5C173.826 641.21 173.976 641.85 174.276 642.42C174.586 642.98 174.996 643.425 175.506 643.755C176.016 644.085 176.576 644.25 177.186 644.25ZM200.298 638.46V648H196.158V639.6C196.158 639.07 196.028 638.595 195.768 638.175C195.518 637.745 195.178 637.405 194.748 637.155C194.328 636.905 193.858 636.78 193.338 636.78C192.818 636.78 192.343 636.905 191.913 637.155C191.483 637.405 191.143 637.745 190.893 638.175C190.643 638.595 190.518 639.07 190.518 639.6V648H186.378L186.363 633H190.503L190.518 634.11C191.018 633.63 191.603 633.255 192.273 632.985C192.953 632.715 193.668 632.58 194.418 632.58C195.508 632.58 196.493 632.845 197.373 633.375C198.263 633.905 198.973 634.615 199.503 635.505C200.033 636.385 200.298 637.37 200.298 638.46ZM209.753 648V627H213.893V648H209.753ZM231.281 638.46V648H227.141V639.6C227.141 639.07 227.011 638.595 226.751 638.175C226.501 637.745 226.161 637.405 225.731 637.155C225.311 636.905 224.841 636.78 224.321 636.78C223.801 636.78 223.326 636.905 222.896 637.155C222.466 637.405 222.126 637.745 221.876 638.175C221.626 638.595 221.501 639.07 221.501 639.6V648H217.361L217.346 633H221.486L221.501 634.11C222.001 633.63 222.586 633.255 223.256 632.985C223.936 632.715 224.651 632.58 225.401 632.58C226.491 632.58 227.476 632.845 228.356 633.375C229.246 633.905 229.956 634.615 230.486 635.505C231.016 636.385 231.281 637.37 231.281 638.46ZM238.044 648.27C237.274 648.21 236.534 648.05 235.824 647.79C235.114 647.52 234.479 647.16 233.919 646.71C233.369 646.25 232.939 645.7 232.629 645.06L236.109 643.56C236.219 643.72 236.384 643.895 236.604 644.085C236.824 644.265 237.089 644.425 237.399 644.565C237.719 644.705 238.089 644.775 238.509 644.775C238.819 644.775 239.119 644.74 239.409 644.67C239.699 644.59 239.934 644.465 240.114 644.295C240.294 644.115 240.384 643.88 240.384 643.59C240.384 643.27 240.269 643.025 240.039 642.855C239.809 642.685 239.529 642.56 239.199 642.48C238.879 642.39 238.569 642.315 238.269 642.255C237.349 642.095 236.479 641.81 235.659 641.4C234.849 640.98 234.189 640.44 233.679 639.78C233.169 639.12 232.914 638.33 232.914 637.41C232.914 636.4 233.179 635.53 233.709 634.8C234.239 634.06 234.929 633.49 235.779 633.09C236.629 632.69 237.549 632.49 238.539 632.49C239.709 632.49 240.794 632.735 241.794 633.225C242.794 633.715 243.599 634.405 244.209 635.295L240.939 637.23C240.809 637.04 240.639 636.86 240.429 636.69C240.229 636.51 239.994 636.36 239.724 636.24C239.464 636.11 239.184 636.035 238.884 636.015C238.494 635.985 238.139 636.01 237.819 636.09C237.499 636.16 237.244 636.295 237.054 636.495C236.874 636.695 236.784 636.965 236.784 637.305C236.784 637.635 236.929 637.88 237.219 638.04C237.509 638.19 237.844 638.305 238.224 638.385C238.604 638.455 238.939 638.54 239.229 638.64C240.099 638.92 240.914 639.28 241.674 639.72C242.444 640.15 243.064 640.68 243.534 641.31C244.004 641.94 244.224 642.68 244.194 643.53C244.194 644.52 243.899 645.39 243.309 646.14C242.719 646.88 241.954 647.445 241.014 647.835C240.084 648.215 239.094 648.36 238.044 648.27ZM245.736 633H249.876V648H245.736V633ZM247.836 631.275C247.236 631.275 246.731 631.075 246.321 630.675C245.911 630.275 245.706 629.78 245.706 629.19C245.706 628.6 245.911 628.105 246.321 627.705C246.731 627.305 247.231 627.105 247.821 627.105C248.411 627.105 248.906 627.305 249.306 627.705C249.716 628.105 249.921 628.6 249.921 629.19C249.921 629.78 249.721 630.275 249.321 630.675C248.931 631.075 248.436 631.275 247.836 631.275ZM263.35 633H267.49V648.21C267.49 649.32 267.265 650.32 266.815 651.21C266.365 652.11 265.75 652.88 264.97 653.52C264.2 654.16 263.31 654.65 262.3 654.99C261.3 655.33 260.24 655.5 259.12 655.5C258.06 655.5 257.045 655.29 256.075 654.87C255.105 654.46 254.245 653.89 253.495 653.16C252.745 652.43 252.16 651.59 251.74 650.64L255.52 648.915C255.73 649.415 256.015 649.845 256.375 650.205C256.745 650.565 257.165 650.84 257.635 651.03C258.115 651.23 258.61 651.33 259.12 651.33C259.67 651.33 260.195 651.265 260.695 651.135C261.205 651.005 261.66 650.81 262.06 650.55C262.46 650.29 262.775 649.965 263.005 649.575C263.235 649.185 263.35 648.73 263.35 648.21V646.47C262.89 647.04 262.33 647.505 261.67 647.865C261.02 648.215 260.265 648.39 259.405 648.39C258.325 648.39 257.31 648.185 256.36 647.775C255.42 647.365 254.59 646.8 253.87 646.08C253.15 645.35 252.585 644.51 252.175 643.56C251.765 642.61 251.56 641.59 251.56 640.5C251.56 639.41 251.765 638.39 252.175 637.44C252.585 636.49 253.15 635.655 253.87 634.935C254.59 634.205 255.42 633.635 256.36 633.225C257.31 632.815 258.325 632.61 259.405 632.61C260.265 632.61 261.02 632.79 261.67 633.15C262.33 633.5 262.89 633.96 263.35 634.53V633ZM259.465 644.415C260.145 644.415 260.76 644.24 261.31 643.89C261.86 643.53 262.29 643.055 262.6 642.465C262.92 641.875 263.08 641.22 263.08 640.5C263.08 639.78 262.92 639.125 262.6 638.535C262.29 637.935 261.86 637.46 261.31 637.11C260.76 636.76 260.145 636.585 259.465 636.585C258.795 636.585 258.18 636.76 257.62 637.11C257.07 637.46 256.63 637.935 256.3 638.535C255.97 639.125 255.805 639.78 255.805 640.5C255.805 641.22 255.97 641.88 256.3 642.48C256.63 643.07 257.07 643.54 257.62 643.89C258.18 644.24 258.795 644.415 259.465 644.415ZM284.428 638.46V648H280.288V639.6C280.288 639.07 280.158 638.595 279.898 638.175C279.648 637.745 279.308 637.405 278.878 637.155C278.458 636.905 277.988 636.78 277.468 636.78C276.948 636.78 276.473 636.905 276.043 637.155C275.613 637.405 275.273 637.745 275.023 638.175C274.773 638.595 274.648 639.07 274.648 639.6V648H270.508L270.493 625.5H274.633L274.648 634.11C275.148 633.63 275.733 633.255 276.403 632.985C277.083 632.715 277.798 632.58 278.548 632.58C279.638 632.58 280.623 632.845 281.503 633.375C282.393 633.905 283.103 634.615 283.633 635.505C284.163 636.385 284.428 637.37 284.428 638.46ZM294.986 637.14H292.286V648H288.146V637.14H286.076V633H288.146V628.29H292.286V633H294.986V637.14ZM301.168 648.27C300.398 648.21 299.658 648.05 298.948 647.79C298.238 647.52 297.603 647.16 297.043 646.71C296.493 646.25 296.063 645.7 295.753 645.06L299.233 643.56C299.343 643.72 299.508 643.895 299.728 644.085C299.948 644.265 300.213 644.425 300.523 644.565C300.843 644.705 301.213 644.775 301.633 644.775C301.943 644.775 302.243 644.74 302.533 644.67C302.823 644.59 303.058 644.465 303.238 644.295C303.418 644.115 303.508 643.88 303.508 643.59C303.508 643.27 303.393 643.025 303.163 642.855C302.933 642.685 302.653 642.56 302.323 642.48C302.003 642.39 301.693 642.315 301.393 642.255C300.473 642.095 299.603 641.81 298.783 641.4C297.973 640.98 297.313 640.44 296.803 639.78C296.293 639.12 296.038 638.33 296.038 637.41C296.038 636.4 296.303 635.53 296.833 634.8C297.363 634.06 298.053 633.49 298.903 633.09C299.753 632.69 300.673 632.49 301.663 632.49C302.833 632.49 303.918 632.735 304.918 633.225C305.918 633.715 306.723 634.405 307.333 635.295L304.063 637.23C303.933 637.04 303.763 636.86 303.553 636.69C303.353 636.51 303.118 636.36 302.848 636.24C302.588 636.11 302.308 636.035 302.008 636.015C301.618 635.985 301.263 636.01 300.943 636.09C300.623 636.16 300.368 636.295 300.178 636.495C299.998 636.695 299.908 636.965 299.908 637.305C299.908 637.635 300.053 637.88 300.343 638.04C300.633 638.19 300.968 638.305 301.348 638.385C301.728 638.455 302.063 638.54 302.353 638.64C303.223 638.92 304.038 639.28 304.798 639.72C305.568 640.15 306.188 640.68 306.658 641.31C307.128 641.94 307.348 642.68 307.318 643.53C307.318 644.52 307.023 645.39 306.433 646.14C305.843 646.88 305.078 647.445 304.138 647.835C303.208 648.215 302.218 648.36 301.168 648.27Z" fill="#4B3425"/>
        </g>
    </g>
    <defs>
        <filter id="filter0_ddddd_2663_139" x="185.8" y="151.867" width="86.4" height="105.6" filterUnits="userSpaceOnUse" color-interpolation-filters="sRGB">
            <feFlood flood-opacity="0" result="BackgroundImageFix"/>
            <feColorMatrix in="SourceAlpha" type="matrix" values="0 0 0 0 0 0 0 0 0 0 0 0 0 0 0 0 0 0 127 0" result="hardAlpha"/>
            <feOffset/>
            <feColorMatrix type="matrix" values="0 0 0 0 1 0 0 0 0 0.807843 0 0 0 0 0.360784 0 0 0 0.1 0"/>
            <feBlend mode="normal" in2="BackgroundImageFix" result="effect1_dropShadow_2663_139"/>
            <feColorMatrix in="SourceAlpha" type="matrix" values="0 0 0 0 0 0 0 0 0 0 0 0 0 0 0 0 0 0 127 0" result="hardAlpha"/>
            <feOffset dy="1.6"/>
            <feGaussianBlur stdDeviation="1.86667"/>
            <feColorMatrix type="matrix" values="0 0 0 0 1 0 0 0 0 0.807843 0 0 0 0 0.360784 0 0 0 0.1 0"/>
            <feBlend mode="normal" in2="effect1_dropShadow_2663_139" result="effect2_dropShadow_2663_139"/>
            <feColorMatrix in="SourceAlpha" type="matrix" values="0 0 0 0 0 0 0 0 0 0 0 0 0 0 0 0 0 0 127 0" result="hardAlpha"/>
            <feOffset dy="6.93333"/>
            <feGaussianBlur stdDeviation="3.46667"/>
            <feColorMatrix type="matrix" values="0 0 0 0 1 0 0 0 0 0.807843 0 0 0 0 0.360784 0 0 0 0.09 0"/>
            <feBlend mode="normal" in2="effect2_dropShadow_2663_139" result="effect3_dropShadow_2663_139"/>
            <feColorMatrix in="SourceAlpha" type="matrix" values="0 0 0 0 0 0 0 0 0 0 0 0 0 0 0 0 0 0 127 0" result="hardAlpha"/>
            <feOffset dy="16"/>
            <feGaussianBlur stdDeviation="4.8"/>
            <feColorMatrix type="matrix" values="0 0 0 0 1 0 0 0 0 0.807843 0 0 0 0 0.360784 0 0 0 0.05 0"/>
            <feBlend mode="normal" in2="effect3_dropShadow_2663_139" result="effect4_dropShadow_2663_139"/>
            <feColorMatrix in="SourceAlpha" type="matrix" values="0 0 0 0 0 0 0 0 0 0 0 0 0 0 0 0 0 0 127 0" result="hardAlpha"/>
            <feOffset dy="28.2667"/>
            <feGaussianBlur stdDeviation="5.6"/>
            <feColorMatrix type="matrix" values="0 0 0 0 1 0 0 0 0 0.807843 0 0 0 0 0.360784 0 0 0 0.01 0"/>
            <feBlend mode="normal" in2="effect4_dropShadow_2663_139" result="effect5_dropShadow_2663_139"/>
            <feBlend mode="normal" in="SourceGraphic" in2="effect5_dropShadow_2663_139" result="shape"/>
        </filter>
        <filter id="filter1_ddddd_2663_139" x="-402" y="88" width="1180" height="1365" filterUnits="userSpaceOnUse" color-interpolation-filters="sRGB">
            <feFlood flood-opacity="0" result="BackgroundImageFix"/>
            <feColorMatrix in="SourceAlpha" type="matrix" values="0 0 0 0 0 0 0 0 0 0 0 0 0 0 0 0 0 0 127 0" result="hardAlpha"/>
            <feOffset/>
            <feColorMatrix type="matrix" values="0 0 0 0 0.294118 0 0 0 0 0.203922 0 0 0 0 0.145098 0 0 0 0.05 0"/>
            <feBlend mode="normal" in2="BackgroundImageFix" result="effect1_dropShadow_2663_139"/>
            <feColorMatrix in="SourceAlpha" type="matrix" values="0 0 0 0 0 0 0 0 0 0 0 0 0 0 0 0 0 0 127 0" result="hardAlpha"/>
            <feOffset dy="-17"/>
            <feGaussianBlur stdDeviation="19"/>
            <feColorMatrix type="matrix" values="0 0 0 0 0.294118 0 0 0 0 0.203922 0 0 0 0 0.145098 0 0 0 0.05 0"/>
            <feBlend mode="normal" in2="effect1_dropShadow_2663_139" result="effect2_dropShadow_2663_139"/>
            <feColorMatrix in="SourceAlpha" type="matrix" values="0 0 0 0 0 0 0 0 0 0 0 0 0 0 0 0 0 0 127 0" result="hardAlpha"/>
            <feOffset dy="-69"/>
            <feGaussianBlur stdDeviation="34.5"/>
            <feColorMatrix type="matrix" values="0 0 0 0 0.294118 0 0 0 0 0.203922 0 0 0 0 0.145098 0 0 0 0.04 0"/>
            <feBlend mode="normal" in2="effect2_dropShadow_2663_139" result="effect3_dropShadow_2663_139"/>
            <feColorMatrix in="SourceAlpha" type="matrix" values="0 0 0 0 0 0 0 0 0 0 0 0 0 0 0 0 0 0 127 0" result="hardAlpha"/>
            <feOffset dy="-154"/>
            <feGaussianBlur stdDeviation="46.5"/>
            <feColorMatrix type="matrix" values="0 0 0 0 0.294118 0 0 0 0 0.203922 0 0 0 0 0.145098 0 0 0 0.03 0"/>
            <feBlend mode="normal" in2="effect3_dropShadow_2663_139" result="effect4_dropShadow_2663_139"/>
            <feColorMatrix in="SourceAlpha" type="matrix" values="0 0 0 0 0 0 0 0 0 0 0 0 0 0 0 0 0 0 127 0" result="hardAlpha"/>
            <feOffset dy="-274"/>
            <feGaussianBlur stdDeviation="55"/>
            <feColorMatrix type="matrix" values="0 0 0 0 0.294118 0 0 0 0 0.203922 0 0 0 0 0.145098 0 0 0 0.01 0"/>
            <feBlend mode="normal" in2="effect4_dropShadow_2663_139" result="effect5_dropShadow_2663_139"/>
            <feBlend mode="normal" in="SourceGraphic" in2="effect5_dropShadow_2663_139" result="shape"/>
        </filter>
        <clipPath id="clip0_2663_139">
            <rect width="375" height="812" rx="40" fill="white"/>
        </clipPath>
    </defs>
</svg>
