<svg width="375" height="812" viewBox="0 0 375 812" fill="none" xmlns="http://www.w3.org/2000/svg">
    <g clip-path="url(#clip0_2664_299)">
        <rect width="375" height="812" rx="40" fill="#E5EAD7"/>
        <path d="M-16.7751 133.567C-22.7055 131.128 -26.2316 123.922 -24.6021 117.664C-22.9459 111.406 -16.3209 106.963 -9.98985 107.857C-6.73081 108.318 -3.79233 109.97 -0.933989 111.596C2.69904 113.654 6.33208 115.741 9.96511 117.799C0.909243 114.576 -3.47176 103.251 -1.49497 93.7153C-0.0524414 86.8612 4.56899 80.3052 11.2474 78.5171C16.6969 77.0542 22.4937 78.8964 27.4891 81.5243C43.0097 89.5975 53.882 104.471 63.1249 119.479C60.2398 115.442 63.4455 109.239 68.1203 107.613C72.7952 106.015 77.9241 107.694 82.3319 109.916C92.1624 114.901 100.337 124.437 106 134L-16.7751 133.567Z" fill="#F2F5EB"/>
        <path d="M383.452 158.45C391.057 155.359 395.58 146.223 393.49 138.288C391.366 130.354 382.87 124.721 374.75 125.854C370.571 126.438 366.802 128.533 363.137 130.594C358.478 133.205 353.818 135.85 349.159 138.46C360.773 134.373 366.391 120.015 363.856 107.925C362.006 99.2348 356.079 90.9226 347.515 88.6557C340.526 86.8009 333.092 89.1365 326.686 92.4683C306.781 102.704 292.838 121.561 280.985 140.59C284.685 135.472 280.574 127.606 274.579 125.545C268.583 123.519 262.006 125.648 256.353 128.465C243.746 134.785 233.263 146.875 226 159L383.452 158.45Z" fill="#F2F5EB"/>
        <path d="M-33.0657 375.211C-40.2164 372.326 -44.5027 363.713 -42.5119 356.258C-40.5211 348.802 -32.4969 343.5 -24.8587 344.557C-20.9381 345.105 -17.3627 347.076 -13.9093 349.026C-9.5214 351.484 -5.1335 353.942 -0.745608 356.4C-11.6747 352.54 -16.9768 339.072 -14.5797 327.716C-12.853 319.55 -7.2462 311.749 0.818595 309.616C7.40044 307.869 14.3886 310.083 20.4626 313.191C39.2127 322.82 52.3561 340.514 63.5086 358.391C60.0146 353.576 63.8946 346.182 69.542 344.272C75.1691 342.363 81.3853 344.353 86.7076 347.015C98.5712 352.967 108.464 364.302 115.29 375.698L-33.0657 375.211Z" fill="#F2F5EB"/>
        <path d="M463.436 322.232C474.639 317.691 481.354 304.132 478.235 292.395C475.116 280.659 462.544 272.312 450.577 273.975C444.435 274.838 438.833 277.94 433.422 281.01C426.548 284.88 419.673 288.75 412.798 292.619C429.921 286.543 438.228 265.34 434.473 247.464C431.767 234.608 422.983 222.327 410.347 218.97C400.035 216.219 389.087 219.705 379.57 224.598C350.194 239.756 329.601 267.611 312.128 295.753C317.602 288.174 311.523 276.533 302.675 273.527C293.859 270.521 284.12 273.655 275.781 277.844C257.194 287.215 241.694 305.059 231 323L463.436 322.232Z" fill="#F2F5EB"/>
        <path d="M218.01 138.958C220.438 147.583 230.302 151.67 238.112 147.282C248.126 141.641 260.218 149.965 258.59 161.347C257.314 170.223 264.649 177.97 273.561 177.117C285.002 176.039 292.662 188.575 286.554 198.303C281.772 205.899 285.352 215.953 293.839 218.811C304.704 222.497 306.656 237.063 297.093 243.457C289.658 248.446 288.832 259.076 295.416 265.169C303.852 272.966 299.697 287.056 288.381 289.012C279.569 290.541 274.487 299.918 278.017 308.166C282.573 318.722 273.035 329.904 261.92 327.095C253.233 324.889 244.797 331.408 244.671 340.358C244.546 351.866 231.303 358.209 222.266 351.089C215.231 345.548 204.867 348.055 201.137 356.204C196.355 366.658 181.66 367.06 176.303 356.881C172.122 348.958 161.633 347.002 154.923 352.944C146.312 360.541 132.743 354.925 131.967 343.442C131.366 334.492 122.579 328.449 114.042 331.132C103.077 334.567 92.9635 323.886 96.944 313.106C100.048 304.681 94.4656 295.58 85.5534 294.553C74.1628 293.224 69.231 279.359 77.242 271.111C83.4755 264.692 82.0736 254.087 74.3881 249.524C64.5246 243.657 65.6511 228.99 76.3157 224.728C84.6271 221.394 87.6563 211.164 82.4742 203.844C75.8401 194.467 82.8246 181.53 94.2903 181.981C103.228 182.332 110.162 174.209 108.385 165.409C106.132 154.127 117.773 145.176 128.062 150.24C136.098 154.202 145.711 149.589 147.688 140.839C150.217 129.632 164.487 126.172 171.822 134.997C177.554 141.892 188.219 141.591 193.551 134.395C200.436 125.219 214.881 127.902 218.01 138.958Z" fill="#4B3425"/>
        <path d="M359.203 409.531C349.815 376.637 320.901 353.17 286.829 350.763C208.847 345.222 75.6899 343.217 47.4262 373.453C57.0394 365.38 38.1886 383.331 47.4262 373.453C4.19199 409.731 -2.54224 497.733 -2.54224 497.733L98.4461 497.031L379.706 497.833C381.259 489.81 369.618 446.085 359.203 409.531Z" fill="#9BB068"/>
        <path d="M227.673 314.233L220.713 292.07C226.546 293.449 232.955 291.995 237.687 287.607C245.272 280.587 245.748 268.753 238.738 261.157C231.728 253.56 219.912 253.084 212.327 260.104C211.876 260.53 211.451 260.956 211.05 261.407L202.839 235.283C201.812 232.049 198.608 230.043 195.253 230.544C178.631 233.026 132.217 244.685 128.838 297.335C128.587 301.321 131.716 304.731 135.722 304.731L156.2 304.706L154.573 318.947C179.257 323.685 203.84 321.103 227.673 314.233Z" fill="#CFD9B5"/>
        <path d="M227.673 314.233C203.865 321.128 179.257 323.685 154.598 318.947L149.741 361.493C147.288 382.93 159.755 403.639 180.158 410.584C181.109 410.909 182.085 411.21 183.062 411.511C218.41 421.791 250.78 387.768 239.714 352.593L227.673 314.233Z" fill="#9BB068"/>
        <path d="M164.261 246.791C154.147 252.03 144.008 257.245 133.895 262.485C132.568 263.162 132.443 265.093 133.419 266.096C136.423 269.154 139.402 272.188 142.406 275.247C144.484 277.353 147.713 274.119 145.636 272.013C142.632 268.954 139.652 265.92 136.648 262.861C136.498 264.065 136.348 265.268 136.173 266.472C146.287 261.232 156.425 256.017 166.539 250.777C169.193 249.398 166.865 245.437 164.261 246.791Z" fill="#4B3425"/>
        <path d="M161.382 282.292C161.658 284.648 158.904 286.805 156.751 285.476C154.222 283.946 151.919 287.908 154.448 289.437C159.329 292.421 166.639 288.158 165.988 282.292C165.838 281.063 165.037 280.01 163.685 280.01C162.559 279.985 161.257 281.038 161.382 282.292Z" fill="#4B3425"/>
        <path d="M228.524 269.43C224.594 270.759 220.663 272.088 216.733 273.416C213.954 274.369 215.156 278.782 217.959 277.829C221.89 276.5 225.82 275.171 229.751 273.843C232.529 272.915 231.328 268.477 228.524 269.43Z" fill="#4B3425"/>
        <path d="M173.198 260.505C177.579 270.408 191.248 272.941 199.284 266.071C201.537 264.14 198.283 260.906 196.055 262.837C190.046 267.976 180.283 265.218 177.179 258.198C175.977 255.491 172.022 257.822 173.198 260.505Z" fill="#4B3425"/>
        <path d="M176.953 262.335C175.276 264.04 173.574 265.72 171.896 267.425C169.819 269.506 173.048 272.765 175.126 270.659C176.803 268.954 178.505 267.274 180.183 265.569C182.286 263.488 179.056 260.254 176.953 262.335Z" fill="#4B3425"/>
        <path d="M184.188 268.954C184.213 270.658 184.238 272.338 184.264 274.043C184.289 277.002 188.895 277.002 188.845 274.043C188.82 272.338 188.795 270.658 188.77 268.954C188.72 266.02 184.138 265.995 184.188 268.954Z" fill="#4B3425"/>
        <path d="M193.201 268.904C193.751 270.409 194.277 271.938 194.828 273.442C195.254 274.596 196.38 275.398 197.657 275.047C198.783 274.746 199.685 273.392 199.259 272.214C198.708 270.709 198.183 269.18 197.632 267.676C197.206 266.497 196.08 265.72 194.803 266.071C193.676 266.397 192.8 267.751 193.201 268.904Z" fill="#4B3425"/>
        <path d="M208.972 437.335C208.972 441.723 205.417 445.308 201.011 445.308C196.63 445.308 193.051 441.748 193.051 437.335C193.051 432.948 196.605 429.362 201.011 429.362C205.417 429.362 208.972 432.922 208.972 437.335Z" fill="#4B3425"/>
        <path d="M93.7646 412.163C68.2546 425.275 42.7447 438.388 17.2097 451.5C11.3517 454.509 5.49365 457.517 -0.364378 460.526C-9.97755 465.49 -17.7882 472.034 -22.019 482.313C-25.7742 491.414 -26.2248 503.975 -21.969 513.051C-17.5629 522.453 -10.278 531.077 -0.239206 534.738C9.29886 538.198 21.065 539.501 30.4528 534.688C46.4498 526.464 62.4717 518.241 78.4686 509.992C101.475 498.158 124.482 486.35 147.488 474.516C134.32 451.35 121.252 428.108 108.91 404.391C103.853 406.998 98.7965 409.58 93.7646 412.163Z" fill="#9BB068"/>
        <path d="M172.573 461.629C182.186 456.69 189.996 450.146 194.227 439.867C197.982 430.766 198.433 418.205 194.177 409.129C189.771 399.727 182.486 391.103 172.447 387.442C162.909 383.982 171.246 370.218 161.858 375.057C150.893 380.698 119.85 398.775 108.885 404.391C121.227 428.133 134.27 451.375 147.463 474.516C149.967 473.237 152.495 471.934 154.998 470.655C160.856 467.646 166.714 464.638 172.573 461.629Z" fill="#CFD9B5"/>
        <path d="M176.878 405.569C179.908 385.236 182.937 364.878 185.966 344.545C186.842 338.628 182.586 332.11 176.428 331.433C170.294 330.756 164.286 334.642 163.335 340.985C160.306 361.318 157.276 381.676 154.247 402.009C153.371 407.926 157.627 414.445 163.785 415.122C169.919 415.824 175.927 411.912 176.878 405.569Z" fill="#CFD9B5"/>
        <path d="M177.98 405.87C180.258 390.502 182.561 375.108 184.839 359.739C186.191 350.613 191.048 336.222 179.757 331.182C175.777 329.402 170.87 330.129 167.34 332.586C162.959 335.62 162.284 340.183 161.558 345.147C159.279 360.541 156.976 375.91 154.698 391.304C154.473 392.758 156.701 393.36 156.901 391.906C158.754 379.495 160.581 367.085 162.434 354.674C162.884 351.691 163.31 348.707 163.761 345.749C164.161 343.066 164.261 340.133 165.638 337.701C168.467 332.737 175.577 330.856 180.333 334.116C186.016 338.027 184.864 344.27 183.988 350.161C183.112 356.103 182.211 362.07 181.335 368.012C179.482 380.423 177.655 392.808 175.802 405.219C175.552 406.723 177.755 407.325 177.98 405.87Z" fill="#4B3425"/>
        <path d="M182.361 444.155C187.543 410.985 192.725 377.791 197.907 344.621C198.833 338.704 194.628 332.16 188.444 331.433C182.311 330.706 176.278 334.567 175.276 340.91C170.094 374.08 164.912 407.275 159.73 440.444C158.804 446.361 163.009 452.905 169.193 453.632C175.326 454.359 181.359 450.498 182.361 444.155Z" fill="#CFD9B5"/>
        <path d="M189.27 411.386C191.173 398.549 193.101 385.713 195.003 372.901C195.954 366.483 196.906 360.065 197.857 353.646C198.533 349.033 200.16 343.843 198.783 339.205C196.63 331.934 188.995 328.324 182.035 331.107C178.531 332.511 175.752 335.419 174.675 339.055C172.948 344.896 172.698 351.565 171.796 357.608C169.618 372.174 167.465 386.716 165.287 401.282C165.062 402.736 167.29 403.338 167.49 401.884C169.543 388.07 171.596 374.255 173.649 360.441C174.6 354.047 175.226 347.529 176.503 341.186C177.73 335.093 183.963 330.756 190.172 332.862C197.607 335.394 197.106 343.066 196.155 349.309C195.153 355.978 194.177 362.647 193.176 369.291C191.123 383.105 189.07 396.92 187.017 410.759C186.842 412.213 189.045 412.84 189.27 411.386Z" fill="#4B3425"/>
        <path d="M183.638 352.92C179.958 377.64 176.277 402.361 172.597 427.081C171.721 432.998 175.977 439.517 182.136 440.194C188.269 440.871 194.277 436.985 195.228 430.641C198.908 405.921 202.589 381.2 206.269 356.48C207.145 350.563 202.889 344.044 196.731 343.367C190.597 342.69 184.589 346.576 183.638 352.92Z" fill="#CFD9B5"/>
        <path d="M194.402 443.954C198.483 416.601 202.538 389.248 206.619 361.895C207.395 356.755 208.321 351.942 205.142 347.379C202.238 343.217 197.356 341.387 192.4 342.465C180.834 344.972 181.56 359.137 180.183 368.414C178.13 382.278 176.052 396.143 173.999 410.033C173.774 411.487 176.002 412.088 176.202 410.634C177.729 400.305 179.282 389.975 180.809 379.646C181.635 374.005 182.486 368.364 183.312 362.748C183.988 358.185 183.863 351.841 186.992 348.206C191.699 342.765 200.436 343.392 203.915 349.811C206.644 354.875 204.291 361.87 203.49 367.235C201.662 379.52 199.835 391.831 198.007 404.116C196.055 417.178 194.127 430.265 192.174 443.328C191.974 444.782 194.177 445.409 194.402 443.954Z" fill="#4B3425"/>
        <path d="M294.239 413.341C319.749 426.454 345.259 439.566 370.794 452.679C376.652 455.687 382.51 458.696 388.368 461.704C397.981 466.643 405.792 473.187 410.023 483.466C413.778 492.567 414.228 505.128 409.973 514.204C405.567 523.606 398.282 532.256 388.243 535.891C378.705 539.351 366.939 540.655 357.551 535.841C341.554 527.618 325.532 519.394 309.535 511.145C286.528 499.312 263.522 487.503 240.515 475.669C253.683 452.503 266.751 429.262 279.093 405.544C284.15 408.151 289.207 410.759 294.239 413.341Z" fill="#9BB068"/>
        <path d="M215.431 462.782C205.818 457.843 198.007 451.3 193.776 441.02C190.021 431.919 189.571 419.358 193.826 410.282C198.232 400.881 205.517 392.231 215.556 388.596C225.094 385.136 216.758 371.371 226.146 376.21C237.111 381.851 268.153 399.928 279.118 405.569C266.776 429.312 253.733 452.553 240.54 475.694C238.037 474.416 235.509 473.112 233.005 471.833C227.147 468.825 221.289 465.816 215.431 462.782Z" fill="#CFD9B5"/>
        <path d="M211.125 406.748C208.096 386.415 205.067 366.057 202.038 345.724C201.162 339.807 205.417 333.288 211.576 332.611C217.709 331.934 223.718 335.821 224.669 342.164C227.698 362.497 230.727 382.855 233.756 403.188C234.633 409.105 230.377 415.623 224.218 416.3C218.085 416.977 212.077 413.091 211.125 406.748Z" fill="#CFD9B5"/>
        <path d="M212.227 406.447C210.374 394.037 208.547 381.651 206.694 369.241C205.818 363.299 204.917 357.332 204.04 351.39C203.164 345.498 201.988 339.255 207.695 335.344C212.452 332.06 219.537 333.965 222.391 338.929C223.768 341.311 223.868 344.295 224.268 346.977C224.719 349.961 225.144 352.944 225.595 355.903C227.448 368.313 229.275 380.724 231.128 393.134C231.353 394.588 233.556 393.961 233.331 392.532C231.052 377.138 228.749 361.77 226.471 346.376C225.72 341.411 225.069 336.848 220.688 333.815C217.158 331.358 212.252 330.631 208.271 332.411C196.956 337.45 201.837 351.816 203.189 360.967C205.467 376.336 207.771 391.73 210.049 407.099C210.224 408.503 212.452 407.876 212.227 406.447Z" fill="#4B3425"/>
        <path d="M205.643 445.333C200.461 412.163 195.278 378.968 190.096 345.799C189.17 339.882 193.376 333.338 199.559 332.611C205.693 331.884 211.726 335.745 212.727 342.088C217.909 375.258 223.092 408.452 228.274 441.622C229.2 447.539 224.994 454.083 218.811 454.81C212.677 455.537 206.644 451.676 205.643 445.333Z" fill="#CFD9B5"/>
        <path d="M200.936 411.937C198.883 398.123 196.831 384.309 194.778 370.469C193.827 364.051 192.875 357.632 191.924 351.214C190.973 344.796 190.046 336.673 197.807 334.04C203.64 332.059 210.074 335.945 211.376 341.837C212.777 348.306 213.378 355.05 214.33 361.594C216.382 375.408 218.435 389.223 220.488 403.037C220.713 404.491 222.916 403.864 222.691 402.435C220.788 389.599 218.861 376.762 216.958 363.95C216.007 357.532 215.056 351.114 214.104 344.695C213.478 340.559 212.677 336.973 209.298 334.216C203.39 329.377 194.427 330.68 190.497 337.324C188.144 341.311 188.694 345.222 189.345 349.584C190.297 356.003 191.248 362.421 192.199 368.839C194.377 383.406 196.53 397.948 198.708 412.514C198.933 414.018 201.162 413.392 200.936 411.937Z" fill="#4B3425"/>
        <path d="M204.366 354.097C208.046 378.818 211.726 403.538 215.406 428.259C216.282 434.176 212.026 440.694 205.868 441.371C199.735 442.048 193.726 438.162 192.775 431.819C189.095 407.099 185.415 382.378 181.735 357.657C180.859 351.74 185.115 345.222 191.273 344.545C197.406 343.868 203.415 347.754 204.366 354.097Z" fill="#CFD9B5"/>
        <path d="M195.804 444.505C192.249 420.662 188.695 396.794 185.165 372.951C184.364 367.511 182.786 361.644 182.786 356.153C182.761 348.807 189.871 343.743 196.756 346.375C202.814 348.707 203.29 354.423 204.116 360.014C204.917 365.43 205.718 370.845 206.544 376.261C208.296 388.094 210.074 399.928 211.826 411.787C212.052 413.241 214.255 412.614 214.029 411.185C212.202 398.975 210.399 386.766 208.572 374.531C207.696 368.589 206.794 362.647 205.918 356.705C205.142 351.565 203.64 347.127 198.683 344.695C188.544 339.731 179.357 348.682 180.784 358.936C182.661 372.324 184.764 385.662 186.742 399.026C189.02 414.394 191.323 429.738 193.601 445.107C193.802 446.586 196.03 445.96 195.804 444.505Z" fill="#4B3425"/>
        <path d="M6.64528 458.245C36.0355 442.55 65.4508 426.855 94.8411 411.16C98.9968 408.929 103.152 406.723 107.308 404.491C108.61 403.789 107.458 401.809 106.157 402.511C76.7663 418.205 47.351 433.9 17.9608 449.595C13.8051 451.826 9.64939 454.033 5.4937 456.264C4.16688 456.966 5.3435 458.947 6.64528 458.245Z" fill="#4B3425"/>
        <path d="M366.288 449.093C340.978 435.931 315.694 422.743 290.384 409.58C286.854 407.75 283.324 405.895 279.769 404.065C278.468 403.388 277.291 405.368 278.618 406.045C303.927 419.208 329.212 432.396 354.522 445.558C358.052 447.388 361.581 449.244 365.136 451.074C366.438 451.751 367.59 449.77 366.288 449.093Z" fill="#4B3425"/>
        <path d="M23.8189 435.73C29.2263 437.21 34.6337 438.664 40.0661 440.143C41.4931 440.519 42.0939 438.313 40.6669 437.937C35.2595 436.457 29.8521 435.003 24.4197 433.524C22.9927 433.123 22.3919 435.329 23.8189 435.73Z" fill="#4B3425"/>
        <path d="M343.281 438.137C347.612 436.783 351.843 435.154 355.974 433.248C357.301 432.647 356.149 430.666 354.822 431.268C350.867 433.073 346.811 434.627 342.68 435.931C341.279 436.357 341.879 438.589 343.281 438.137Z" fill="#4B3425"/>
        <path d="M293.964 224.878C298.17 234.029 309.735 233.528 316.77 228.213C324.305 222.496 331.891 210.236 328.586 200.484C326.133 193.238 315.068 188.85 310.887 197.224C309.085 200.81 310.512 205.097 313.29 207.779C316.845 211.189 322.278 211.766 326.959 211.916C338.049 212.292 351.017 207.303 352.719 194.893C353.12 192.009 348.714 190.756 348.313 193.664C347.062 202.665 338.55 206.927 330.214 207.303C326.258 207.479 321.351 207.504 317.822 205.423C315.894 204.295 314.292 202.214 314.843 199.932C315.393 197.575 318.122 196.798 320.225 197.475C324.531 198.879 325.157 204.295 324.431 208.055C323.554 212.568 321.026 217.031 318.122 220.541C313.391 226.232 302.25 231.948 297.944 222.522C296.668 219.889 292.737 222.221 293.964 224.878Z" fill="#4B3425"/>
        <path d="M47.0507 163.754C46.2245 174.585 55.2369 183.961 66.1518 182.883C76.8165 181.805 84.0764 171.3 81.3477 160.896C80.3463 157.11 77.1669 152.647 72.811 155.104C68.455 157.561 67.5287 164.105 68.1296 168.542C69.8069 180.827 81.2225 187.12 92.0373 190.33C94.8662 191.182 96.0678 186.744 93.264 185.917C86.5047 183.911 79.2698 180.953 75.2643 174.81C73.2616 171.726 72.0599 167.79 72.6608 164.08C72.7859 163.353 72.9612 162.6 73.2366 161.924C73.537 161.096 74.8137 159.115 76.0154 159.692C77.1169 160.219 77.3422 164.481 77.3422 165.283C77.3922 172.704 71.384 178.596 63.9739 178.396C56.2383 178.195 51.0812 171.175 51.632 163.754C51.8573 160.82 47.276 160.82 47.0507 163.754Z" fill="#4B3425"/>
        <path d="M51.0311 338.302C56.8641 343.818 66.1268 344.846 72.9612 340.484C76.6913 338.102 78.9444 334.341 80.4965 330.305C82.0486 326.168 83.9512 320.602 81.4728 316.415C79.7455 313.481 75.6899 311.576 72.5356 313.381C69.3312 315.211 68.8806 319.348 69.8819 322.557C72.3353 330.505 81.5479 334.466 89.2835 334.065C100.274 333.489 108.585 325.165 114.518 316.641C116.195 314.209 112.24 311.927 110.563 314.334C106.232 320.552 100.624 326.669 93.1138 328.825C87.0054 330.58 78.9944 329.051 75.3394 323.41C74.6635 322.357 73.587 320.451 73.9625 319.123C75.064 315.186 77.3672 318.496 77.7928 319.875C78.1933 321.178 77.9931 322.382 77.7177 323.686C76.9666 327.446 75.4646 331.784 72.811 334.642C67.9793 339.832 59.2924 339.807 54.2605 335.018C52.1326 333.012 48.8782 336.272 51.0311 338.302Z" fill="#4B3425"/>
        <path d="M242.168 158.589C238.012 151.97 238.588 142.769 244.571 137.378C249.728 132.74 262.07 130.584 266.226 137.83C267.628 140.287 266.601 143.621 263.247 142.894C260.643 142.318 259.466 139.635 259.266 137.203C258.941 133.392 260.393 129.431 262.32 126.222C266.226 119.753 273.11 115.315 280.62 114.588C283.524 114.313 283.549 109.724 280.62 110C271.433 110.853 263.147 115.942 258.365 123.89C254.359 130.534 251.631 143.596 261.169 147.031C264.523 148.234 268.554 147.457 270.507 144.273C272.96 140.312 271.107 135.473 267.803 132.665C260.768 126.748 249.578 127.701 242.593 133.091C234.157 139.61 232.655 152.045 238.212 160.896C239.79 163.403 243.745 161.096 242.168 158.589Z" fill="#4B3425"/>
        <g filter="url(#filter0_ddddd_2664_299)">
            <rect x="-292" y="472" width="960" height="960" rx="480" fill="white"/>
        </g>
        <rect x="155.5" y="526" width="66" height="30" rx="15" fill="#E5EAD7"/>
        <path d="M171.602 545.156C171.13 545.156 170.678 545.082 170.246 544.934C169.818 544.786 169.442 544.572 169.118 544.292C168.798 544.012 168.568 543.68 168.428 543.296L169.982 542.72C170.03 542.856 170.13 542.984 170.282 543.104C170.434 543.22 170.624 543.316 170.852 543.392C171.08 543.464 171.33 543.5 171.602 543.5C171.862 543.5 172.106 543.462 172.334 543.386C172.566 543.306 172.752 543.196 172.892 543.056C173.036 542.916 173.108 542.752 173.108 542.564C173.108 542.376 173.034 542.22 172.886 542.096C172.738 541.972 172.548 541.874 172.316 541.802C172.084 541.726 171.846 541.668 171.602 541.628C170.998 541.54 170.456 541.398 169.976 541.202C169.5 541.002 169.124 540.728 168.848 540.38C168.572 540.028 168.434 539.582 168.434 539.042C168.434 538.522 168.58 538.068 168.872 537.68C169.168 537.292 169.556 536.99 170.036 536.774C170.52 536.558 171.042 536.45 171.602 536.45C172.066 536.45 172.514 536.524 172.946 536.672C173.378 536.82 173.754 537.034 174.074 537.314C174.398 537.594 174.63 537.93 174.77 538.322L173.216 538.886C173.168 538.75 173.068 538.624 172.916 538.508C172.764 538.392 172.574 538.298 172.346 538.226C172.118 538.154 171.87 538.118 171.602 538.118C171.346 538.114 171.102 538.152 170.87 538.232C170.642 538.312 170.454 538.422 170.306 538.562C170.162 538.702 170.09 538.862 170.09 539.042C170.09 539.278 170.158 539.456 170.294 539.576C170.434 539.696 170.618 539.782 170.846 539.834C171.074 539.886 171.326 539.932 171.602 539.972C172.17 540.056 172.694 540.206 173.174 540.422C173.654 540.634 174.038 540.918 174.326 541.274C174.618 541.626 174.764 542.056 174.764 542.564C174.764 543.084 174.618 543.538 174.326 543.926C174.034 544.314 173.648 544.616 173.168 544.832C172.688 545.048 172.166 545.156 171.602 545.156ZM183.409 536.6V538.256H180.937V545H179.281V538.256H176.809V536.6H183.409ZM185.807 545V536.6H191.123V538.256H187.463V539.672H190.319V541.328H187.463V543.344H191.123V545H185.807ZM193.652 545V536.6H196.748C197.208 536.6 197.622 536.716 197.99 536.948C198.362 537.18 198.658 537.49 198.878 537.878C199.098 538.262 199.208 538.686 199.208 539.15C199.208 539.622 199.096 540.052 198.872 540.44C198.648 540.824 198.348 541.13 197.972 541.358C197.6 541.586 197.192 541.7 196.748 541.7H195.308V545H193.652ZM195.308 540.044H196.562C196.746 540.044 196.912 540 197.06 539.912C197.208 539.82 197.326 539.698 197.414 539.546C197.506 539.39 197.552 539.218 197.552 539.03C197.552 538.846 197.506 538.678 197.414 538.526C197.326 538.37 197.208 538.246 197.06 538.154C196.912 538.062 196.746 538.016 196.562 538.016H195.308V540.044ZM206.561 545V538.256H205.457L205.901 536.6H208.217V545H206.561Z" fill="#7D944D"/>
        <path d="M33.9871 610V589H41.7271C42.8771 589 43.9121 589.29 44.8321 589.87C45.7621 590.45 46.5021 591.225 47.0521 592.195C47.6021 593.155 47.8771 594.215 47.8771 595.375C47.8771 596.555 47.5971 597.63 47.0371 598.6C46.4771 599.56 45.7271 600.325 44.7871 600.895C43.8571 601.465 42.8371 601.75 41.7271 601.75H38.1271V610H33.9871ZM38.1271 597.61H41.2621C41.7221 597.61 42.1371 597.5 42.5071 597.28C42.8771 597.05 43.1721 596.745 43.3921 596.365C43.6221 595.975 43.7371 595.545 43.7371 595.075C43.7371 594.615 43.6221 594.195 43.3921 593.815C43.1721 593.425 42.8771 593.115 42.5071 592.885C42.1371 592.655 41.7221 592.54 41.2621 592.54H38.1271V597.61ZM55.573 610.39C54.193 610.39 52.933 610.035 51.793 609.325C50.663 608.615 49.758 607.66 49.078 606.46C48.408 605.26 48.073 603.935 48.073 602.485C48.073 601.395 48.268 600.375 48.658 599.425C49.048 598.465 49.583 597.625 50.263 596.905C50.953 596.175 51.753 595.605 52.663 595.195C53.573 594.785 54.543 594.58 55.573 594.58C56.763 594.58 57.848 594.835 58.828 595.345C59.818 595.855 60.653 596.55 61.333 597.43C62.023 598.31 62.513 599.305 62.803 600.415C63.103 601.525 63.153 602.68 62.953 603.88H52.543C52.673 604.32 52.873 604.72 53.143 605.08C53.423 605.43 53.763 605.71 54.163 605.92C54.573 606.13 55.043 606.24 55.573 606.25C56.093 606.26 56.573 606.14 57.013 605.89C57.453 605.64 57.828 605.305 58.138 604.885L62.368 605.86C61.758 607.19 60.848 608.28 59.638 609.13C58.428 609.97 57.073 610.39 55.573 610.39ZM52.393 600.82H58.768C58.638 600.32 58.418 599.87 58.108 599.47C57.798 599.07 57.423 598.755 56.983 598.525C56.553 598.295 56.083 598.18 55.573 598.18C55.073 598.18 54.603 598.295 54.163 598.525C53.733 598.755 53.363 599.07 53.053 599.47C52.753 599.86 52.533 600.31 52.393 600.82ZM64.765 610L64.75 595H68.89L68.905 596.11C69.405 595.63 69.99 595.255 70.66 594.985C71.34 594.715 72.055 594.58 72.805 594.58C73.355 594.58 73.905 594.66 74.455 594.82L72.82 599.005C72.46 598.855 72.095 598.78 71.725 598.78C71.205 598.78 70.73 598.905 70.3 599.155C69.87 599.405 69.53 599.745 69.28 600.175C69.03 600.595 68.905 601.07 68.905 601.6V610H64.765ZM79.765 610.27C78.995 610.21 78.255 610.05 77.545 609.79C76.835 609.52 76.2 609.16 75.64 608.71C75.09 608.25 74.66 607.7 74.35 607.06L77.83 605.56C77.94 605.72 78.105 605.895 78.325 606.085C78.545 606.265 78.81 606.425 79.12 606.565C79.44 606.705 79.81 606.775 80.23 606.775C80.54 606.775 80.84 606.74 81.13 606.67C81.42 606.59 81.655 606.465 81.835 606.295C82.015 606.115 82.105 605.88 82.105 605.59C82.105 605.27 81.99 605.025 81.76 604.855C81.53 604.685 81.25 604.56 80.92 604.48C80.6 604.39 80.29 604.315 79.99 604.255C79.07 604.095 78.2 603.81 77.38 603.4C76.57 602.98 75.91 602.44 75.4 601.78C74.89 601.12 74.635 600.33 74.635 599.41C74.635 598.4 74.9 597.53 75.43 596.8C75.96 596.06 76.65 595.49 77.5 595.09C78.35 594.69 79.27 594.49 80.26 594.49C81.43 594.49 82.515 594.735 83.515 595.225C84.515 595.715 85.32 596.405 85.93 597.295L82.66 599.23C82.53 599.04 82.36 598.86 82.15 598.69C81.95 598.51 81.715 598.36 81.445 598.24C81.185 598.11 80.905 598.035 80.605 598.015C80.215 597.985 79.86 598.01 79.54 598.09C79.22 598.16 78.965 598.295 78.775 598.495C78.595 598.695 78.505 598.965 78.505 599.305C78.505 599.635 78.65 599.88 78.94 600.04C79.23 600.19 79.565 600.305 79.945 600.385C80.325 600.455 80.66 600.54 80.95 600.64C81.82 600.92 82.635 601.28 83.395 601.72C84.165 602.15 84.785 602.68 85.255 603.31C85.725 603.94 85.945 604.68 85.915 605.53C85.915 606.52 85.62 607.39 85.03 608.14C84.44 608.88 83.675 609.445 82.735 609.835C81.805 610.215 80.815 610.36 79.765 610.27ZM94.1734 610.39C92.7934 610.39 91.5334 610.035 90.3934 609.325C89.2634 608.615 88.3584 607.665 87.6784 606.475C87.0084 605.275 86.6734 603.95 86.6734 602.5C86.6734 601.4 86.8684 600.375 87.2584 599.425C87.6484 598.465 88.1834 597.625 88.8634 596.905C89.5534 596.175 90.3534 595.605 91.2634 595.195C92.1734 594.785 93.1434 594.58 94.1734 594.58C95.5534 594.58 96.8084 594.935 97.9384 595.645C99.0784 596.355 99.9834 597.31 100.653 598.51C101.333 599.71 101.673 601.04 101.673 602.5C101.673 603.59 101.478 604.61 101.088 605.56C100.698 606.51 100.158 607.35 99.4684 608.08C98.7884 608.8 97.9934 609.365 97.0834 609.775C96.1834 610.185 95.2134 610.39 94.1734 610.39ZM94.1734 606.25C94.8134 606.25 95.3884 606.08 95.8984 605.74C96.4084 605.39 96.8084 604.93 97.0984 604.36C97.3884 603.79 97.5334 603.17 97.5334 602.5C97.5334 601.81 97.3784 601.18 97.0684 600.61C96.7684 600.03 96.3634 599.57 95.8534 599.23C95.3434 598.89 94.7834 598.72 94.1734 598.72C93.5434 598.72 92.9734 598.895 92.4634 599.245C91.9534 599.595 91.5484 600.055 91.2484 600.625C90.9584 601.195 90.8134 601.82 90.8134 602.5C90.8134 603.21 90.9634 603.85 91.2634 604.42C91.5734 604.98 91.9834 605.425 92.4934 605.755C93.0034 606.085 93.5634 606.25 94.1734 606.25ZM117.285 600.46V610H113.145V601.6C113.145 601.07 113.015 600.595 112.755 600.175C112.505 599.745 112.165 599.405 111.735 599.155C111.315 598.905 110.845 598.78 110.325 598.78C109.805 598.78 109.33 598.905 108.9 599.155C108.47 599.405 108.13 599.745 107.88 600.175C107.63 600.595 107.505 601.07 107.505 601.6V610H103.365L103.35 595H107.49L107.505 596.11C108.005 595.63 108.59 595.255 109.26 594.985C109.94 594.715 110.655 594.58 111.405 594.58C112.495 594.58 113.48 594.845 114.36 595.375C115.25 595.905 115.96 596.615 116.49 597.505C117.02 598.385 117.285 599.37 117.285 600.46ZM130.401 595H134.541V610H130.386L130.191 608.44C129.801 609.02 129.301 609.49 128.691 609.85C128.081 610.21 127.366 610.39 126.546 610.39C125.426 610.39 124.381 610.18 123.411 609.76C122.441 609.34 121.586 608.76 120.846 608.02C120.106 607.28 119.526 606.425 119.106 605.455C118.696 604.475 118.491 603.425 118.491 602.305C118.491 601.235 118.686 600.235 119.076 599.305C119.466 598.375 120.016 597.555 120.726 596.845C121.436 596.135 122.251 595.58 123.171 595.18C124.101 594.78 125.101 594.58 126.171 594.58C127.091 594.58 127.916 594.775 128.646 595.165C129.386 595.555 130.031 596.05 130.581 596.65L130.401 595ZM126.441 606.415C127.121 606.415 127.736 606.24 128.286 605.89C128.836 605.54 129.271 605.07 129.591 604.48C129.911 603.88 130.071 603.22 130.071 602.5C130.071 601.77 129.911 601.11 129.591 600.52C129.271 599.93 128.836 599.46 128.286 599.11C127.736 598.76 127.121 598.585 126.441 598.585C125.751 598.585 125.126 598.76 124.566 599.11C124.006 599.46 123.561 599.935 123.231 600.535C122.901 601.125 122.736 601.78 122.736 602.5C122.736 603.22 122.901 603.88 123.231 604.48C123.571 605.07 124.021 605.54 124.581 605.89C125.141 606.24 125.761 606.415 126.441 606.415ZM136.984 610V587.5H141.124V610H136.984ZM144.119 595H148.259V610H144.119V595ZM146.219 593.275C145.619 593.275 145.114 593.075 144.704 592.675C144.294 592.275 144.089 591.78 144.089 591.19C144.089 590.6 144.294 590.105 144.704 589.705C145.114 589.305 145.614 589.105 146.204 589.105C146.794 589.105 147.289 589.305 147.689 589.705C148.099 590.105 148.304 590.6 148.304 591.19C148.304 591.78 148.104 592.275 147.704 592.675C147.314 593.075 146.819 593.275 146.219 593.275ZM163.463 599.14L156.638 605.86H163.463V610H150.653V605.86L157.478 599.14H150.653V595H163.463V599.14ZM172.048 610.39C170.668 610.39 169.408 610.035 168.268 609.325C167.138 608.615 166.233 607.66 165.553 606.46C164.883 605.26 164.548 603.935 164.548 602.485C164.548 601.395 164.743 600.375 165.133 599.425C165.523 598.465 166.058 597.625 166.738 596.905C167.428 596.175 168.228 595.605 169.138 595.195C170.048 594.785 171.018 594.58 172.048 594.58C173.238 594.58 174.323 594.835 175.303 595.345C176.293 595.855 177.128 596.55 177.808 597.43C178.498 598.31 178.988 599.305 179.278 600.415C179.578 601.525 179.628 602.68 179.428 603.88H169.018C169.148 604.32 169.348 604.72 169.618 605.08C169.898 605.43 170.238 605.71 170.638 605.92C171.048 606.13 171.518 606.24 172.048 606.25C172.568 606.26 173.048 606.14 173.488 605.89C173.928 605.64 174.303 605.305 174.613 604.885L178.843 605.86C178.233 607.19 177.323 608.28 176.113 609.13C174.903 609.97 173.548 610.39 172.048 610.39ZM168.868 600.82H175.243C175.113 600.32 174.893 599.87 174.583 599.47C174.273 599.07 173.898 598.755 173.458 598.525C173.028 598.295 172.558 598.18 172.048 598.18C171.548 598.18 171.078 598.295 170.638 598.525C170.208 598.755 169.838 599.07 169.528 599.47C169.228 599.86 169.008 600.31 168.868 600.82ZM201.112 589H206.002L198.742 600.535V610H194.602V600.535L187.342 589H192.232L196.672 596.035L201.112 589ZM211.264 610.39C209.884 610.39 208.624 610.035 207.484 609.325C206.354 608.615 205.449 607.665 204.769 606.475C204.099 605.275 203.764 603.95 203.764 602.5C203.764 601.4 203.959 600.375 204.349 599.425C204.739 598.465 205.274 597.625 205.954 596.905C206.644 596.175 207.444 595.605 208.354 595.195C209.264 594.785 210.234 594.58 211.264 594.58C212.644 594.58 213.899 594.935 215.029 595.645C216.169 596.355 217.074 597.31 217.744 598.51C218.424 599.71 218.764 601.04 218.764 602.5C218.764 603.59 218.569 604.61 218.179 605.56C217.789 606.51 217.249 607.35 216.559 608.08C215.879 608.8 215.084 609.365 214.174 609.775C213.274 610.185 212.304 610.39 211.264 610.39ZM211.264 606.25C211.904 606.25 212.479 606.08 212.989 605.74C213.499 605.39 213.899 604.93 214.189 604.36C214.479 603.79 214.624 603.17 214.624 602.5C214.624 601.81 214.469 601.18 214.159 600.61C213.859 600.03 213.454 599.57 212.944 599.23C212.434 598.89 211.874 598.72 211.264 598.72C210.634 598.72 210.064 598.895 209.554 599.245C209.044 599.595 208.639 600.055 208.339 600.625C208.049 601.195 207.904 601.82 207.904 602.5C207.904 603.21 208.054 603.85 208.354 604.42C208.664 604.98 209.074 605.425 209.584 605.755C210.094 606.085 210.654 606.25 211.264 606.25ZM219.46 604.51V595H223.6V603.37C223.6 603.9 223.725 604.38 223.975 604.81C224.235 605.23 224.58 605.565 225.01 605.815C225.44 606.065 225.91 606.19 226.42 606.19C226.94 606.19 227.415 606.065 227.845 605.815C228.275 605.565 228.615 605.23 228.865 604.81C229.115 604.38 229.24 603.9 229.24 603.37V595H233.38L233.395 610H229.255L229.24 608.86C228.74 609.34 228.15 609.715 227.47 609.985C226.8 610.255 226.09 610.39 225.34 610.39C224.26 610.39 223.275 610.125 222.385 609.595C221.495 609.065 220.785 608.36 220.255 607.48C219.725 606.59 219.46 605.6 219.46 604.51ZM235.822 610L235.807 595H239.947L239.962 596.11C240.462 595.63 241.047 595.255 241.717 594.985C242.397 594.715 243.112 594.58 243.862 594.58C244.412 594.58 244.962 594.66 245.512 594.82L243.877 599.005C243.517 598.855 243.152 598.78 242.782 598.78C242.262 598.78 241.787 598.905 241.357 599.155C240.927 599.405 240.587 599.745 240.337 600.175C240.087 600.595 239.962 601.07 239.962 601.6V610H235.822ZM253.621 610L257.701 589H261.196L266.071 601.855L270.961 589H274.456L278.536 610H274.306L271.981 597.955L267.496 609.79H264.646L260.176 597.955L257.836 610H253.621ZM286.428 610.39C285.048 610.39 283.788 610.035 282.648 609.325C281.518 608.615 280.613 607.66 279.933 606.46C279.263 605.26 278.928 603.935 278.928 602.485C278.928 601.395 279.123 600.375 279.513 599.425C279.903 598.465 280.438 597.625 281.118 596.905C281.808 596.175 282.608 595.605 283.518 595.195C284.428 594.785 285.398 594.58 286.428 594.58C287.618 594.58 288.703 594.835 289.683 595.345C290.673 595.855 291.508 596.55 292.188 597.43C292.878 598.31 293.368 599.305 293.658 600.415C293.958 601.525 294.008 602.68 293.808 603.88H283.398C283.528 604.32 283.728 604.72 283.998 605.08C284.278 605.43 284.618 605.71 285.018 605.92C285.428 606.13 285.898 606.24 286.428 606.25C286.948 606.26 287.428 606.14 287.868 605.89C288.308 605.64 288.683 605.305 288.993 604.885L293.223 605.86C292.613 607.19 291.703 608.28 290.493 609.13C289.283 609.97 287.928 610.39 286.428 610.39ZM283.248 600.82H289.623C289.493 600.32 289.273 599.87 288.963 599.47C288.653 599.07 288.278 598.755 287.838 598.525C287.408 598.295 286.938 598.18 286.428 598.18C285.928 598.18 285.458 598.295 285.018 598.525C284.588 598.755 284.218 599.07 283.908 599.47C283.608 599.86 283.388 600.31 283.248 600.82ZM309.54 600.46V610H305.4V601.6C305.4 601.07 305.27 600.595 305.01 600.175C304.76 599.745 304.42 599.405 303.99 599.155C303.57 598.905 303.1 598.78 302.58 598.78C302.06 598.78 301.585 598.905 301.155 599.155C300.725 599.405 300.385 599.745 300.135 600.175C299.885 600.595 299.76 601.07 299.76 601.6V610H295.62L295.605 595H299.745L299.76 596.11C300.26 595.63 300.845 595.255 301.515 594.985C302.195 594.715 302.91 594.58 303.66 594.58C304.75 594.58 305.735 594.845 306.615 595.375C307.505 595.905 308.215 596.615 308.745 597.505C309.275 598.385 309.54 599.37 309.54 600.46ZM320.098 599.14H317.398V610H313.258V599.14H311.188V595H313.258V590.29H317.398V595H320.098V599.14ZM332.895 595H337.035V610H332.88L332.685 608.44C332.295 609.02 331.795 609.49 331.185 609.85C330.575 610.21 329.86 610.39 329.04 610.39C327.92 610.39 326.875 610.18 325.905 609.76C324.935 609.34 324.08 608.76 323.34 608.02C322.6 607.28 322.02 606.425 321.6 605.455C321.19 604.475 320.985 603.425 320.985 602.305C320.985 601.235 321.18 600.235 321.57 599.305C321.96 598.375 322.51 597.555 323.22 596.845C323.93 596.135 324.745 595.58 325.665 595.18C326.595 594.78 327.595 594.58 328.665 594.58C329.585 594.58 330.41 594.775 331.14 595.165C331.88 595.555 332.525 596.05 333.075 596.65L332.895 595ZM328.935 606.415C329.615 606.415 330.23 606.24 330.78 605.89C331.33 605.54 331.765 605.07 332.085 604.48C332.405 603.88 332.565 603.22 332.565 602.5C332.565 601.77 332.405 601.11 332.085 600.52C331.765 599.93 331.33 599.46 330.78 599.11C330.23 598.76 329.615 598.585 328.935 598.585C328.245 598.585 327.62 598.76 327.06 599.11C326.5 599.46 326.055 599.935 325.725 600.535C325.395 601.125 325.23 601.78 325.23 602.5C325.23 603.22 325.395 603.88 325.725 604.48C326.065 605.07 326.515 605.54 327.075 605.89C327.635 606.24 328.255 606.415 328.935 606.415ZM339.478 610V587.5H343.618V610H339.478ZM232.173 648L226.803 627H231.078L234.498 640.425L237.918 627H241.713L245.133 640.425L248.553 627H252.828L247.488 648H242.808L239.823 636.33L236.853 648H232.173ZM254.104 633H258.244V648H254.104V633ZM256.204 631.275C255.604 631.275 255.099 631.075 254.689 630.675C254.279 630.275 254.074 629.78 254.074 629.19C254.074 628.6 254.279 628.105 254.689 627.705C255.099 627.305 255.599 627.105 256.189 627.105C256.779 627.105 257.274 627.305 257.674 627.705C258.084 628.105 258.289 628.6 258.289 629.19C258.289 629.78 258.089 630.275 257.689 630.675C257.299 631.075 256.804 631.275 256.204 631.275ZM269.398 637.14H266.698V648H262.558V637.14H260.488V633H262.558V628.29H266.698V633H269.398V637.14ZM285.442 638.46V648H281.302V639.6C281.302 639.07 281.172 638.595 280.912 638.175C280.662 637.745 280.322 637.405 279.892 637.155C279.472 636.905 279.002 636.78 278.482 636.78C277.962 636.78 277.487 636.905 277.057 637.155C276.627 637.405 276.287 637.745 276.037 638.175C275.787 638.595 275.662 639.07 275.662 639.6V648H271.522L271.507 625.5H275.647L275.662 634.11C276.162 633.63 276.747 633.255 277.417 632.985C278.097 632.715 278.812 632.58 279.562 632.58C280.652 632.58 281.637 632.845 282.517 633.375C283.407 633.905 284.117 634.615 284.647 635.505C285.177 636.385 285.442 637.37 285.442 638.46ZM301.468 627H306.178L313.798 648H309.403L308.143 644.52H299.503L298.243 648H293.848L301.468 627ZM301.018 640.38H306.628L303.808 632.685L301.018 640.38ZM316.095 648V627H320.235V648H316.095Z" fill="#4B3425"/>
        <path d="M68.4325 627H72.5725V648H68.4325V638.82H60.4525V648H56.3125V627H60.4525V634.68H68.4325V627ZM81.8828 648.39C80.5028 648.39 79.2428 648.035 78.1028 647.325C76.9728 646.615 76.0678 645.66 75.3878 644.46C74.7178 643.26 74.3828 641.935 74.3828 640.485C74.3828 639.395 74.5778 638.375 74.9678 637.425C75.3578 636.465 75.8928 635.625 76.5728 634.905C77.2628 634.175 78.0628 633.605 78.9728 633.195C79.8828 632.785 80.8528 632.58 81.8828 632.58C83.0728 632.58 84.1578 632.835 85.1378 633.345C86.1278 633.855 86.9628 634.55 87.6428 635.43C88.3328 636.31 88.8228 637.305 89.1128 638.415C89.4128 639.525 89.4628 640.68 89.2628 641.88H78.8528C78.9828 642.32 79.1828 642.72 79.4528 643.08C79.7328 643.43 80.0728 643.71 80.4728 643.92C80.8828 644.13 81.3528 644.24 81.8828 644.25C82.4028 644.26 82.8828 644.14 83.3228 643.89C83.7628 643.64 84.1378 643.305 84.4478 642.885L88.6778 643.86C88.0678 645.19 87.1578 646.28 85.9478 647.13C84.7378 647.97 83.3828 648.39 81.8828 648.39ZM78.7028 638.82H85.0778C84.9478 638.32 84.7278 637.87 84.4178 637.47C84.1078 637.07 83.7328 636.755 83.2928 636.525C82.8628 636.295 82.3928 636.18 81.8828 636.18C81.3828 636.18 80.9128 636.295 80.4728 636.525C80.0428 636.755 79.6728 637.07 79.3628 637.47C79.0628 637.86 78.8428 638.31 78.7028 638.82ZM102.187 633H106.327V648H102.172L101.977 646.44C101.587 647.02 101.087 647.49 100.477 647.85C99.867 648.21 99.152 648.39 98.332 648.39C97.212 648.39 96.167 648.18 95.197 647.76C94.227 647.34 93.372 646.76 92.632 646.02C91.892 645.28 91.312 644.425 90.892 643.455C90.482 642.475 90.277 641.425 90.277 640.305C90.277 639.235 90.472 638.235 90.862 637.305C91.252 636.375 91.802 635.555 92.512 634.845C93.222 634.135 94.037 633.58 94.957 633.18C95.887 632.78 96.887 632.58 97.957 632.58C98.877 632.58 99.702 632.775 100.432 633.165C101.172 633.555 101.817 634.05 102.367 634.65L102.187 633ZM98.227 644.415C98.907 644.415 99.522 644.24 100.072 643.89C100.622 643.54 101.057 643.07 101.377 642.48C101.697 641.88 101.857 641.22 101.857 640.5C101.857 639.77 101.697 639.11 101.377 638.52C101.057 637.93 100.622 637.46 100.072 637.11C99.522 636.76 98.907 636.585 98.227 636.585C97.537 636.585 96.912 636.76 96.352 637.11C95.792 637.46 95.347 637.935 95.017 638.535C94.687 639.125 94.522 639.78 94.522 640.5C94.522 641.22 94.687 641.88 95.017 642.48C95.357 643.07 95.807 643.54 96.367 643.89C96.927 644.24 97.547 644.415 98.227 644.415ZM108.77 648V625.5H112.91V648H108.77ZM124.065 637.14H121.365V648H117.225V637.14H115.155V633H117.225V628.29H121.365V633H124.065V637.14ZM140.109 638.46V648H135.969V639.6C135.969 639.07 135.839 638.595 135.579 638.175C135.329 637.745 134.989 637.405 134.559 637.155C134.139 636.905 133.669 636.78 133.149 636.78C132.629 636.78 132.154 636.905 131.724 637.155C131.294 637.405 130.954 637.745 130.704 638.175C130.454 638.595 130.329 639.07 130.329 639.6V648H126.189L126.174 625.5H130.314L130.329 634.11C130.829 633.63 131.414 633.255 132.084 632.985C132.764 632.715 133.479 632.58 134.229 632.58C135.319 632.58 136.304 632.845 137.184 633.375C138.074 633.905 138.784 634.615 139.314 635.505C139.844 636.385 140.109 637.37 140.109 638.46ZM156.749 648.39C155.569 648.39 154.439 648.205 153.359 647.835C152.289 647.465 151.349 646.93 150.539 646.23C149.739 645.53 149.164 644.7 148.814 643.74L152.699 642.3C152.819 642.64 153.069 642.96 153.449 643.26C153.829 643.55 154.304 643.79 154.874 643.98C155.444 644.16 156.069 644.25 156.749 644.25C157.399 644.25 158.009 644.155 158.579 643.965C159.159 643.765 159.624 643.49 159.974 643.14C160.334 642.79 160.514 642.38 160.514 641.91C160.514 641.44 160.329 641.05 159.959 640.74C159.589 640.43 159.114 640.185 158.534 640.005C157.954 639.815 157.359 639.67 156.749 639.57C155.239 639.35 153.884 638.995 152.684 638.505C151.494 638.005 150.554 637.32 149.864 636.45C149.174 635.57 148.829 634.455 148.829 633.105C148.829 631.805 149.194 630.67 149.924 629.7C150.664 628.73 151.634 627.975 152.834 627.435C154.044 626.895 155.349 626.625 156.749 626.625C157.909 626.625 159.029 626.81 160.109 627.18C161.189 627.55 162.129 628.085 162.929 628.785C163.739 629.485 164.319 630.325 164.669 631.305L160.784 632.715C160.664 632.375 160.414 632.06 160.034 631.77C159.654 631.48 159.179 631.245 158.609 631.065C158.039 630.885 157.419 630.795 156.749 630.795C156.109 630.785 155.499 630.88 154.919 631.08C154.349 631.28 153.879 631.555 153.509 631.905C153.149 632.255 152.969 632.655 152.969 633.105C152.969 633.695 153.139 634.14 153.479 634.44C153.829 634.74 154.289 634.955 154.859 635.085C155.429 635.215 156.059 635.33 156.749 635.43C158.169 635.64 159.479 636.015 160.679 636.555C161.879 637.085 162.839 637.795 163.559 638.685C164.289 639.565 164.654 640.64 164.654 641.91C164.654 643.21 164.289 644.345 163.559 645.315C162.829 646.285 161.864 647.04 160.664 647.58C159.464 648.12 158.159 648.39 156.749 648.39ZM175.131 637.14H172.431V648H168.291V637.14H166.221V633H168.291V628.29H172.431V633H175.131V637.14ZM187.928 633H192.068V648H187.913L187.718 646.44C187.328 647.02 186.828 647.49 186.218 647.85C185.608 648.21 184.893 648.39 184.073 648.39C182.953 648.39 181.908 648.18 180.938 647.76C179.968 647.34 179.113 646.76 178.373 646.02C177.633 645.28 177.053 644.425 176.633 643.455C176.223 642.475 176.018 641.425 176.018 640.305C176.018 639.235 176.213 638.235 176.603 637.305C176.993 636.375 177.543 635.555 178.253 634.845C178.963 634.135 179.778 633.58 180.698 633.18C181.628 632.78 182.628 632.58 183.698 632.58C184.618 632.58 185.443 632.775 186.173 633.165C186.913 633.555 187.558 634.05 188.108 634.65L187.928 633ZM183.968 644.415C184.648 644.415 185.263 644.24 185.813 643.89C186.363 643.54 186.798 643.07 187.118 642.48C187.438 641.88 187.598 641.22 187.598 640.5C187.598 639.77 187.438 639.11 187.118 638.52C186.798 637.93 186.363 637.46 185.813 637.11C185.263 636.76 184.648 636.585 183.968 636.585C183.278 636.585 182.653 636.76 182.093 637.11C181.533 637.46 181.088 637.935 180.758 638.535C180.428 639.125 180.263 639.78 180.263 640.5C180.263 641.22 180.428 641.88 180.758 642.48C181.098 643.07 181.548 643.54 182.108 643.89C182.668 644.24 183.288 644.415 183.968 644.415ZM202.642 637.14H199.942V648H195.802V637.14H193.732V633H195.802V628.29H199.942V633H202.642V637.14ZM211.029 648.39C209.649 648.39 208.389 648.035 207.249 647.325C206.119 646.615 205.214 645.66 204.534 644.46C203.864 643.26 203.529 641.935 203.529 640.485C203.529 639.395 203.724 638.375 204.114 637.425C204.504 636.465 205.039 635.625 205.719 634.905C206.409 634.175 207.209 633.605 208.119 633.195C209.029 632.785 209.999 632.58 211.029 632.58C212.219 632.58 213.304 632.835 214.284 633.345C215.274 633.855 216.109 634.55 216.789 635.43C217.479 636.31 217.969 637.305 218.259 638.415C218.559 639.525 218.609 640.68 218.409 641.88H207.999C208.129 642.32 208.329 642.72 208.599 643.08C208.879 643.43 209.219 643.71 209.619 643.92C210.029 644.13 210.499 644.24 211.029 644.25C211.549 644.26 212.029 644.14 212.469 643.89C212.909 643.64 213.284 643.305 213.594 642.885L217.824 643.86C217.214 645.19 216.304 646.28 215.094 647.13C213.884 647.97 212.529 648.39 211.029 648.39ZM207.849 638.82H214.224C214.094 638.32 213.874 637.87 213.564 637.47C213.254 637.07 212.879 636.755 212.439 636.525C212.009 636.295 211.539 636.18 211.029 636.18C210.529 636.18 210.059 636.295 209.619 636.525C209.189 636.755 208.819 637.07 208.509 637.47C208.209 637.86 207.989 638.31 207.849 638.82Z" fill="#9BB068"/>
    </g>
    <defs>
        <filter id="filter0_ddddd_2664_299" x="-402" y="88" width="1180" height="1365" filterUnits="userSpaceOnUse" color-interpolation-filters="sRGB">
            <feFlood flood-opacity="0" result="BackgroundImageFix"/>
            <feColorMatrix in="SourceAlpha" type="matrix" values="0 0 0 0 0 0 0 0 0 0 0 0 0 0 0 0 0 0 127 0" result="hardAlpha"/>
            <feOffset/>
            <feColorMatrix type="matrix" values="0 0 0 0 0.294118 0 0 0 0 0.203922 0 0 0 0 0.145098 0 0 0 0.05 0"/>
            <feBlend mode="normal" in2="BackgroundImageFix" result="effect1_dropShadow_2664_299"/>
            <feColorMatrix in="SourceAlpha" type="matrix" values="0 0 0 0 0 0 0 0 0 0 0 0 0 0 0 0 0 0 127 0" result="hardAlpha"/>
            <feOffset dy="-17"/>
            <feGaussianBlur stdDeviation="19"/>
            <feColorMatrix type="matrix" values="0 0 0 0 0.294118 0 0 0 0 0.203922 0 0 0 0 0.145098 0 0 0 0.05 0"/>
            <feBlend mode="normal" in2="effect1_dropShadow_2664_299" result="effect2_dropShadow_2664_299"/>
            <feColorMatrix in="SourceAlpha" type="matrix" values="0 0 0 0 0 0 0 0 0 0 0 0 0 0 0 0 0 0 127 0" result="hardAlpha"/>
            <feOffset dy="-69"/>
            <feGaussianBlur stdDeviation="34.5"/>
            <feColorMatrix type="matrix" values="0 0 0 0 0.294118 0 0 0 0 0.203922 0 0 0 0 0.145098 0 0 0 0.04 0"/>
            <feBlend mode="normal" in2="effect2_dropShadow_2664_299" result="effect3_dropShadow_2664_299"/>
            <feColorMatrix in="SourceAlpha" type="matrix" values="0 0 0 0 0 0 0 0 0 0 0 0 0 0 0 0 0 0 127 0" result="hardAlpha"/>
            <feOffset dy="-154"/>
            <feGaussianBlur stdDeviation="46.5"/>
            <feColorMatrix type="matrix" values="0 0 0 0 0.294118 0 0 0 0 0.203922 0 0 0 0 0.145098 0 0 0 0.03 0"/>
            <feBlend mode="normal" in2="effect3_dropShadow_2664_299" result="effect4_dropShadow_2664_299"/>
            <feColorMatrix in="SourceAlpha" type="matrix" values="0 0 0 0 0 0 0 0 0 0 0 0 0 0 0 0 0 0 127 0" result="hardAlpha"/>
            <feOffset dy="-274"/>
            <feGaussianBlur stdDeviation="55"/>
            <feColorMatrix type="matrix" values="0 0 0 0 0.294118 0 0 0 0 0.203922 0 0 0 0 0.145098 0 0 0 0.01 0"/>
            <feBlend mode="normal" in2="effect4_dropShadow_2664_299" result="effect5_dropShadow_2664_299"/>
            <feBlend mode="normal" in="SourceGraphic" in2="effect5_dropShadow_2664_299" result="shape"/>
        </filter>
        <clipPath id="clip0_2664_299">
            <rect width="375" height="812" rx="40" fill="white"/>
        </clipPath>
    </defs>
</svg>
