<svg width="375" height="734" viewBox="0 0 375 734" fill="none" xmlns="http://www.w3.org/2000/svg">
    <path d="M-16.7751 55.5665C-22.7055 53.1283 -26.2316 45.9221 -24.6021 39.664C-22.9459 33.4059 -16.3209 28.9629 -9.98985 29.857C-6.73081 30.3175 -3.79233 31.9701 -0.933989 33.5955C2.69904 35.6545 6.33208 37.7405 9.96511 39.7994C0.909243 36.5756 -3.47176 25.2514 -1.49497 15.7153C-0.0524414 8.86124 4.56899 2.30516 11.2474 0.517139C16.6969 -0.945788 22.4937 0.896418 27.4891 3.52427C43.0097 11.5975 53.882 26.4705 63.1249 41.4791C60.2398 37.4425 63.4455 31.2386 68.1203 29.6131C72.7952 28.0147 77.9241 29.6944 82.3319 31.9159C92.1624 36.9007 100.337 46.4368 106 56L-16.7751 55.5665Z" fill="#F2F5EB"/>
    <path d="M383.452 80.4504C391.057 77.3591 395.58 68.2226 393.49 60.2883C391.366 52.3539 382.87 46.7209 374.75 47.8544C370.571 48.4383 366.802 50.5335 363.137 52.5944C358.478 55.2048 353.818 57.8496 349.159 60.46C360.773 56.3726 366.391 42.0152 363.856 29.9248C362.006 21.2348 356.079 12.9226 347.515 10.6557C340.526 8.80088 333.092 11.1365 326.686 14.4683C306.781 24.7039 292.838 43.5609 280.985 62.5896C284.685 57.4717 280.574 49.6061 274.579 47.5452C268.583 45.5187 262.006 47.6483 256.353 50.4648C243.746 56.7848 233.263 68.8752 226 81L383.452 80.4504Z" fill="#F2F5EB"/>
    <path d="M-33.0657 297.211C-40.2164 294.326 -44.5027 285.713 -42.5119 278.258C-40.5211 270.802 -32.4969 265.5 -24.8587 266.557C-20.9381 267.105 -17.3627 269.076 -13.9093 271.026C-9.5214 273.484 -5.1335 275.942 -0.745608 278.4C-11.6747 274.54 -16.9768 261.072 -14.5797 249.716C-12.853 241.55 -7.2462 233.749 0.818595 231.616C7.40044 229.869 14.3886 232.083 20.4626 235.191C39.2127 244.82 52.3561 262.514 63.5086 280.391C60.0146 275.576 63.8946 268.182 69.542 266.272C75.1691 264.363 81.3853 266.353 86.7076 269.015C98.5712 274.967 108.464 286.302 115.29 297.698L-33.0657 297.211Z" fill="#F2F5EB"/>
    <path d="M463.436 244.232C474.639 239.691 481.354 226.132 478.235 214.395C475.116 202.659 462.544 194.312 450.577 195.975C444.435 196.838 438.833 199.94 433.422 203.01C426.548 206.88 419.673 210.75 412.798 214.619C429.921 208.543 438.228 187.34 434.473 169.464C431.767 156.608 422.983 144.327 410.347 140.97C400.035 138.219 389.087 141.705 379.57 146.598C350.194 161.756 329.601 189.611 312.128 217.753C317.602 210.174 311.523 198.533 302.675 195.527C293.859 192.521 284.12 195.655 275.781 199.844C257.194 209.215 241.694 227.059 231 245L463.436 244.232Z" fill="#F2F5EB"/>
    <path d="M218.01 60.9583C220.438 69.5829 230.302 73.6696 238.112 69.282C248.126 63.6409 260.218 71.9647 258.59 83.3472C257.314 92.2225 264.649 99.9697 273.561 99.1172C285.002 98.0391 292.662 110.575 286.554 120.303C281.772 127.899 285.352 137.953 293.839 140.811C304.704 144.497 306.656 159.063 297.093 165.457C289.658 170.446 288.832 181.076 295.416 187.169C303.852 194.966 299.697 209.056 288.381 211.012C279.569 212.541 274.487 221.918 278.017 230.166C282.573 240.722 273.035 251.904 261.92 249.095C253.233 246.889 244.797 253.408 244.671 262.358C244.546 273.866 231.303 280.209 222.266 273.089C215.231 267.548 204.867 270.055 201.137 278.204C196.355 288.658 181.66 289.06 176.303 278.881C172.122 270.958 161.633 269.002 154.923 274.944C146.312 282.541 132.743 276.925 131.967 265.442C131.366 256.492 122.579 250.449 114.042 253.132C103.077 256.567 92.9635 245.886 96.944 235.106C100.048 226.681 94.4656 217.58 85.5534 216.553C74.1628 215.224 69.231 201.359 77.242 193.111C83.4755 186.692 82.0736 176.087 74.3881 171.524C64.5246 165.657 65.6511 150.99 76.3157 146.728C84.6271 143.394 87.6563 133.164 82.4742 125.844C75.8401 116.467 82.8246 103.53 94.2903 103.981C103.228 104.332 110.162 96.2089 108.385 87.4088C106.132 76.1266 117.773 67.176 128.062 72.2405C136.098 76.2018 145.711 71.5886 147.688 62.8386C150.217 51.6316 164.487 48.1717 171.822 56.9969C177.554 63.8916 188.219 63.5908 193.551 56.3952C200.436 47.219 214.881 49.9017 218.01 60.9583Z" fill="#4B3425"/>
    <path d="M359.203 331.531C349.815 298.637 320.901 275.17 286.829 272.763C208.847 267.222 75.6899 265.217 47.4262 295.453C57.0394 287.38 38.1886 305.331 47.4262 295.453C4.19199 331.731 -2.54224 419.733 -2.54224 419.733L98.4461 419.031L379.706 419.833C381.259 411.81 369.618 368.085 359.203 331.531Z" fill="#9BB068"/>
    <path d="M227.673 236.233L220.713 214.07C226.546 215.449 232.955 213.995 237.687 209.607C245.272 202.587 245.748 190.753 238.738 183.157C231.728 175.56 219.912 175.084 212.327 182.104C211.876 182.53 211.451 182.956 211.05 183.407L202.839 157.283C201.812 154.049 198.608 152.043 195.253 152.544C178.631 155.026 132.217 166.685 128.838 219.335C128.587 223.321 131.716 226.731 135.722 226.731L156.2 226.706L154.573 240.947C179.257 245.685 203.84 243.103 227.673 236.233Z" fill="#CFD9B5"/>
    <path d="M227.673 236.233C203.865 243.128 179.257 245.685 154.598 240.947L149.741 283.493C147.288 304.93 159.755 325.639 180.158 332.584C181.109 332.909 182.085 333.21 183.062 333.511C218.41 343.791 250.78 309.768 239.714 274.593L227.673 236.233Z" fill="#9BB068"/>
    <path d="M164.261 168.791C154.147 174.03 144.008 179.245 133.895 184.485C132.568 185.162 132.443 187.093 133.419 188.096C136.423 191.154 139.402 194.188 142.406 197.247C144.484 199.353 147.713 196.119 145.636 194.013C142.632 190.954 139.652 187.92 136.648 184.861C136.498 186.065 136.348 187.268 136.173 188.472C146.287 183.232 156.425 178.017 166.539 172.777C169.193 171.398 166.865 167.437 164.261 168.791Z" fill="#4B3425"/>
    <path d="M161.382 204.292C161.658 206.648 158.904 208.805 156.751 207.476C154.222 205.946 151.919 209.908 154.448 211.437C159.329 214.421 166.639 210.158 165.988 204.292C165.838 203.063 165.037 202.01 163.685 202.01C162.559 201.985 161.257 203.038 161.382 204.292Z" fill="#4B3425"/>
    <path d="M228.524 191.43C224.594 192.759 220.663 194.088 216.733 195.416C213.954 196.369 215.156 200.782 217.959 199.829C221.89 198.5 225.82 197.171 229.751 195.843C232.529 194.915 231.328 190.477 228.524 191.43Z" fill="#4B3425"/>
    <path d="M173.198 182.505C177.579 192.408 191.248 194.941 199.284 188.071C201.537 186.14 198.283 182.906 196.055 184.837C190.046 189.976 180.283 187.218 177.179 180.198C175.977 177.491 172.022 179.822 173.198 182.505Z" fill="#4B3425"/>
    <path d="M176.953 184.335C175.276 186.04 173.574 187.72 171.896 189.425C169.819 191.506 173.048 194.765 175.126 192.659C176.803 190.954 178.505 189.274 180.183 187.569C182.286 185.488 179.056 182.254 176.953 184.335Z" fill="#4B3425"/>
    <path d="M184.188 190.954C184.213 192.658 184.238 194.338 184.264 196.043C184.289 199.002 188.895 199.002 188.845 196.043C188.82 194.338 188.795 192.658 188.77 190.954C188.72 188.02 184.138 187.995 184.188 190.954Z" fill="#4B3425"/>
    <path d="M193.201 190.904C193.751 192.409 194.277 193.938 194.828 195.442C195.254 196.596 196.38 197.398 197.657 197.047C198.783 196.746 199.685 195.392 199.259 194.214C198.708 192.709 198.183 191.18 197.632 189.676C197.206 188.497 196.08 187.72 194.803 188.071C193.676 188.397 192.8 189.751 193.201 190.904Z" fill="#4B3425"/>
    <path d="M208.972 359.335C208.972 363.723 205.417 367.308 201.011 367.308C196.63 367.308 193.051 363.748 193.051 359.335C193.051 354.948 196.605 351.362 201.011 351.362C205.417 351.362 208.972 354.922 208.972 359.335Z" fill="#4B3425"/>
    <path d="M93.7646 334.163C68.2546 347.275 42.7447 360.388 17.2097 373.5C11.3517 376.509 5.49365 379.517 -0.364378 382.526C-9.97755 387.49 -17.7882 394.034 -22.019 404.313C-25.7742 413.414 -26.2248 425.975 -21.969 435.051C-17.5629 444.453 -10.278 453.077 -0.239206 456.738C9.29886 460.198 21.065 461.501 30.4528 456.688C46.4498 448.464 62.4717 440.241 78.4686 431.992C101.475 420.158 124.482 408.35 147.488 396.516C134.32 373.35 121.252 350.108 108.91 326.391C103.853 328.998 98.7965 331.58 93.7646 334.163Z" fill="#9BB068"/>
    <path d="M172.573 383.629C182.186 378.69 189.996 372.146 194.227 361.867C197.982 352.766 198.433 340.205 194.177 331.129C189.771 321.727 182.486 313.103 172.447 309.442C162.909 305.982 171.246 292.218 161.858 297.057C150.893 302.698 119.85 320.775 108.885 326.391C121.227 350.133 134.27 373.375 147.463 396.516C149.967 395.237 152.495 393.934 154.998 392.655C160.856 389.646 166.714 386.638 172.573 383.629Z" fill="#CFD9B5"/>
    <path d="M176.878 327.569C179.908 307.236 182.937 286.878 185.966 266.545C186.842 260.628 182.586 254.11 176.428 253.433C170.294 252.756 164.286 256.642 163.335 262.985C160.306 283.318 157.276 303.676 154.247 324.009C153.371 329.926 157.627 336.445 163.785 337.122C169.919 337.824 175.927 333.912 176.878 327.569Z" fill="#CFD9B5"/>
    <path d="M177.98 327.87C180.258 312.502 182.561 297.108 184.839 281.739C186.191 272.613 191.048 258.222 179.757 253.182C175.777 251.402 170.87 252.129 167.34 254.586C162.959 257.62 162.284 262.183 161.558 267.147C159.279 282.541 156.976 297.91 154.698 313.304C154.473 314.758 156.701 315.36 156.901 313.906C158.754 301.495 160.581 289.085 162.434 276.674C162.884 273.691 163.31 270.707 163.761 267.749C164.161 265.066 164.261 262.133 165.638 259.701C168.467 254.737 175.577 252.856 180.333 256.116C186.016 260.027 184.864 266.27 183.988 272.161C183.112 278.103 182.211 284.07 181.335 290.012C179.482 302.423 177.655 314.808 175.802 327.219C175.552 328.723 177.755 329.325 177.98 327.87Z" fill="#4B3425"/>
    <path d="M182.361 366.155C187.543 332.985 192.725 299.791 197.907 266.621C198.833 260.704 194.628 254.16 188.444 253.433C182.311 252.706 176.278 256.567 175.276 262.91C170.094 296.08 164.912 329.275 159.73 362.444C158.804 368.361 163.009 374.905 169.193 375.632C175.326 376.359 181.359 372.498 182.361 366.155Z" fill="#CFD9B5"/>
    <path d="M189.27 333.386C191.173 320.549 193.101 307.713 195.003 294.901C195.954 288.483 196.906 282.065 197.857 275.646C198.533 271.033 200.16 265.843 198.783 261.205C196.63 253.934 188.995 250.324 182.035 253.107C178.531 254.511 175.752 257.419 174.675 261.055C172.948 266.896 172.698 273.565 171.796 279.608C169.618 294.174 167.465 308.716 165.287 323.282C165.062 324.736 167.29 325.338 167.49 323.884C169.543 310.07 171.596 296.255 173.649 282.441C174.6 276.047 175.226 269.529 176.503 263.186C177.73 257.093 183.963 252.756 190.172 254.862C197.607 257.394 197.106 265.066 196.155 271.309C195.153 277.978 194.177 284.647 193.176 291.291C191.123 305.105 189.07 318.92 187.017 332.759C186.842 334.213 189.045 334.84 189.27 333.386Z" fill="#4B3425"/>
    <path d="M183.638 274.92C179.958 299.64 176.277 324.361 172.597 349.081C171.721 354.998 175.977 361.517 182.136 362.194C188.269 362.871 194.277 358.985 195.228 352.641C198.908 327.921 202.589 303.2 206.269 278.48C207.145 272.563 202.889 266.044 196.731 265.367C190.597 264.69 184.589 268.576 183.638 274.92Z" fill="#CFD9B5"/>
    <path d="M194.402 365.954C198.483 338.601 202.538 311.248 206.619 283.895C207.395 278.755 208.321 273.942 205.142 269.379C202.238 265.217 197.356 263.387 192.4 264.465C180.834 266.972 181.56 281.137 180.183 290.414C178.13 304.278 176.052 318.143 173.999 332.033C173.774 333.487 176.002 334.088 176.202 332.634C177.729 322.305 179.282 311.975 180.809 301.646C181.635 296.005 182.486 290.364 183.312 284.748C183.988 280.185 183.863 273.841 186.992 270.206C191.699 264.765 200.436 265.392 203.915 271.811C206.644 276.875 204.291 283.87 203.49 289.235C201.662 301.52 199.835 313.831 198.007 326.116C196.055 339.178 194.127 352.265 192.174 365.328C191.974 366.782 194.177 367.409 194.402 365.954Z" fill="#4B3425"/>
    <path d="M294.239 335.341C319.749 348.454 345.259 361.566 370.794 374.679C376.652 377.687 382.51 380.696 388.368 383.704C397.981 388.643 405.792 395.187 410.023 405.466C413.778 414.567 414.228 427.128 409.973 436.204C405.567 445.606 398.282 454.256 388.243 457.891C378.705 461.351 366.939 462.655 357.551 457.841C341.554 449.618 325.532 441.394 309.535 433.145C286.528 421.312 263.522 409.503 240.515 397.669C253.683 374.503 266.751 351.262 279.093 327.544C284.15 330.151 289.207 332.759 294.239 335.341Z" fill="#9BB068"/>
    <path d="M215.431 384.782C205.818 379.843 198.007 373.3 193.776 363.02C190.021 353.919 189.571 341.358 193.826 332.282C198.232 322.881 205.517 314.231 215.556 310.596C225.094 307.136 216.758 293.371 226.146 298.21C237.111 303.851 268.153 321.928 279.118 327.569C266.776 351.312 253.733 374.553 240.54 397.694C238.037 396.416 235.509 395.112 233.005 393.833C227.147 390.825 221.289 387.816 215.431 384.782Z" fill="#CFD9B5"/>
    <path d="M211.125 328.748C208.096 308.415 205.067 288.057 202.038 267.724C201.162 261.807 205.417 255.288 211.576 254.611C217.709 253.934 223.718 257.821 224.669 264.164C227.698 284.497 230.727 304.855 233.756 325.188C234.633 331.105 230.377 337.623 224.218 338.3C218.085 338.977 212.077 335.091 211.125 328.748Z" fill="#CFD9B5"/>
    <path d="M212.227 328.447C210.374 316.037 208.547 303.651 206.694 291.241C205.818 285.299 204.917 279.332 204.04 273.39C203.164 267.498 201.988 261.255 207.695 257.344C212.452 254.06 219.537 255.965 222.391 260.929C223.768 263.311 223.868 266.295 224.268 268.977C224.719 271.961 225.144 274.944 225.595 277.903C227.448 290.313 229.275 302.724 231.128 315.134C231.353 316.588 233.556 315.961 233.331 314.532C231.052 299.138 228.749 283.77 226.471 268.376C225.72 263.411 225.069 258.848 220.688 255.815C217.158 253.358 212.252 252.631 208.271 254.411C196.956 259.45 201.837 273.816 203.189 282.967C205.467 298.336 207.771 313.73 210.049 329.099C210.224 330.503 212.452 329.876 212.227 328.447Z" fill="#4B3425"/>
    <path d="M205.643 367.333C200.461 334.163 195.278 300.968 190.096 267.799C189.17 261.882 193.376 255.338 199.559 254.611C205.693 253.884 211.726 257.745 212.727 264.088C217.909 297.258 223.092 330.452 228.274 363.622C229.2 369.539 224.994 376.083 218.811 376.81C212.677 377.537 206.644 373.676 205.643 367.333Z" fill="#CFD9B5"/>
    <path d="M200.936 333.937C198.883 320.123 196.831 306.309 194.778 292.469C193.827 286.051 192.875 279.632 191.924 273.214C190.973 266.796 190.046 258.673 197.807 256.04C203.64 254.059 210.074 257.945 211.376 263.837C212.777 270.306 213.378 277.05 214.33 283.594C216.382 297.408 218.435 311.223 220.488 325.037C220.713 326.491 222.916 325.864 222.691 324.435C220.788 311.599 218.861 298.762 216.958 285.95C216.007 279.532 215.056 273.114 214.104 266.695C213.478 262.559 212.677 258.973 209.298 256.216C203.39 251.377 194.427 252.68 190.497 259.324C188.144 263.311 188.694 267.222 189.345 271.584C190.297 278.003 191.248 284.421 192.199 290.839C194.377 305.406 196.53 319.948 198.708 334.514C198.933 336.018 201.162 335.392 200.936 333.937Z" fill="#4B3425"/>
    <path d="M204.366 276.097C208.046 300.818 211.726 325.538 215.406 350.259C216.282 356.176 212.026 362.694 205.868 363.371C199.735 364.048 193.726 360.162 192.775 353.819C189.095 329.099 185.415 304.378 181.735 279.657C180.859 273.74 185.115 267.222 191.273 266.545C197.406 265.868 203.415 269.754 204.366 276.097Z" fill="#CFD9B5"/>
    <path d="M195.804 366.505C192.249 342.662 188.695 318.794 185.165 294.951C184.364 289.511 182.786 283.644 182.786 278.153C182.761 270.807 189.871 265.743 196.756 268.375C202.814 270.707 203.29 276.423 204.116 282.014C204.917 287.43 205.718 292.845 206.544 298.261C208.296 310.094 210.074 321.928 211.826 333.787C212.052 335.241 214.255 334.614 214.029 333.185C212.202 320.975 210.399 308.766 208.572 296.531C207.696 290.589 206.794 284.647 205.918 278.705C205.142 273.565 203.64 269.127 198.683 266.695C188.544 261.731 179.357 270.682 180.784 280.936C182.661 294.324 184.764 307.662 186.742 321.026C189.02 336.394 191.323 351.738 193.601 367.107C193.802 368.586 196.03 367.96 195.804 366.505Z" fill="#4B3425"/>
    <path d="M6.64528 380.245C36.0355 364.55 65.4508 348.855 94.8411 333.16C98.9968 330.929 103.152 328.723 107.308 326.491C108.61 325.789 107.458 323.809 106.157 324.511C76.7663 340.205 47.351 355.9 17.9608 371.595C13.8051 373.826 9.64939 376.033 5.4937 378.264C4.16688 378.966 5.3435 380.947 6.64528 380.245Z" fill="#4B3425"/>
    <path d="M366.288 371.093C340.978 357.931 315.694 344.743 290.384 331.58C286.854 329.75 283.324 327.895 279.769 326.065C278.468 325.388 277.291 327.368 278.618 328.045C303.927 341.208 329.212 354.396 354.522 367.558C358.052 369.388 361.581 371.244 365.136 373.074C366.438 373.751 367.59 371.77 366.288 371.093Z" fill="#4B3425"/>
    <path d="M23.8189 357.73C29.2263 359.21 34.6337 360.664 40.0661 362.143C41.4931 362.519 42.0939 360.313 40.6669 359.937C35.2595 358.457 29.8521 357.003 24.4197 355.524C22.9927 355.123 22.3919 357.329 23.8189 357.73Z" fill="#4B3425"/>
    <path d="M343.281 360.137C347.612 358.783 351.843 357.154 355.974 355.248C357.301 354.647 356.149 352.666 354.822 353.268C350.867 355.073 346.811 356.627 342.68 357.931C341.279 358.357 341.879 360.589 343.281 360.137Z" fill="#4B3425"/>
    <path d="M293.964 146.878C298.17 156.029 309.735 155.528 316.77 150.213C324.305 144.496 331.891 132.236 328.586 122.484C326.133 115.238 315.068 110.85 310.887 119.224C309.085 122.81 310.512 127.097 313.29 129.779C316.845 133.189 322.278 133.766 326.959 133.916C338.049 134.292 351.017 129.303 352.719 116.893C353.12 114.009 348.714 112.756 348.313 115.664C347.062 124.665 338.55 128.927 330.214 129.303C326.258 129.479 321.351 129.504 317.822 127.423C315.894 126.295 314.292 124.214 314.843 121.932C315.393 119.575 318.122 118.798 320.225 119.475C324.531 120.879 325.157 126.295 324.431 130.055C323.554 134.568 321.026 139.031 318.122 142.541C313.391 148.232 302.25 153.948 297.944 144.522C296.668 141.889 292.737 144.221 293.964 146.878Z" fill="#4B3425"/>
    <path d="M47.0507 85.7537C46.2245 96.5847 55.2369 105.961 66.1518 104.883C76.8165 103.805 84.0764 93.3003 81.3477 82.8956C80.3463 79.1098 77.1669 74.647 72.811 77.104C68.455 79.561 67.5287 86.1047 68.1296 90.5424C69.8069 102.827 81.2225 109.12 92.0373 112.33C94.8662 113.182 96.0678 108.744 93.264 107.917C86.5047 105.911 79.2698 102.953 75.2643 96.8103C73.2616 93.7265 72.0599 89.7903 72.6608 86.0797C72.7859 85.3526 72.9612 84.6004 73.2366 83.9235C73.537 83.0961 74.8137 81.1155 76.0154 81.6921C77.1169 82.2186 77.3422 86.4808 77.3422 87.2831C77.3922 94.7043 71.384 100.596 63.9739 100.396C56.2383 100.195 51.0812 93.1749 51.632 85.7537C51.8573 82.8204 47.276 82.8204 47.0507 85.7537Z" fill="#4B3425"/>
    <path d="M51.0311 260.302C56.8641 265.818 66.1268 266.846 72.9612 262.484C76.6913 260.102 78.9444 256.341 80.4965 252.305C82.0486 248.168 83.9512 242.602 81.4728 238.415C79.7455 235.481 75.6899 233.576 72.5356 235.381C69.3312 237.211 68.8806 241.348 69.8819 244.557C72.3353 252.505 81.5479 256.466 89.2835 256.065C100.274 255.489 108.585 247.165 114.518 238.641C116.195 236.209 112.24 233.927 110.563 236.334C106.232 242.552 100.624 248.669 93.1138 250.825C87.0054 252.58 78.9944 251.051 75.3394 245.41C74.6635 244.357 73.587 242.451 73.9625 241.123C75.064 237.186 77.3672 240.496 77.7928 241.875C78.1933 243.178 77.9931 244.382 77.7177 245.686C76.9666 249.446 75.4646 253.784 72.811 256.642C67.9793 261.832 59.2924 261.807 54.2605 257.018C52.1326 255.012 48.8782 258.272 51.0311 260.302Z" fill="#4B3425"/>
    <path d="M242.168 80.589C238.012 73.9701 238.588 64.7688 244.571 59.3784C249.728 54.7402 262.07 52.584 266.226 59.8297C267.628 62.2867 266.601 65.6212 263.247 64.8942C260.643 64.3175 259.466 61.6349 259.266 59.2029C258.941 55.392 260.393 51.4307 262.32 48.2215C266.226 41.7531 273.11 37.3154 280.62 36.5883C283.524 36.3125 283.549 31.7244 280.62 32.0002C271.433 32.8527 263.147 37.9422 258.365 45.8899C254.359 52.5339 251.631 65.5962 261.169 69.031C264.523 70.2344 268.554 69.4572 270.507 66.2731C272.96 62.3118 271.107 57.473 267.803 54.6649C260.768 48.7481 249.578 49.7008 242.593 55.0912C234.157 61.6098 232.655 74.0453 238.212 82.8956C239.79 85.4027 243.745 83.0961 242.168 80.589Z" fill="#4B3425"/>
    <g filter="url(#filter0_ddddd_2337_15542)">
        <rect x="-292" y="394" width="960" height="960" rx="480" fill="white"/>
    </g>
    <rect x="155.5" y="448" width="66" height="30" rx="15" fill="#E5EAD7"/>
    <path d="M171.602 467.156C171.13 467.156 170.678 467.082 170.246 466.934C169.818 466.786 169.442 466.572 169.118 466.292C168.798 466.012 168.568 465.68 168.428 465.296L169.982 464.72C170.03 464.856 170.13 464.984 170.282 465.104C170.434 465.22 170.624 465.316 170.852 465.392C171.08 465.464 171.33 465.5 171.602 465.5C171.862 465.5 172.106 465.462 172.334 465.386C172.566 465.306 172.752 465.196 172.892 465.056C173.036 464.916 173.108 464.752 173.108 464.564C173.108 464.376 173.034 464.22 172.886 464.096C172.738 463.972 172.548 463.874 172.316 463.802C172.084 463.726 171.846 463.668 171.602 463.628C170.998 463.54 170.456 463.398 169.976 463.202C169.5 463.002 169.124 462.728 168.848 462.38C168.572 462.028 168.434 461.582 168.434 461.042C168.434 460.522 168.58 460.068 168.872 459.68C169.168 459.292 169.556 458.99 170.036 458.774C170.52 458.558 171.042 458.45 171.602 458.45C172.066 458.45 172.514 458.524 172.946 458.672C173.378 458.82 173.754 459.034 174.074 459.314C174.398 459.594 174.63 459.93 174.77 460.322L173.216 460.886C173.168 460.75 173.068 460.624 172.916 460.508C172.764 460.392 172.574 460.298 172.346 460.226C172.118 460.154 171.87 460.118 171.602 460.118C171.346 460.114 171.102 460.152 170.87 460.232C170.642 460.312 170.454 460.422 170.306 460.562C170.162 460.702 170.09 460.862 170.09 461.042C170.09 461.278 170.158 461.456 170.294 461.576C170.434 461.696 170.618 461.782 170.846 461.834C171.074 461.886 171.326 461.932 171.602 461.972C172.17 462.056 172.694 462.206 173.174 462.422C173.654 462.634 174.038 462.918 174.326 463.274C174.618 463.626 174.764 464.056 174.764 464.564C174.764 465.084 174.618 465.538 174.326 465.926C174.034 466.314 173.648 466.616 173.168 466.832C172.688 467.048 172.166 467.156 171.602 467.156ZM183.409 458.6V460.256H180.937V467H179.281V460.256H176.809V458.6H183.409ZM185.807 467V458.6H191.123V460.256H187.463V461.672H190.319V463.328H187.463V465.344H191.123V467H185.807ZM193.652 467V458.6H196.748C197.208 458.6 197.622 458.716 197.99 458.948C198.362 459.18 198.658 459.49 198.878 459.878C199.098 460.262 199.208 460.686 199.208 461.15C199.208 461.622 199.096 462.052 198.872 462.44C198.648 462.824 198.348 463.13 197.972 463.358C197.6 463.586 197.192 463.7 196.748 463.7H195.308V467H193.652ZM195.308 462.044H196.562C196.746 462.044 196.912 462 197.06 461.912C197.208 461.82 197.326 461.698 197.414 461.546C197.506 461.39 197.552 461.218 197.552 461.03C197.552 460.846 197.506 460.678 197.414 460.526C197.326 460.37 197.208 460.246 197.06 460.154C196.912 460.062 196.746 460.016 196.562 460.016H195.308V462.044ZM206.561 467V460.256H205.457L205.901 458.6H208.217V467H206.561Z" fill="#7D944D"/>
    <path d="M33.9871 532V511H41.7271C42.8771 511 43.9121 511.29 44.8321 511.87C45.7621 512.45 46.5021 513.225 47.0521 514.195C47.6021 515.155 47.8771 516.215 47.8771 517.375C47.8771 518.555 47.5971 519.63 47.0371 520.6C46.4771 521.56 45.7271 522.325 44.7871 522.895C43.8571 523.465 42.8371 523.75 41.7271 523.75H38.1271V532H33.9871ZM38.1271 519.61H41.2621C41.7221 519.61 42.1371 519.5 42.5071 519.28C42.8771 519.05 43.1721 518.745 43.3921 518.365C43.6221 517.975 43.7371 517.545 43.7371 517.075C43.7371 516.615 43.6221 516.195 43.3921 515.815C43.1721 515.425 42.8771 515.115 42.5071 514.885C42.1371 514.655 41.7221 514.54 41.2621 514.54H38.1271V519.61ZM55.573 532.39C54.193 532.39 52.933 532.035 51.793 531.325C50.663 530.615 49.758 529.66 49.078 528.46C48.408 527.26 48.073 525.935 48.073 524.485C48.073 523.395 48.268 522.375 48.658 521.425C49.048 520.465 49.583 519.625 50.263 518.905C50.953 518.175 51.753 517.605 52.663 517.195C53.573 516.785 54.543 516.58 55.573 516.58C56.763 516.58 57.848 516.835 58.828 517.345C59.818 517.855 60.653 518.55 61.333 519.43C62.023 520.31 62.513 521.305 62.803 522.415C63.103 523.525 63.153 524.68 62.953 525.88H52.543C52.673 526.32 52.873 526.72 53.143 527.08C53.423 527.43 53.763 527.71 54.163 527.92C54.573 528.13 55.043 528.24 55.573 528.25C56.093 528.26 56.573 528.14 57.013 527.89C57.453 527.64 57.828 527.305 58.138 526.885L62.368 527.86C61.758 529.19 60.848 530.28 59.638 531.13C58.428 531.97 57.073 532.39 55.573 532.39ZM52.393 522.82H58.768C58.638 522.32 58.418 521.87 58.108 521.47C57.798 521.07 57.423 520.755 56.983 520.525C56.553 520.295 56.083 520.18 55.573 520.18C55.073 520.18 54.603 520.295 54.163 520.525C53.733 520.755 53.363 521.07 53.053 521.47C52.753 521.86 52.533 522.31 52.393 522.82ZM64.765 532L64.75 517H68.89L68.905 518.11C69.405 517.63 69.99 517.255 70.66 516.985C71.34 516.715 72.055 516.58 72.805 516.58C73.355 516.58 73.905 516.66 74.455 516.82L72.82 521.005C72.46 520.855 72.095 520.78 71.725 520.78C71.205 520.78 70.73 520.905 70.3 521.155C69.87 521.405 69.53 521.745 69.28 522.175C69.03 522.595 68.905 523.07 68.905 523.6V532H64.765ZM79.765 532.27C78.995 532.21 78.255 532.05 77.545 531.79C76.835 531.52 76.2 531.16 75.64 530.71C75.09 530.25 74.66 529.7 74.35 529.06L77.83 527.56C77.94 527.72 78.105 527.895 78.325 528.085C78.545 528.265 78.81 528.425 79.12 528.565C79.44 528.705 79.81 528.775 80.23 528.775C80.54 528.775 80.84 528.74 81.13 528.67C81.42 528.59 81.655 528.465 81.835 528.295C82.015 528.115 82.105 527.88 82.105 527.59C82.105 527.27 81.99 527.025 81.76 526.855C81.53 526.685 81.25 526.56 80.92 526.48C80.6 526.39 80.29 526.315 79.99 526.255C79.07 526.095 78.2 525.81 77.38 525.4C76.57 524.98 75.91 524.44 75.4 523.78C74.89 523.12 74.635 522.33 74.635 521.41C74.635 520.4 74.9 519.53 75.43 518.8C75.96 518.06 76.65 517.49 77.5 517.09C78.35 516.69 79.27 516.49 80.26 516.49C81.43 516.49 82.515 516.735 83.515 517.225C84.515 517.715 85.32 518.405 85.93 519.295L82.66 521.23C82.53 521.04 82.36 520.86 82.15 520.69C81.95 520.51 81.715 520.36 81.445 520.24C81.185 520.11 80.905 520.035 80.605 520.015C80.215 519.985 79.86 520.01 79.54 520.09C79.22 520.16 78.965 520.295 78.775 520.495C78.595 520.695 78.505 520.965 78.505 521.305C78.505 521.635 78.65 521.88 78.94 522.04C79.23 522.19 79.565 522.305 79.945 522.385C80.325 522.455 80.66 522.54 80.95 522.64C81.82 522.92 82.635 523.28 83.395 523.72C84.165 524.15 84.785 524.68 85.255 525.31C85.725 525.94 85.945 526.68 85.915 527.53C85.915 528.52 85.62 529.39 85.03 530.14C84.44 530.88 83.675 531.445 82.735 531.835C81.805 532.215 80.815 532.36 79.765 532.27ZM94.1734 532.39C92.7934 532.39 91.5334 532.035 90.3934 531.325C89.2634 530.615 88.3584 529.665 87.6784 528.475C87.0084 527.275 86.6734 525.95 86.6734 524.5C86.6734 523.4 86.8684 522.375 87.2584 521.425C87.6484 520.465 88.1834 519.625 88.8634 518.905C89.5534 518.175 90.3534 517.605 91.2634 517.195C92.1734 516.785 93.1434 516.58 94.1734 516.58C95.5534 516.58 96.8084 516.935 97.9384 517.645C99.0784 518.355 99.9834 519.31 100.653 520.51C101.333 521.71 101.673 523.04 101.673 524.5C101.673 525.59 101.478 526.61 101.088 527.56C100.698 528.51 100.158 529.35 99.4684 530.08C98.7884 530.8 97.9934 531.365 97.0834 531.775C96.1834 532.185 95.2134 532.39 94.1734 532.39ZM94.1734 528.25C94.8134 528.25 95.3884 528.08 95.8984 527.74C96.4084 527.39 96.8084 526.93 97.0984 526.36C97.3884 525.79 97.5334 525.17 97.5334 524.5C97.5334 523.81 97.3784 523.18 97.0684 522.61C96.7684 522.03 96.3634 521.57 95.8534 521.23C95.3434 520.89 94.7834 520.72 94.1734 520.72C93.5434 520.72 92.9734 520.895 92.4634 521.245C91.9534 521.595 91.5484 522.055 91.2484 522.625C90.9584 523.195 90.8134 523.82 90.8134 524.5C90.8134 525.21 90.9634 525.85 91.2634 526.42C91.5734 526.98 91.9834 527.425 92.4934 527.755C93.0034 528.085 93.5634 528.25 94.1734 528.25ZM117.285 522.46V532H113.145V523.6C113.145 523.07 113.015 522.595 112.755 522.175C112.505 521.745 112.165 521.405 111.735 521.155C111.315 520.905 110.845 520.78 110.325 520.78C109.805 520.78 109.33 520.905 108.9 521.155C108.47 521.405 108.13 521.745 107.88 522.175C107.63 522.595 107.505 523.07 107.505 523.6V532H103.365L103.35 517H107.49L107.505 518.11C108.005 517.63 108.59 517.255 109.26 516.985C109.94 516.715 110.655 516.58 111.405 516.58C112.495 516.58 113.48 516.845 114.36 517.375C115.25 517.905 115.96 518.615 116.49 519.505C117.02 520.385 117.285 521.37 117.285 522.46ZM130.401 517H134.541V532H130.386L130.191 530.44C129.801 531.02 129.301 531.49 128.691 531.85C128.081 532.21 127.366 532.39 126.546 532.39C125.426 532.39 124.381 532.18 123.411 531.76C122.441 531.34 121.586 530.76 120.846 530.02C120.106 529.28 119.526 528.425 119.106 527.455C118.696 526.475 118.491 525.425 118.491 524.305C118.491 523.235 118.686 522.235 119.076 521.305C119.466 520.375 120.016 519.555 120.726 518.845C121.436 518.135 122.251 517.58 123.171 517.18C124.101 516.78 125.101 516.58 126.171 516.58C127.091 516.58 127.916 516.775 128.646 517.165C129.386 517.555 130.031 518.05 130.581 518.65L130.401 517ZM126.441 528.415C127.121 528.415 127.736 528.24 128.286 527.89C128.836 527.54 129.271 527.07 129.591 526.48C129.911 525.88 130.071 525.22 130.071 524.5C130.071 523.77 129.911 523.11 129.591 522.52C129.271 521.93 128.836 521.46 128.286 521.11C127.736 520.76 127.121 520.585 126.441 520.585C125.751 520.585 125.126 520.76 124.566 521.11C124.006 521.46 123.561 521.935 123.231 522.535C122.901 523.125 122.736 523.78 122.736 524.5C122.736 525.22 122.901 525.88 123.231 526.48C123.571 527.07 124.021 527.54 124.581 527.89C125.141 528.24 125.761 528.415 126.441 528.415ZM136.984 532V509.5H141.124V532H136.984ZM144.119 517H148.259V532H144.119V517ZM146.219 515.275C145.619 515.275 145.114 515.075 144.704 514.675C144.294 514.275 144.089 513.78 144.089 513.19C144.089 512.6 144.294 512.105 144.704 511.705C145.114 511.305 145.614 511.105 146.204 511.105C146.794 511.105 147.289 511.305 147.689 511.705C148.099 512.105 148.304 512.6 148.304 513.19C148.304 513.78 148.104 514.275 147.704 514.675C147.314 515.075 146.819 515.275 146.219 515.275ZM163.463 521.14L156.638 527.86H163.463V532H150.653V527.86L157.478 521.14H150.653V517H163.463V521.14ZM172.048 532.39C170.668 532.39 169.408 532.035 168.268 531.325C167.138 530.615 166.233 529.66 165.553 528.46C164.883 527.26 164.548 525.935 164.548 524.485C164.548 523.395 164.743 522.375 165.133 521.425C165.523 520.465 166.058 519.625 166.738 518.905C167.428 518.175 168.228 517.605 169.138 517.195C170.048 516.785 171.018 516.58 172.048 516.58C173.238 516.58 174.323 516.835 175.303 517.345C176.293 517.855 177.128 518.55 177.808 519.43C178.498 520.31 178.988 521.305 179.278 522.415C179.578 523.525 179.628 524.68 179.428 525.88H169.018C169.148 526.32 169.348 526.72 169.618 527.08C169.898 527.43 170.238 527.71 170.638 527.92C171.048 528.13 171.518 528.24 172.048 528.25C172.568 528.26 173.048 528.14 173.488 527.89C173.928 527.64 174.303 527.305 174.613 526.885L178.843 527.86C178.233 529.19 177.323 530.28 176.113 531.13C174.903 531.97 173.548 532.39 172.048 532.39ZM168.868 522.82H175.243C175.113 522.32 174.893 521.87 174.583 521.47C174.273 521.07 173.898 520.755 173.458 520.525C173.028 520.295 172.558 520.18 172.048 520.18C171.548 520.18 171.078 520.295 170.638 520.525C170.208 520.755 169.838 521.07 169.528 521.47C169.228 521.86 169.008 522.31 168.868 522.82ZM201.112 511H206.002L198.742 522.535V532H194.602V522.535L187.342 511H192.232L196.672 518.035L201.112 511ZM211.264 532.39C209.884 532.39 208.624 532.035 207.484 531.325C206.354 530.615 205.449 529.665 204.769 528.475C204.099 527.275 203.764 525.95 203.764 524.5C203.764 523.4 203.959 522.375 204.349 521.425C204.739 520.465 205.274 519.625 205.954 518.905C206.644 518.175 207.444 517.605 208.354 517.195C209.264 516.785 210.234 516.58 211.264 516.58C212.644 516.58 213.899 516.935 215.029 517.645C216.169 518.355 217.074 519.31 217.744 520.51C218.424 521.71 218.764 523.04 218.764 524.5C218.764 525.59 218.569 526.61 218.179 527.56C217.789 528.51 217.249 529.35 216.559 530.08C215.879 530.8 215.084 531.365 214.174 531.775C213.274 532.185 212.304 532.39 211.264 532.39ZM211.264 528.25C211.904 528.25 212.479 528.08 212.989 527.74C213.499 527.39 213.899 526.93 214.189 526.36C214.479 525.79 214.624 525.17 214.624 524.5C214.624 523.81 214.469 523.18 214.159 522.61C213.859 522.03 213.454 521.57 212.944 521.23C212.434 520.89 211.874 520.72 211.264 520.72C210.634 520.72 210.064 520.895 209.554 521.245C209.044 521.595 208.639 522.055 208.339 522.625C208.049 523.195 207.904 523.82 207.904 524.5C207.904 525.21 208.054 525.85 208.354 526.42C208.664 526.98 209.074 527.425 209.584 527.755C210.094 528.085 210.654 528.25 211.264 528.25ZM219.46 526.51V517H223.6V525.37C223.6 525.9 223.725 526.38 223.975 526.81C224.235 527.23 224.58 527.565 225.01 527.815C225.44 528.065 225.91 528.19 226.42 528.19C226.94 528.19 227.415 528.065 227.845 527.815C228.275 527.565 228.615 527.23 228.865 526.81C229.115 526.38 229.24 525.9 229.24 525.37V517H233.38L233.395 532H229.255L229.24 530.86C228.74 531.34 228.15 531.715 227.47 531.985C226.8 532.255 226.09 532.39 225.34 532.39C224.26 532.39 223.275 532.125 222.385 531.595C221.495 531.065 220.785 530.36 220.255 529.48C219.725 528.59 219.46 527.6 219.46 526.51ZM235.822 532L235.807 517H239.947L239.962 518.11C240.462 517.63 241.047 517.255 241.717 516.985C242.397 516.715 243.112 516.58 243.862 516.58C244.412 516.58 244.962 516.66 245.512 516.82L243.877 521.005C243.517 520.855 243.152 520.78 242.782 520.78C242.262 520.78 241.787 520.905 241.357 521.155C240.927 521.405 240.587 521.745 240.337 522.175C240.087 522.595 239.962 523.07 239.962 523.6V532H235.822ZM253.621 532L257.701 511H261.196L266.071 523.855L270.961 511H274.456L278.536 532H274.306L271.981 519.955L267.496 531.79H264.646L260.176 519.955L257.836 532H253.621ZM286.428 532.39C285.048 532.39 283.788 532.035 282.648 531.325C281.518 530.615 280.613 529.66 279.933 528.46C279.263 527.26 278.928 525.935 278.928 524.485C278.928 523.395 279.123 522.375 279.513 521.425C279.903 520.465 280.438 519.625 281.118 518.905C281.808 518.175 282.608 517.605 283.518 517.195C284.428 516.785 285.398 516.58 286.428 516.58C287.618 516.58 288.703 516.835 289.683 517.345C290.673 517.855 291.508 518.55 292.188 519.43C292.878 520.31 293.368 521.305 293.658 522.415C293.958 523.525 294.008 524.68 293.808 525.88H283.398C283.528 526.32 283.728 526.72 283.998 527.08C284.278 527.43 284.618 527.71 285.018 527.92C285.428 528.13 285.898 528.24 286.428 528.25C286.948 528.26 287.428 528.14 287.868 527.89C288.308 527.64 288.683 527.305 288.993 526.885L293.223 527.86C292.613 529.19 291.703 530.28 290.493 531.13C289.283 531.97 287.928 532.39 286.428 532.39ZM283.248 522.82H289.623C289.493 522.32 289.273 521.87 288.963 521.47C288.653 521.07 288.278 520.755 287.838 520.525C287.408 520.295 286.938 520.18 286.428 520.18C285.928 520.18 285.458 520.295 285.018 520.525C284.588 520.755 284.218 521.07 283.908 521.47C283.608 521.86 283.388 522.31 283.248 522.82ZM309.54 522.46V532H305.4V523.6C305.4 523.07 305.27 522.595 305.01 522.175C304.76 521.745 304.42 521.405 303.99 521.155C303.57 520.905 303.1 520.78 302.58 520.78C302.06 520.78 301.585 520.905 301.155 521.155C300.725 521.405 300.385 521.745 300.135 522.175C299.885 522.595 299.76 523.07 299.76 523.6V532H295.62L295.605 517H299.745L299.76 518.11C300.26 517.63 300.845 517.255 301.515 516.985C302.195 516.715 302.91 516.58 303.66 516.58C304.75 516.58 305.735 516.845 306.615 517.375C307.505 517.905 308.215 518.615 308.745 519.505C309.275 520.385 309.54 521.37 309.54 522.46ZM320.098 521.14H317.398V532H313.258V521.14H311.188V517H313.258V512.29H317.398V517H320.098V521.14ZM332.895 517H337.035V532H332.88L332.685 530.44C332.295 531.02 331.795 531.49 331.185 531.85C330.575 532.21 329.86 532.39 329.04 532.39C327.92 532.39 326.875 532.18 325.905 531.76C324.935 531.34 324.08 530.76 323.34 530.02C322.6 529.28 322.02 528.425 321.6 527.455C321.19 526.475 320.985 525.425 320.985 524.305C320.985 523.235 321.18 522.235 321.57 521.305C321.96 520.375 322.51 519.555 323.22 518.845C323.93 518.135 324.745 517.58 325.665 517.18C326.595 516.78 327.595 516.58 328.665 516.58C329.585 516.58 330.41 516.775 331.14 517.165C331.88 517.555 332.525 518.05 333.075 518.65L332.895 517ZM328.935 528.415C329.615 528.415 330.23 528.24 330.78 527.89C331.33 527.54 331.765 527.07 332.085 526.48C332.405 525.88 332.565 525.22 332.565 524.5C332.565 523.77 332.405 523.11 332.085 522.52C331.765 521.93 331.33 521.46 330.78 521.11C330.23 520.76 329.615 520.585 328.935 520.585C328.245 520.585 327.62 520.76 327.06 521.11C326.5 521.46 326.055 521.935 325.725 522.535C325.395 523.125 325.23 523.78 325.23 524.5C325.23 525.22 325.395 525.88 325.725 526.48C326.065 527.07 326.515 527.54 327.075 527.89C327.635 528.24 328.255 528.415 328.935 528.415ZM339.478 532V509.5H343.618V532H339.478ZM232.173 570L226.803 549H231.078L234.498 562.425L237.918 549H241.713L245.133 562.425L248.553 549H252.828L247.488 570H242.808L239.823 558.33L236.853 570H232.173ZM254.104 555H258.244V570H254.104V555ZM256.204 553.275C255.604 553.275 255.099 553.075 254.689 552.675C254.279 552.275 254.074 551.78 254.074 551.19C254.074 550.6 254.279 550.105 254.689 549.705C255.099 549.305 255.599 549.105 256.189 549.105C256.779 549.105 257.274 549.305 257.674 549.705C258.084 550.105 258.289 550.6 258.289 551.19C258.289 551.78 258.089 552.275 257.689 552.675C257.299 553.075 256.804 553.275 256.204 553.275ZM269.398 559.14H266.698V570H262.558V559.14H260.488V555H262.558V550.29H266.698V555H269.398V559.14ZM285.442 560.46V570H281.302V561.6C281.302 561.07 281.172 560.595 280.912 560.175C280.662 559.745 280.322 559.405 279.892 559.155C279.472 558.905 279.002 558.78 278.482 558.78C277.962 558.78 277.487 558.905 277.057 559.155C276.627 559.405 276.287 559.745 276.037 560.175C275.787 560.595 275.662 561.07 275.662 561.6V570H271.522L271.507 547.5H275.647L275.662 556.11C276.162 555.63 276.747 555.255 277.417 554.985C278.097 554.715 278.812 554.58 279.562 554.58C280.652 554.58 281.637 554.845 282.517 555.375C283.407 555.905 284.117 556.615 284.647 557.505C285.177 558.385 285.442 559.37 285.442 560.46ZM301.468 549H306.178L313.798 570H309.403L308.143 566.52H299.503L298.243 570H293.848L301.468 549ZM301.018 562.38H306.628L303.808 554.685L301.018 562.38ZM316.095 570V549H320.235V570H316.095Z" fill="#4B3425"/>
    <path d="M68.4325 549H72.5725V570H68.4325V560.82H60.4525V570H56.3125V549H60.4525V556.68H68.4325V549ZM81.8828 570.39C80.5028 570.39 79.2428 570.035 78.1028 569.325C76.9728 568.615 76.0678 567.66 75.3878 566.46C74.7178 565.26 74.3828 563.935 74.3828 562.485C74.3828 561.395 74.5778 560.375 74.9678 559.425C75.3578 558.465 75.8928 557.625 76.5728 556.905C77.2628 556.175 78.0628 555.605 78.9728 555.195C79.8828 554.785 80.8528 554.58 81.8828 554.58C83.0728 554.58 84.1578 554.835 85.1378 555.345C86.1278 555.855 86.9628 556.55 87.6428 557.43C88.3328 558.31 88.8228 559.305 89.1128 560.415C89.4128 561.525 89.4628 562.68 89.2628 563.88H78.8528C78.9828 564.32 79.1828 564.72 79.4528 565.08C79.7328 565.43 80.0728 565.71 80.4728 565.92C80.8828 566.13 81.3528 566.24 81.8828 566.25C82.4028 566.26 82.8828 566.14 83.3228 565.89C83.7628 565.64 84.1378 565.305 84.4478 564.885L88.6778 565.86C88.0678 567.19 87.1578 568.28 85.9478 569.13C84.7378 569.97 83.3828 570.39 81.8828 570.39ZM78.7028 560.82H85.0778C84.9478 560.32 84.7278 559.87 84.4178 559.47C84.1078 559.07 83.7328 558.755 83.2928 558.525C82.8628 558.295 82.3928 558.18 81.8828 558.18C81.3828 558.18 80.9128 558.295 80.4728 558.525C80.0428 558.755 79.6728 559.07 79.3628 559.47C79.0628 559.86 78.8428 560.31 78.7028 560.82ZM102.187 555H106.327V570H102.172L101.977 568.44C101.587 569.02 101.087 569.49 100.477 569.85C99.867 570.21 99.152 570.39 98.332 570.39C97.212 570.39 96.167 570.18 95.197 569.76C94.227 569.34 93.372 568.76 92.632 568.02C91.892 567.28 91.312 566.425 90.892 565.455C90.482 564.475 90.277 563.425 90.277 562.305C90.277 561.235 90.472 560.235 90.862 559.305C91.252 558.375 91.802 557.555 92.512 556.845C93.222 556.135 94.037 555.58 94.957 555.18C95.887 554.78 96.887 554.58 97.957 554.58C98.877 554.58 99.702 554.775 100.432 555.165C101.172 555.555 101.817 556.05 102.367 556.65L102.187 555ZM98.227 566.415C98.907 566.415 99.522 566.24 100.072 565.89C100.622 565.54 101.057 565.07 101.377 564.48C101.697 563.88 101.857 563.22 101.857 562.5C101.857 561.77 101.697 561.11 101.377 560.52C101.057 559.93 100.622 559.46 100.072 559.11C99.522 558.76 98.907 558.585 98.227 558.585C97.537 558.585 96.912 558.76 96.352 559.11C95.792 559.46 95.347 559.935 95.017 560.535C94.687 561.125 94.522 561.78 94.522 562.5C94.522 563.22 94.687 563.88 95.017 564.48C95.357 565.07 95.807 565.54 96.367 565.89C96.927 566.24 97.547 566.415 98.227 566.415ZM108.77 570V547.5H112.91V570H108.77ZM124.065 559.14H121.365V570H117.225V559.14H115.155V555H117.225V550.29H121.365V555H124.065V559.14ZM140.109 560.46V570H135.969V561.6C135.969 561.07 135.839 560.595 135.579 560.175C135.329 559.745 134.989 559.405 134.559 559.155C134.139 558.905 133.669 558.78 133.149 558.78C132.629 558.78 132.154 558.905 131.724 559.155C131.294 559.405 130.954 559.745 130.704 560.175C130.454 560.595 130.329 561.07 130.329 561.6V570H126.189L126.174 547.5H130.314L130.329 556.11C130.829 555.63 131.414 555.255 132.084 554.985C132.764 554.715 133.479 554.58 134.229 554.58C135.319 554.58 136.304 554.845 137.184 555.375C138.074 555.905 138.784 556.615 139.314 557.505C139.844 558.385 140.109 559.37 140.109 560.46ZM156.749 570.39C155.569 570.39 154.439 570.205 153.359 569.835C152.289 569.465 151.349 568.93 150.539 568.23C149.739 567.53 149.164 566.7 148.814 565.74L152.699 564.3C152.819 564.64 153.069 564.96 153.449 565.26C153.829 565.55 154.304 565.79 154.874 565.98C155.444 566.16 156.069 566.25 156.749 566.25C157.399 566.25 158.009 566.155 158.579 565.965C159.159 565.765 159.624 565.49 159.974 565.14C160.334 564.79 160.514 564.38 160.514 563.91C160.514 563.44 160.329 563.05 159.959 562.74C159.589 562.43 159.114 562.185 158.534 562.005C157.954 561.815 157.359 561.67 156.749 561.57C155.239 561.35 153.884 560.995 152.684 560.505C151.494 560.005 150.554 559.32 149.864 558.45C149.174 557.57 148.829 556.455 148.829 555.105C148.829 553.805 149.194 552.67 149.924 551.7C150.664 550.73 151.634 549.975 152.834 549.435C154.044 548.895 155.349 548.625 156.749 548.625C157.909 548.625 159.029 548.81 160.109 549.18C161.189 549.55 162.129 550.085 162.929 550.785C163.739 551.485 164.319 552.325 164.669 553.305L160.784 554.715C160.664 554.375 160.414 554.06 160.034 553.77C159.654 553.48 159.179 553.245 158.609 553.065C158.039 552.885 157.419 552.795 156.749 552.795C156.109 552.785 155.499 552.88 154.919 553.08C154.349 553.28 153.879 553.555 153.509 553.905C153.149 554.255 152.969 554.655 152.969 555.105C152.969 555.695 153.139 556.14 153.479 556.44C153.829 556.74 154.289 556.955 154.859 557.085C155.429 557.215 156.059 557.33 156.749 557.43C158.169 557.64 159.479 558.015 160.679 558.555C161.879 559.085 162.839 559.795 163.559 560.685C164.289 561.565 164.654 562.64 164.654 563.91C164.654 565.21 164.289 566.345 163.559 567.315C162.829 568.285 161.864 569.04 160.664 569.58C159.464 570.12 158.159 570.39 156.749 570.39ZM175.131 559.14H172.431V570H168.291V559.14H166.221V555H168.291V550.29H172.431V555H175.131V559.14ZM187.928 555H192.068V570H187.913L187.718 568.44C187.328 569.02 186.828 569.49 186.218 569.85C185.608 570.21 184.893 570.39 184.073 570.39C182.953 570.39 181.908 570.18 180.938 569.76C179.968 569.34 179.113 568.76 178.373 568.02C177.633 567.28 177.053 566.425 176.633 565.455C176.223 564.475 176.018 563.425 176.018 562.305C176.018 561.235 176.213 560.235 176.603 559.305C176.993 558.375 177.543 557.555 178.253 556.845C178.963 556.135 179.778 555.58 180.698 555.18C181.628 554.78 182.628 554.58 183.698 554.58C184.618 554.58 185.443 554.775 186.173 555.165C186.913 555.555 187.558 556.05 188.108 556.65L187.928 555ZM183.968 566.415C184.648 566.415 185.263 566.24 185.813 565.89C186.363 565.54 186.798 565.07 187.118 564.48C187.438 563.88 187.598 563.22 187.598 562.5C187.598 561.77 187.438 561.11 187.118 560.52C186.798 559.93 186.363 559.46 185.813 559.11C185.263 558.76 184.648 558.585 183.968 558.585C183.278 558.585 182.653 558.76 182.093 559.11C181.533 559.46 181.088 559.935 180.758 560.535C180.428 561.125 180.263 561.78 180.263 562.5C180.263 563.22 180.428 563.88 180.758 564.48C181.098 565.07 181.548 565.54 182.108 565.89C182.668 566.24 183.288 566.415 183.968 566.415ZM202.642 559.14H199.942V570H195.802V559.14H193.732V555H195.802V550.29H199.942V555H202.642V559.14ZM211.029 570.39C209.649 570.39 208.389 570.035 207.249 569.325C206.119 568.615 205.214 567.66 204.534 566.46C203.864 565.26 203.529 563.935 203.529 562.485C203.529 561.395 203.724 560.375 204.114 559.425C204.504 558.465 205.039 557.625 205.719 556.905C206.409 556.175 207.209 555.605 208.119 555.195C209.029 554.785 209.999 554.58 211.029 554.58C212.219 554.58 213.304 554.835 214.284 555.345C215.274 555.855 216.109 556.55 216.789 557.43C217.479 558.31 217.969 559.305 218.259 560.415C218.559 561.525 218.609 562.68 218.409 563.88H207.999C208.129 564.32 208.329 564.72 208.599 565.08C208.879 565.43 209.219 565.71 209.619 565.92C210.029 566.13 210.499 566.24 211.029 566.25C211.549 566.26 212.029 566.14 212.469 565.89C212.909 565.64 213.284 565.305 213.594 564.885L217.824 565.86C217.214 567.19 216.304 568.28 215.094 569.13C213.884 569.97 212.529 570.39 211.029 570.39ZM207.849 560.82H214.224C214.094 560.32 213.874 559.87 213.564 559.47C213.254 559.07 212.879 558.755 212.439 558.525C212.009 558.295 211.539 558.18 211.029 558.18C210.529 558.18 210.059 558.295 209.619 558.525C209.189 558.755 208.819 559.07 208.509 559.47C208.209 559.86 207.989 560.31 207.849 560.82Z" fill="#9BB068"/>
    <defs>
        <filter id="filter0_ddddd_2337_15542" x="-402" y="10" width="1180" height="1365" filterUnits="userSpaceOnUse" color-interpolation-filters="sRGB">
            <feFlood flood-opacity="0" result="BackgroundImageFix"/>
            <feColorMatrix in="SourceAlpha" type="matrix" values="0 0 0 0 0 0 0 0 0 0 0 0 0 0 0 0 0 0 127 0" result="hardAlpha"/>
            <feOffset/>
            <feColorMatrix type="matrix" values="0 0 0 0 0.294118 0 0 0 0 0.203922 0 0 0 0 0.145098 0 0 0 0.05 0"/>
            <feBlend mode="normal" in2="BackgroundImageFix" result="effect1_dropShadow_2337_15542"/>
            <feColorMatrix in="SourceAlpha" type="matrix" values="0 0 0 0 0 0 0 0 0 0 0 0 0 0 0 0 0 0 127 0" result="hardAlpha"/>
            <feOffset dy="-17"/>
            <feGaussianBlur stdDeviation="19"/>
            <feColorMatrix type="matrix" values="0 0 0 0 0.294118 0 0 0 0 0.203922 0 0 0 0 0.145098 0 0 0 0.05 0"/>
            <feBlend mode="normal" in2="effect1_dropShadow_2337_15542" result="effect2_dropShadow_2337_15542"/>
            <feColorMatrix in="SourceAlpha" type="matrix" values="0 0 0 0 0 0 0 0 0 0 0 0 0 0 0 0 0 0 127 0" result="hardAlpha"/>
            <feOffset dy="-69"/>
            <feGaussianBlur stdDeviation="34.5"/>
            <feColorMatrix type="matrix" values="0 0 0 0 0.294118 0 0 0 0 0.203922 0 0 0 0 0.145098 0 0 0 0.04 0"/>
            <feBlend mode="normal" in2="effect2_dropShadow_2337_15542" result="effect3_dropShadow_2337_15542"/>
            <feColorMatrix in="SourceAlpha" type="matrix" values="0 0 0 0 0 0 0 0 0 0 0 0 0 0 0 0 0 0 127 0" result="hardAlpha"/>
            <feOffset dy="-154"/>
            <feGaussianBlur stdDeviation="46.5"/>
            <feColorMatrix type="matrix" values="0 0 0 0 0.294118 0 0 0 0 0.203922 0 0 0 0 0.145098 0 0 0 0.03 0"/>
            <feBlend mode="normal" in2="effect3_dropShadow_2337_15542" result="effect4_dropShadow_2337_15542"/>
            <feColorMatrix in="SourceAlpha" type="matrix" values="0 0 0 0 0 0 0 0 0 0 0 0 0 0 0 0 0 0 127 0" result="hardAlpha"/>
            <feOffset dy="-274"/>
            <feGaussianBlur stdDeviation="55"/>
            <feColorMatrix type="matrix" values="0 0 0 0 0.294118 0 0 0 0 0.203922 0 0 0 0 0.145098 0 0 0 0.01 0"/>
            <feBlend mode="normal" in2="effect4_dropShadow_2337_15542" result="effect5_dropShadow_2337_15542"/>
            <feBlend mode="normal" in="SourceGraphic" in2="effect5_dropShadow_2337_15542" result="shape"/>
        </filter>
    </defs>
</svg>
