<svg width="375" height="812" viewBox="0 0 375 812" fill="none" xmlns="http://www.w3.org/2000/svg">
    <g clip-path="url(#clip0_2667_17599)">
        <rect width="375" height="812" rx="40" fill="#CBC2FF"/>
        <g opacity="0.48" clip-path="url(#clip1_2667_17599)">
            <path d="M177.321 -6.05329C81.3962 17.7057 -9.13103 90.1804 -60.9675 184.798C-74.462 209.444 -85.6824 236.41 -86.3744 263.409C-87.0523 290.384 -75.1851 299.803 -52.5632 308.151C-22.4929 319.272 64.3022 302.267 95.6876 303.324C112.7 303.883 168.633 298.247 170.744 316.27C172.133 328.317 162.759 335.19 154.292 344.765C132.664 369.2 109.929 380.028 100.166 411.085C93.837 431.157 99.0309 452.389 110.035 467.323C121.025 482.281 137.137 491.778 153.858 498.897C196.375 517.008 244.311 521.51 292.15 520.887C351.386 520.115 413.633 510.974 468.238 477.107C482.789 468.087 498.188 454.747 500.096 437.55C502.197 418.645 487.189 405.657 473.586 395.886C451.514 380.022 429.427 364.183 407.332 348.306C394.001 338.725 379.4 326.459 380.303 308C381.081 292.556 392.76 278.79 404.754 268.652C423.771 252.558 446.413 244.536 467.23 232.601C485.078 222.398 515.147 200.139 513.938 175.617C513.69 170.501 511.614 165.955 508.933 162.099C496.178 143.685 470.739 136.603 450.066 131.493C423.255 124.854 395.379 121.435 367.084 121.285C335.33 121.12 302.154 124.944 273.353 114.069C263.877 110.483 254.27 104.221 252.569 93.3262C249.407 73.1046 273.864 56.5437 280.217 35.7702C287.883 10.6852 265.933 -10.2758 243.12 -13.6635C220.316 -17.014 205.555 -11.8533 177.321 -6.05329Z" fill="#EDEBFF"/>
        </g>
        <path d="M207.5 178.082C214.3 164.405 224.628 152.966 237.545 144.857C238.813 144.069 237.646 142.061 236.377 142.849C223.131 151.161 212.473 162.88 205.495 176.912C204.81 178.26 206.814 179.429 207.5 178.082Z" fill="white"/>
        <path d="M285.454 356.152C287.89 322.496 265.255 289.271 236.631 275.163C233.611 273.689 230.414 276.815 231.505 280.171C232.342 282.713 233.915 285.179 235.59 287.212C237.823 289.932 242.112 293.974 244.573 297.914C245.842 299.948 244.066 302.566 241.858 301.905C223.613 296.364 206.966 286.501 206.966 286.501C198.719 280.578 188.594 275.341 181.134 273.841C177.429 273.104 174.815 277.527 177.023 280.806C180.296 285.687 184.534 291.28 187.376 292.424C182.834 291.712 178.418 286.78 173.521 288.433C171.491 289.119 169.968 291.076 169.943 293.389C169.867 300.202 181.666 300.99 184.204 307.193C181.108 306.379 174.536 305.185 171.465 304.32C171.389 304.295 171.313 304.269 171.212 304.244C164.715 302.49 161.746 312.506 167.938 315.276L198.389 328.927C201.967 330.529 200.495 336.274 196.664 335.638L178.063 332.562C175.779 332.232 173.495 333.503 172.683 335.816C171.11 340.214 176.287 342.756 180.118 344.256C190.497 348.323 198.719 358.339 201.13 369.905C201.587 372.091 212.904 541.037 213.031 543.198C215.721 584.887 274.289 609.164 297 564.5L285.454 356.152Z" fill="#FEAF8F"/>
        <path d="M229.323 332.537C235.236 336.808 242.975 340.85 246.731 347.306C250.309 353.458 250.918 360.906 251.502 367.821C251.628 369.295 253.938 369.321 253.811 367.821C253.202 360.474 252.491 352.645 248.71 346.137C244.726 339.274 236.707 335.054 230.465 330.529C229.298 329.639 228.13 331.648 229.323 332.537Z" fill="#4B3425"/>
        <path d="M243.94 280.222C240.946 279.84 238.485 277.883 237.038 275.265C236.302 273.968 234.298 275.138 235.033 276.434C236.911 279.815 240.109 282.052 243.94 282.535C245.438 282.738 245.412 280.4 243.94 280.222Z" fill="#4B3425"/>
        <path d="M212.118 305.184C202.83 299.591 193.543 293.999 184.255 288.406C182.961 287.644 181.794 289.652 183.088 290.414C192.376 296.007 201.663 301.599 210.951 307.192C212.219 307.954 213.412 305.946 212.118 305.184Z" fill="#4B3425"/>
        <path d="M208.007 317.081C198.923 313.573 190.117 309.48 181.565 304.828C180.246 304.116 179.079 306.125 180.398 306.836C189.127 311.59 198.136 315.759 207.398 319.318C208.794 319.852 209.377 317.615 208.007 317.081Z" fill="#4B3425"/>
        <path d="M232.165 305.138C230.11 307.247 228.587 309.688 227.496 312.408C226.938 313.806 229.196 314.391 229.729 313.018C230.668 310.679 232.038 308.569 233.815 306.764C234.855 305.722 233.206 304.07 232.165 305.138Z" fill="white"/>
        <path d="M221.584 317.437C219.858 319.42 218.158 321.402 216.433 323.36C215.468 324.478 217.093 326.131 218.082 325.012C219.808 323.029 221.508 321.047 223.233 319.089C224.198 317.945 222.548 316.293 221.584 317.437Z" fill="white"/>
        <path d="M204.912 341.078C204.303 343.137 203.364 345.018 202.095 346.772C201.207 347.992 203.237 349.136 204.1 347.941C205.47 346.035 206.485 343.925 207.145 341.688C207.576 340.264 205.343 339.654 204.912 341.078Z" fill="white"/>
        <path d="M173.927 365.913C188.898 338.078 182.275 300.989 163.218 277.933C161.213 275.493 157.255 276.967 156.925 280.246C156.671 282.737 157.077 285.457 157.711 287.847C158.574 291.024 160.68 296.134 161.289 300.455C161.594 302.692 159.082 304.243 157.458 302.82C143.983 291.075 133.528 276.23 133.528 276.23C128.732 267.994 122.084 259.63 116.298 255.487C113.43 253.428 109.472 256.199 110.106 259.859C111.045 265.299 112.517 271.705 114.522 273.764C110.918 271.425 109.04 265.502 104.219 265.019C102.214 264.816 100.159 265.935 99.2706 267.866C96.5808 273.662 106.376 278.874 106.173 285.152C103.838 283.271 98.687 279.738 96.3778 277.806C96.327 277.755 96.2509 277.704 96.2001 277.653C91.3279 273.662 84.9332 281.085 89.171 285.839L109.954 309.225C112.39 311.971 108.939 316.318 105.919 314.31L91.2011 304.548C89.374 303.379 86.9379 303.608 85.3646 305.26C82.3449 308.412 85.796 312.581 88.4858 315.326C95.8195 322.8 98.9915 334.519 96.6061 345.322C96.1494 347.381 -6.22928 571.42 -6.93981 573.301C-20.6174 609.957 33.484 634.463 69.9999 605L173.927 365.913Z" fill="#4B3425"/>
        <path d="M134.874 324.096C138.325 330.095 143.502 336.654 144.162 343.695C144.796 350.279 142.436 356.863 140.305 362.964C139.797 364.387 142.056 364.998 142.538 363.574C144.898 356.838 147.334 349.644 146.344 342.424C145.355 335.357 140.355 328.977 136.879 322.927C136.143 321.63 134.138 322.8 134.874 324.096Z" fill="#4B3425"/>
        <path d="M167.685 285.05C165.3 283.576 163.854 281.084 163.6 278.288C163.473 276.814 161.138 276.788 161.291 278.288C161.595 281.898 163.397 285.126 166.518 287.058C167.787 287.846 168.954 285.838 167.685 285.05Z" fill="#4B3425"/>
        <path d="M130.891 294.199C125.08 285.861 119.295 277.498 113.484 269.16C112.646 267.94 110.616 269.109 111.479 270.329C117.29 278.667 123.076 287.03 128.887 295.368C129.724 296.588 131.729 295.444 130.891 294.199Z" fill="#4B3425"/>
        <path d="M122.821 302.744C116.4 296.261 110.437 289.398 104.905 282.128C104.017 280.958 101.987 282.102 102.901 283.297C108.534 290.72 114.624 297.761 121.171 304.371C122.237 305.464 123.886 303.811 122.821 302.744Z" fill="#4B3425"/>
        <path d="M147.993 301.731C145.43 302.748 143.146 304.197 141.141 306.128C140.076 307.171 141.7 308.823 142.791 307.781C144.466 306.154 146.42 304.832 148.602 303.993C149.998 303.434 149.389 301.171 147.993 301.731Z" fill="white"/>
        <path d="M133.96 308.286C131.727 309.328 129.519 310.345 127.286 311.387C125.941 312.023 127.109 314.031 128.454 313.395C130.687 312.353 132.894 311.336 135.127 310.294C136.472 309.659 135.305 307.65 133.96 308.286Z" fill="white"/>
        <path d="M110.868 321.938C109.548 323.463 108.051 324.734 106.3 325.751C105.006 326.488 106.173 328.496 107.467 327.759C109.371 326.666 111.071 325.268 112.492 323.59C113.481 322.446 111.832 320.794 110.868 321.938Z" fill="white"/>
        <path d="M89.857 356.431C85.3401 355.287 81.1785 357.93 79.2499 362.074C77.1437 366.65 78.7424 371.759 81.1024 375.903C87.0657 386.401 96.5817 395.68 106.098 402.925C115.867 410.398 127.007 416.118 138.934 419.168C143.806 420.414 149.846 421.609 154.134 418.177C158.068 415.05 158.474 409.686 158.677 405.034C158.753 403.535 156.418 403.535 156.367 405.034C156.114 410.729 155.124 417.287 148.222 418.024C143.629 418.507 138.604 416.779 134.29 415.381C125.688 412.559 117.593 408.314 110.234 403.077C102.799 397.815 96.1249 391.511 90.2884 384.52C87.0403 380.631 83.4116 376.36 81.5845 371.556C79.5798 366.268 81.6606 356.71 89.248 358.642C90.6944 359.049 91.3035 356.812 89.857 356.431Z" fill="#FE814B"/>
        <path d="M88.2081 365.125C80.773 365.1 69.1762 368.837 72.0944 378.7C73.2617 382.589 76.6875 385.36 79.9102 387.52C84.554 390.622 89.5784 393.291 94.679 395.579C114.32 404.4 137.031 407.933 158.347 404.273C162.433 403.586 167.127 402.112 168.98 397.994C170.477 394.689 169.665 390.723 166.442 388.868C165.148 388.131 163.981 390.139 165.275 390.876C168.447 392.706 167.685 397.028 165.249 399.138C163.346 400.815 160.707 401.451 158.271 401.908C153.17 402.849 147.867 403.179 142.69 403.256C132.591 403.383 122.491 402.112 112.747 399.519C102.977 396.926 93.5878 393.011 84.8839 387.851C80.9252 385.487 75.2918 382.462 74.1753 377.556C72.3482 369.472 82.5239 367.413 88.2081 367.438C89.7053 367.464 89.7053 365.125 88.2081 365.125Z" fill="#FE814B"/>
        <path d="M303.573 138.122C301.289 134.716 298.929 131.716 296.544 129.098C256.932 77.6471 200.978 131.665 184.738 170.457C182.149 166.364 179.13 162.221 178.419 161.077C172.253 151.061 165.579 141.63 157.027 133.852C148.983 126.531 139.619 120.43 129.621 116.82C115.538 109.931 99.8299 107.542 84.6805 113.414C64.4812 121.243 52.7576 141.707 55.9549 164.737C60.3703 196.64 79.5038 225.848 96.7086 251.37C117.618 282.434 175.831 329.741 175.831 329.741C176.719 329.284 177.582 328.826 178.47 328.343C179.459 329.182 179.992 329.639 179.992 329.639C211.839 313.726 242.848 286.959 266.727 256.378C288.068 229.051 326.158 171.753 303.573 138.122Z" fill="#A28FFF"/>
        <path d="M364.805 463.605C362.217 459.359 300.96 358.059 298.397 353.814C285.582 332.715 276.218 310.015 267.159 287.035C257.998 263.775 262.947 236.067 279.847 218.044C280.608 217.23 283.755 215.756 284.846 215.502C287.104 214.993 289.185 217.408 289.211 219.721C289.236 222.035 287.891 224.145 286.521 226C284.237 229.127 281.725 232.203 280.507 235.889C279.289 239.575 279.695 244.1 282.613 246.642C286.825 246.921 288.754 241.557 289.414 237.389C291.824 222.314 293.804 206.604 298.321 192.013C299.386 188.581 303.7 185.073 306.999 186.472C309.08 187.361 309.664 190.005 309.917 192.267C311.415 205.893 309.486 219.416 308.293 233.092C308.775 221.882 311.338 210.926 311.821 199.716C311.947 196.69 311.643 192.547 313.013 189.852C314.384 187.158 317.352 185.023 320.296 185.582C322.935 186.09 324.813 188.581 325.447 191.174C326.107 193.767 326.234 197.529 325.955 200.199C324.635 212.4 324.382 224.729 325.194 236.982C325.346 227.144 326.437 217.332 328.493 207.723C329.178 204.571 330.269 201.012 333.187 199.665C336.689 198.063 340.901 200.758 342.424 204.266C343.972 207.774 343.591 211.79 343.388 215.629C341.713 245.574 343.769 294.076 456.286 441.184L364.805 463.605Z" fill="#4B3425"/>
        <path d="M319.154 185.865C317.784 191.228 319.458 196.846 323.696 200.456C324.838 201.422 326.488 199.795 325.346 198.804C321.742 195.702 320.22 191.101 321.412 186.475C321.768 185.026 319.535 184.416 319.154 185.865Z" fill="white"/>
        <path d="M304.638 187.185C302.227 192.04 303.598 197.709 307.886 201.014C309.079 201.929 310.221 199.895 309.053 199.006C305.831 196.514 304.866 191.99 306.643 188.354C307.302 187.007 305.298 185.838 304.638 187.185Z" fill="white"/>
        <path d="M334.734 199.258C333.871 202.613 334.176 206.045 335.673 209.197C336.434 210.798 337.5 212.298 338.794 213.518C339.657 214.357 342.169 215.247 342.601 216.111C342.728 215.577 342.88 215.044 343.007 214.51C342.931 214.561 342.829 214.611 342.753 214.662C343.286 214.789 343.819 214.942 344.352 215.069C344.301 215.018 344.275 214.942 344.225 214.891C343.387 213.671 341.357 214.84 342.22 216.06C342.271 216.111 342.296 216.188 342.347 216.238C342.702 216.747 343.362 217.001 343.946 216.645C344.022 216.594 344.123 216.543 344.199 216.493C344.758 216.162 344.91 215.476 344.605 214.891C344.225 214.128 343.641 214.001 342.931 213.595C341.256 212.603 339.835 211.434 338.743 209.807C336.739 206.858 336.13 203.274 336.993 199.817C337.348 198.419 335.115 197.809 334.734 199.258Z" fill="white"/>
        <path d="M325.016 218.02C324.991 225.316 325.473 232.561 326.463 239.805C326.666 241.28 328.899 240.644 328.696 239.195C327.757 232.179 327.3 225.138 327.326 218.046C327.351 216.52 325.016 216.52 325.016 218.02Z" fill="white"/>
        <path d="M309.054 207.06C308.191 218.88 307.328 230.701 306.44 242.521C306.339 244.021 308.648 243.996 308.775 242.521C309.638 230.701 310.5 218.88 311.389 207.06C311.49 205.586 309.155 205.586 309.054 207.06Z" fill="white"/>
        <path d="M340.165 248.977C337.576 249.079 335.115 249.588 332.704 250.553C331.334 251.087 331.943 253.35 333.313 252.79C335.521 251.901 337.779 251.392 340.139 251.291C341.662 251.24 341.662 248.901 340.165 248.977Z" fill="white"/>
        <path d="M322.631 251.825C320.094 252.359 317.556 252.588 314.968 252.512C313.47 252.461 313.47 254.8 314.968 254.825C317.759 254.901 320.525 254.647 323.24 254.062C324.687 253.757 324.078 251.52 322.631 251.825Z" fill="white"/>
        <path d="M304.283 252.007C301.264 252.287 298.244 252.566 295.224 252.846C293.752 252.973 293.727 255.312 295.224 255.159C298.244 254.88 301.264 254.6 304.283 254.32C305.755 254.193 305.755 251.88 304.283 252.007Z" fill="white"/>
        <path d="M272.614 259.555C270.584 260.546 268.402 261.105 266.144 261.207C264.646 261.283 264.646 263.596 266.144 263.52C268.833 263.393 271.371 262.732 273.782 261.537C275.127 260.902 273.959 258.894 272.614 259.555Z" fill="white"/>
        <path d="M276.066 224.628C281.395 226.992 287.155 222.29 285.404 216.545C284.973 215.121 282.715 215.731 283.171 217.155C284.262 220.764 280.837 224.222 277.259 222.62C275.888 222.035 274.696 224.018 276.066 224.628Z" fill="white"/>
        <path d="M409.232 544L308.851 382.588L391.145 333.934L503.448 500.4L409.232 544Z" fill="#A28FFF"/>
        <path d="M292.078 325.928C292.687 329.588 290.2 333.071 286.546 333.681C282.892 334.291 279.416 331.8 278.807 328.139C278.198 324.479 280.684 320.996 284.339 320.386C287.993 319.776 291.469 322.267 292.078 325.928Z" fill="white"/>
        <path d="M305.781 323.082C306.39 326.742 303.903 330.225 300.249 330.835C296.595 331.445 293.118 328.954 292.509 325.293C291.9 321.633 294.387 318.15 298.041 317.54C301.721 316.93 305.172 319.396 305.781 323.082Z" fill="white"/>
        <path d="M328.162 313.931C328.771 317.592 326.284 321.075 322.63 321.685C318.976 322.295 315.499 319.804 314.89 316.143C314.281 312.482 316.768 309 320.422 308.39C324.102 307.78 327.553 310.271 328.162 313.931Z" fill="white"/>
        <path d="M347.398 305.819C348.007 309.479 345.52 312.962 341.866 313.572C338.212 314.182 334.735 311.691 334.126 308.03C333.517 304.37 336.004 300.887 339.658 300.277C343.338 299.667 346.789 302.133 347.398 305.819Z" fill="white"/>
        <path d="M363.917 294.584C364.526 298.244 362.04 301.727 358.385 302.337C354.731 302.947 351.255 300.456 350.646 296.795C350.037 293.135 352.524 289.652 356.178 289.042C359.832 288.432 363.308 290.923 363.917 294.584Z" fill="white"/>
        <path d="M1.37152 463.605C3.95986 459.359 65.2173 358.059 67.7803 353.814C80.5951 332.715 89.9588 310.015 99.018 287.035C108.179 263.775 103.23 236.067 86.3301 218.044C85.5688 217.23 82.4222 215.756 81.331 215.502C79.0726 214.993 76.9917 217.408 76.9664 219.721C76.941 222.035 78.2859 224.145 79.6562 226C81.94 229.127 84.4523 232.203 85.6703 235.889C86.8883 239.575 86.4823 244.1 83.5641 246.642C79.3517 246.921 77.4231 241.557 76.7634 237.389C74.3526 222.314 72.3733 206.604 67.8564 192.013C66.7906 188.581 62.4767 185.073 59.1778 186.472C57.097 187.361 56.5134 190.005 56.2596 192.267C54.7624 205.893 56.691 219.416 57.8837 233.092C57.4015 221.882 54.8386 210.926 54.3564 199.716C54.2295 196.69 54.5341 192.547 53.1638 189.852C51.7935 187.158 48.8245 185.023 45.8809 185.582C43.2418 186.09 41.364 188.581 40.7296 191.174C40.0698 193.767 39.9429 197.529 40.222 200.199C41.5416 212.4 41.7954 224.729 40.9833 236.982C40.8311 227.144 39.7399 217.332 37.6845 207.723C36.9993 204.571 35.9081 201.012 32.9899 199.665C29.488 198.063 25.2756 200.758 23.7531 204.266C22.2051 207.774 22.5858 211.79 22.7888 215.629C24.4636 245.574 22.4081 294.076 -90.1086 441.184L1.37152 463.605Z" fill="#BDA193"/>
        <path d="M44.7892 186.475C45.9819 191.101 44.4593 195.702 40.8559 198.804C39.714 199.77 41.3634 201.422 42.5054 200.456C46.7431 196.846 48.4179 191.228 47.0476 185.865C46.667 184.416 44.4085 185.026 44.7892 186.475Z" fill="#4B3425"/>
        <path d="M59.5322 188.354C61.3338 191.964 60.3442 196.514 57.1214 199.006C55.9542 199.895 57.1214 201.929 58.2887 201.014C62.5519 197.709 63.9222 192.04 61.5369 187.185C60.8771 185.838 58.8724 187.007 59.5322 188.354Z" fill="#4B3425"/>
        <path d="M29.1837 199.869C30.0718 203.326 29.4374 206.885 27.4327 209.859C26.4431 211.334 25.1235 212.528 23.601 213.444C22.7889 213.927 22.0023 214.079 21.5455 214.943C21.2664 215.503 21.3932 216.189 21.9515 216.545C22.0276 216.596 22.1291 216.647 22.2053 216.697C22.7635 217.053 23.4487 216.799 23.804 216.291C23.8547 216.24 23.8801 216.164 23.9308 216.113C24.7936 214.893 22.7635 213.723 21.9261 214.943C21.8754 214.994 21.85 215.071 21.7993 215.121C22.3322 214.994 22.8651 214.842 23.3979 214.715C23.3218 214.664 23.2203 214.613 23.1442 214.562C23.2711 215.096 23.4233 215.63 23.5502 216.164C23.9816 215.299 26.4684 214.41 27.3566 213.571C28.6508 212.351 29.7165 210.851 30.4778 209.249C31.975 206.097 32.2795 202.665 31.4167 199.31C31.0615 197.81 28.8284 198.42 29.1837 199.869Z" fill="#4B3425"/>
        <path d="M38.8521 218.018C38.8775 225.11 38.4461 232.151 37.4818 239.167C37.2788 240.642 39.5119 241.252 39.7149 239.778C40.6792 232.558 41.1867 225.313 41.1613 217.992C41.1613 216.518 38.8267 216.518 38.8521 218.018Z" fill="#4B3425"/>
        <path d="M54.8126 207.06C55.6754 218.88 56.5381 230.701 57.4263 242.521C57.5278 243.996 59.8624 244.021 59.7355 242.521C58.8727 230.701 58.0099 218.88 57.1218 207.06C57.0203 205.586 54.7111 205.586 54.8126 207.06Z" fill="#4B3425"/>
        <path d="M26.0111 251.291C28.371 251.392 30.6549 251.901 32.8626 252.79C34.2582 253.35 34.8419 251.087 33.4716 250.553C31.0609 249.588 28.5994 249.079 26.0111 248.977C24.5139 248.901 24.5139 251.24 26.0111 251.291Z" fill="white"/>
        <path d="M42.9362 254.062C45.6768 254.647 48.4174 254.901 51.2087 254.825C52.7059 254.774 52.7059 252.461 51.2087 252.512C48.6204 252.588 46.0828 252.385 43.5452 251.825C42.0988 251.52 41.4898 253.757 42.9362 254.062Z" fill="white"/>
        <path d="M61.8919 254.345C64.9117 254.625 67.9314 254.904 70.9511 255.184C72.4483 255.311 72.4229 252.998 70.9511 252.871C67.9314 252.591 64.9117 252.311 61.8919 252.032C60.4201 251.879 60.4201 254.192 61.8919 254.345Z" fill="white"/>
        <path d="M92.3701 261.564C94.7808 262.759 97.3184 263.42 100.008 263.547C101.505 263.623 101.505 261.285 100.008 261.234C97.7498 261.132 95.5674 260.573 93.5374 259.581C92.2178 258.895 91.0251 260.903 92.3701 261.564Z" fill="white"/>
        <path d="M88.9428 222.618C85.3394 224.22 81.9136 220.763 83.0302 217.153C83.4615 215.729 81.2285 215.094 80.7971 216.543C79.0461 222.288 84.8065 226.991 90.1354 224.627C91.4803 224.017 90.2877 222.034 88.9428 222.618Z" fill="#4B3425"/>
        <path d="M57.3249 382.588L-24.9692 333.934L-40.3977 355.973C-12.7633 372.801 14.4142 390.316 42.2009 406.661L57.3249 382.588Z" fill="white"/>
        <path d="M-40.3722 356.001L-128 478.851L-40.3722 535.481L42.2265 406.689C14.4398 390.344 -12.7632 372.829 -40.3722 356.001Z" fill="#A28FFF"/>
        <path d="M25.4284 410.654C25.4284 413.247 23.3222 415.357 20.7338 415.357C18.1455 415.357 16.0393 413.247 16.0393 410.654C16.0393 408.061 18.1455 405.951 20.7338 405.951C23.3222 405.951 25.4284 408.061 25.4284 410.654Z" fill="#4B3425"/>
        <path d="M16.0387 428.297C16.0387 430.89 13.9325 433 11.3442 433C8.75586 433 6.64966 430.89 6.64966 428.297C6.64966 425.705 8.75586 423.595 11.3442 423.595C13.9325 423.595 16.0387 425.705 16.0387 428.297Z" fill="#4B3425"/>
        <path d="M207.422 170.837C213.614 156.881 223.003 144.755 234.981 135.299C236.148 134.384 234.499 132.731 233.331 133.646C221.227 143.205 211.66 155.533 205.418 169.642C204.809 171.014 206.813 172.209 207.422 170.837Z" fill="white"/>
        <path d="M247.214 128.029C251.35 126.174 255.664 124.928 260.13 124.242C261.602 124.013 260.967 121.776 259.521 122.005C254.826 122.716 250.36 124.089 246.046 126.047C244.676 126.631 245.843 128.639 247.214 128.029Z" fill="white"/>
        <path d="M83.0818 136.368C92.7247 126.733 105.971 121.903 119.547 123.022C121.044 123.149 121.019 120.81 119.547 120.709C105.413 119.539 91.4813 124.674 81.4324 134.715C80.392 135.783 82.0414 137.41 83.0818 136.368Z" fill="white"/>
        <g filter="url(#filter0_ddddd_2667_17599)">
            <rect x="-293" y="472" width="960" height="960" rx="480" fill="white"/>
            <rect x="153" y="526" width="69" height="30" rx="15" fill="#CBC2FF"/>
            <path d="M169.161 545.156C168.689 545.156 168.237 545.082 167.805 544.934C167.377 544.786 167.001 544.572 166.677 544.292C166.357 544.012 166.127 543.68 165.987 543.296L167.541 542.72C167.589 542.856 167.689 542.984 167.841 543.104C167.993 543.22 168.183 543.316 168.411 543.392C168.639 543.464 168.889 543.5 169.161 543.5C169.421 543.5 169.665 543.462 169.893 543.386C170.125 543.306 170.311 543.196 170.451 543.056C170.595 542.916 170.667 542.752 170.667 542.564C170.667 542.376 170.593 542.22 170.445 542.096C170.297 541.972 170.107 541.874 169.875 541.802C169.643 541.726 169.405 541.668 169.161 541.628C168.557 541.54 168.015 541.398 167.535 541.202C167.059 541.002 166.683 540.728 166.407 540.38C166.131 540.028 165.993 539.582 165.993 539.042C165.993 538.522 166.139 538.068 166.431 537.68C166.727 537.292 167.115 536.99 167.595 536.774C168.079 536.558 168.601 536.45 169.161 536.45C169.625 536.45 170.073 536.524 170.505 536.672C170.937 536.82 171.313 537.034 171.633 537.314C171.957 537.594 172.189 537.93 172.329 538.322L170.775 538.886C170.727 538.75 170.627 538.624 170.475 538.508C170.323 538.392 170.133 538.298 169.905 538.226C169.677 538.154 169.429 538.118 169.161 538.118C168.905 538.114 168.661 538.152 168.429 538.232C168.201 538.312 168.013 538.422 167.865 538.562C167.721 538.702 167.649 538.862 167.649 539.042C167.649 539.278 167.717 539.456 167.853 539.576C167.993 539.696 168.177 539.782 168.405 539.834C168.633 539.886 168.885 539.932 169.161 539.972C169.729 540.056 170.253 540.206 170.733 540.422C171.213 540.634 171.597 540.918 171.885 541.274C172.177 541.626 172.323 542.056 172.323 542.564C172.323 543.084 172.177 543.538 171.885 543.926C171.593 544.314 171.207 544.616 170.727 544.832C170.247 545.048 169.725 545.156 169.161 545.156ZM180.968 536.6V538.256H178.495V545H176.839V538.256H174.367V536.6H180.968ZM183.366 545V536.6H188.682V538.256H185.022V539.672H187.878V541.328H185.022V543.344H188.682V545H183.366ZM191.211 545V536.6H194.307C194.767 536.6 195.181 536.716 195.549 536.948C195.921 537.18 196.217 537.49 196.437 537.878C196.657 538.262 196.767 538.686 196.767 539.15C196.767 539.622 196.655 540.052 196.431 540.44C196.207 540.824 195.907 541.13 195.531 541.358C195.159 541.586 194.751 541.7 194.307 541.7H192.867V545H191.211ZM192.867 540.044H194.121C194.305 540.044 194.471 540 194.619 539.912C194.767 539.82 194.885 539.698 194.973 539.546C195.065 539.39 195.111 539.218 195.111 539.03C195.111 538.846 195.065 538.678 194.973 538.526C194.885 538.37 194.767 538.246 194.619 538.154C194.471 538.062 194.305 538.016 194.121 538.016H192.867V540.044ZM206.579 545V543.068H203.015V541.406L206.201 536.6H208.235V541.412H208.889V543.068H208.235V545H206.579ZM204.929 541.406L206.579 541.412L206.573 538.838L204.929 541.406Z" fill="#7152FF"/>
            <path d="M56.3965 610V589H60.5365V605.86H68.9965V610H56.3965ZM77.1621 610.39C75.7821 610.39 74.5221 610.035 73.3821 609.325C72.2521 608.615 71.3471 607.665 70.6671 606.475C69.9971 605.275 69.6621 603.95 69.6621 602.5C69.6621 601.4 69.8571 600.375 70.2471 599.425C70.6371 598.465 71.1721 597.625 71.8521 596.905C72.5421 596.175 73.3421 595.605 74.2521 595.195C75.1621 594.785 76.1321 594.58 77.1621 594.58C78.5421 594.58 79.7971 594.935 80.9271 595.645C82.0671 596.355 82.9721 597.31 83.6421 598.51C84.3221 599.71 84.6621 601.04 84.6621 602.5C84.6621 603.59 84.4671 604.61 84.0771 605.56C83.6871 606.51 83.1471 607.35 82.4571 608.08C81.7771 608.8 80.9821 609.365 80.0721 609.775C79.1721 610.185 78.2021 610.39 77.1621 610.39ZM77.1621 606.25C77.8021 606.25 78.3771 606.08 78.8871 605.74C79.3971 605.39 79.7971 604.93 80.0871 604.36C80.3771 603.79 80.5221 603.17 80.5221 602.5C80.5221 601.81 80.3671 601.18 80.0571 600.61C79.7571 600.03 79.3521 599.57 78.8421 599.23C78.3321 598.89 77.7721 598.72 77.1621 598.72C76.5321 598.72 75.9621 598.895 75.4521 599.245C74.9421 599.595 74.5371 600.055 74.2371 600.625C73.9471 601.195 73.8021 601.82 73.8021 602.5C73.8021 603.21 73.9521 603.85 74.2521 604.42C74.5621 604.98 74.9721 605.425 75.4821 605.755C75.9921 606.085 76.5521 606.25 77.1621 606.25ZM95.5216 610H90.1666L84.7066 595H89.1166L92.8366 605.245L96.5566 595H100.982L95.5216 610ZM102.526 595H106.666V610H102.526V595ZM104.626 593.275C104.026 593.275 103.521 593.075 103.111 592.675C102.701 592.275 102.496 591.78 102.496 591.19C102.496 590.6 102.701 590.105 103.111 589.705C103.521 589.305 104.021 589.105 104.611 589.105C105.201 589.105 105.696 589.305 106.096 589.705C106.506 590.105 106.711 590.6 106.711 591.19C106.711 591.78 106.511 592.275 106.111 592.675C105.721 593.075 105.226 593.275 104.626 593.275ZM123.449 600.46V610H119.309V601.6C119.309 601.07 119.179 600.595 118.919 600.175C118.669 599.745 118.329 599.405 117.899 599.155C117.479 598.905 117.009 598.78 116.489 598.78C115.969 598.78 115.494 598.905 115.064 599.155C114.634 599.405 114.294 599.745 114.044 600.175C113.794 600.595 113.669 601.07 113.669 601.6V610H109.529L109.514 595H113.654L113.669 596.11C114.169 595.63 114.754 595.255 115.424 594.985C116.104 594.715 116.819 594.58 117.569 594.58C118.659 594.58 119.644 594.845 120.524 595.375C121.414 595.905 122.124 596.615 122.654 597.505C123.184 598.385 123.449 599.37 123.449 600.46ZM136.445 595H140.585V610.21C140.585 611.32 140.36 612.32 139.91 613.21C139.46 614.11 138.845 614.88 138.065 615.52C137.295 616.16 136.405 616.65 135.395 616.99C134.395 617.33 133.335 617.5 132.215 617.5C131.155 617.5 130.14 617.29 129.17 616.87C128.2 616.46 127.34 615.89 126.59 615.16C125.84 614.43 125.255 613.59 124.835 612.64L128.615 610.915C128.825 611.415 129.11 611.845 129.47 612.205C129.84 612.565 130.26 612.84 130.73 613.03C131.21 613.23 131.705 613.33 132.215 613.33C132.765 613.33 133.29 613.265 133.79 613.135C134.3 613.005 134.755 612.81 135.155 612.55C135.555 612.29 135.87 611.965 136.1 611.575C136.33 611.185 136.445 610.73 136.445 610.21V608.47C135.985 609.04 135.425 609.505 134.765 609.865C134.115 610.215 133.36 610.39 132.5 610.39C131.42 610.39 130.405 610.185 129.455 609.775C128.515 609.365 127.685 608.8 126.965 608.08C126.245 607.35 125.68 606.51 125.27 605.56C124.86 604.61 124.655 603.59 124.655 602.5C124.655 601.41 124.86 600.39 125.27 599.44C125.68 598.49 126.245 597.655 126.965 596.935C127.685 596.205 128.515 595.635 129.455 595.225C130.405 594.815 131.42 594.61 132.5 594.61C133.36 594.61 134.115 594.79 134.765 595.15C135.425 595.5 135.985 595.96 136.445 596.53V595ZM132.56 606.415C133.24 606.415 133.855 606.24 134.405 605.89C134.955 605.53 135.385 605.055 135.695 604.465C136.015 603.875 136.175 603.22 136.175 602.5C136.175 601.78 136.015 601.125 135.695 600.535C135.385 599.935 134.955 599.46 134.405 599.11C133.855 598.76 133.24 598.585 132.56 598.585C131.89 598.585 131.275 598.76 130.715 599.11C130.165 599.46 129.725 599.935 129.395 600.535C129.065 601.125 128.9 601.78 128.9 602.5C128.9 603.22 129.065 603.88 129.395 604.48C129.725 605.07 130.165 605.54 130.715 605.89C131.275 606.24 131.89 606.415 132.56 606.415ZM156.165 610.39C154.925 610.39 153.81 610.085 152.82 609.475C151.83 608.865 151.045 608.065 150.465 607.075C149.885 606.075 149.595 604.99 149.595 603.82C149.595 603.18 149.655 602.62 149.775 602.14C149.895 601.65 150.09 601.185 150.36 600.745C150.64 600.295 151.01 599.81 151.47 599.29C151.94 598.77 152.53 598.155 153.24 597.445C152.87 597.065 152.555 596.72 152.295 596.41C152.035 596.09 151.82 595.775 151.65 595.465C151.49 595.145 151.375 594.815 151.305 594.475C151.235 594.135 151.2 593.755 151.2 593.335C151.2 592.375 151.43 591.52 151.89 590.77C152.35 590.02 152.955 589.43 153.705 589C154.465 588.56 155.285 588.34 156.165 588.34C157.085 588.34 157.92 588.565 158.67 589.015C159.43 589.455 160.035 590.05 160.485 590.8C160.935 591.55 161.16 592.395 161.16 593.335C161.16 593.765 161.12 594.155 161.04 594.505C160.97 594.845 160.85 595.17 160.68 595.48C160.51 595.79 160.295 596.105 160.035 596.425C159.775 596.735 159.46 597.075 159.09 597.445L162.54 600.895L166.47 596.95V602.8L165.465 603.82L168.72 607.075L165.795 610L162.54 606.745C161.82 607.465 161.195 608.06 160.665 608.53C160.135 609 159.645 609.375 159.195 609.655C158.755 609.925 158.295 610.115 157.815 610.225C157.345 610.335 156.795 610.39 156.165 610.39ZM156.165 606.25C156.475 606.25 156.74 606.21 156.96 606.13C157.19 606.05 157.42 605.92 157.65 605.74C157.89 605.55 158.16 605.3 158.46 604.99C158.77 604.67 159.155 604.28 159.615 603.82L156.165 600.37C155.685 600.85 155.285 601.25 154.965 601.57C154.655 601.88 154.41 602.145 154.23 602.365C154.05 602.585 153.92 602.81 153.84 603.04C153.77 603.26 153.735 603.52 153.735 603.82C153.735 604.3 153.85 604.725 154.08 605.095C154.32 605.455 154.625 605.74 154.995 605.95C155.365 606.15 155.755 606.25 156.165 606.25ZM156.165 595.15C156.545 594.78 156.835 594.505 157.035 594.325C157.235 594.135 157.365 593.97 157.425 593.83C157.495 593.68 157.53 593.49 157.53 593.26C157.53 592.81 157.38 592.47 157.08 592.24C156.79 592 156.485 591.88 156.165 591.88C155.815 591.88 155.5 592.01 155.22 592.27C154.94 592.53 154.8 592.86 154.8 593.26C154.8 593.49 154.845 593.685 154.935 593.845C155.025 594.005 155.165 594.18 155.355 594.37C155.555 594.56 155.825 594.82 156.165 595.15ZM185.37 610.39C184.19 610.39 183.06 610.205 181.98 609.835C180.91 609.465 179.97 608.93 179.16 608.23C178.36 607.53 177.785 606.7 177.435 605.74L181.32 604.3C181.44 604.64 181.69 604.96 182.07 605.26C182.45 605.55 182.925 605.79 183.495 605.98C184.065 606.16 184.69 606.25 185.37 606.25C186.02 606.25 186.63 606.155 187.2 605.965C187.78 605.765 188.245 605.49 188.595 605.14C188.955 604.79 189.135 604.38 189.135 603.91C189.135 603.44 188.95 603.05 188.58 602.74C188.21 602.43 187.735 602.185 187.155 602.005C186.575 601.815 185.98 601.67 185.37 601.57C183.86 601.35 182.505 600.995 181.305 600.505C180.115 600.005 179.175 599.32 178.485 598.45C177.795 597.57 177.45 596.455 177.45 595.105C177.45 593.805 177.815 592.67 178.545 591.7C179.285 590.73 180.255 589.975 181.455 589.435C182.665 588.895 183.97 588.625 185.37 588.625C186.53 588.625 187.65 588.81 188.73 589.18C189.81 589.55 190.75 590.085 191.55 590.785C192.36 591.485 192.94 592.325 193.29 593.305L189.405 594.715C189.285 594.375 189.035 594.06 188.655 593.77C188.275 593.48 187.8 593.245 187.23 593.065C186.66 592.885 186.04 592.795 185.37 592.795C184.73 592.785 184.12 592.88 183.54 593.08C182.97 593.28 182.5 593.555 182.13 593.905C181.77 594.255 181.59 594.655 181.59 595.105C181.59 595.695 181.76 596.14 182.1 596.44C182.45 596.74 182.91 596.955 183.48 597.085C184.05 597.215 184.68 597.33 185.37 597.43C186.79 597.64 188.1 598.015 189.3 598.555C190.5 599.085 191.46 599.795 192.18 600.685C192.91 601.565 193.275 602.64 193.275 603.91C193.275 605.21 192.91 606.345 192.18 607.315C191.45 608.285 190.485 609.04 189.285 609.58C188.085 610.12 186.78 610.39 185.37 610.39ZM194.992 604.51V595H199.132V603.37C199.132 603.9 199.257 604.38 199.507 604.81C199.767 605.23 200.112 605.565 200.542 605.815C200.972 606.065 201.442 606.19 201.952 606.19C202.472 606.19 202.947 606.065 203.377 605.815C203.807 605.565 204.147 605.23 204.397 604.81C204.647 604.38 204.772 603.9 204.772 603.37V595H208.912L208.927 610H204.787L204.772 608.86C204.272 609.34 203.682 609.715 203.002 609.985C202.332 610.255 201.622 610.39 200.872 610.39C199.792 610.39 198.807 610.125 197.917 609.595C197.027 609.065 196.317 608.36 195.787 607.48C195.257 606.59 194.992 605.6 194.992 604.51ZM214.688 617.5H210.548V595H214.688V596.62C215.168 596.03 215.738 595.55 216.398 595.18C217.058 594.8 217.828 594.61 218.708 594.61C219.798 594.61 220.818 594.815 221.768 595.225C222.728 595.635 223.568 596.205 224.288 596.935C225.008 597.655 225.573 598.49 225.983 599.44C226.393 600.39 226.598 601.41 226.598 602.5C226.598 603.59 226.393 604.615 225.983 605.575C225.573 606.535 225.008 607.38 224.288 608.11C223.568 608.83 222.728 609.395 221.768 609.805C220.818 610.215 219.798 610.42 218.708 610.42C217.828 610.42 217.058 610.23 216.398 609.85C215.738 609.47 215.168 608.99 214.688 608.41V617.5ZM218.648 598.585C217.968 598.585 217.353 598.765 216.803 599.125C216.263 599.475 215.833 599.945 215.513 600.535C215.203 601.125 215.048 601.78 215.048 602.5C215.048 603.22 215.203 603.88 215.513 604.48C215.833 605.07 216.263 605.54 216.803 605.89C217.353 606.24 217.968 606.415 218.648 606.415C219.328 606.415 219.948 606.24 220.508 605.89C221.078 605.54 221.528 605.07 221.858 604.48C222.198 603.89 222.368 603.23 222.368 602.5C222.368 601.79 222.203 601.14 221.873 600.55C221.543 599.95 221.093 599.475 220.523 599.125C219.963 598.765 219.338 598.585 218.648 598.585ZM232.428 617.5H228.288V595H232.428V596.62C232.908 596.03 233.478 595.55 234.138 595.18C234.798 594.8 235.568 594.61 236.448 594.61C237.538 594.61 238.558 594.815 239.508 595.225C240.468 595.635 241.308 596.205 242.028 596.935C242.748 597.655 243.313 598.49 243.723 599.44C244.133 600.39 244.338 601.41 244.338 602.5C244.338 603.59 244.133 604.615 243.723 605.575C243.313 606.535 242.748 607.38 242.028 608.11C241.308 608.83 240.468 609.395 239.508 609.805C238.558 610.215 237.538 610.42 236.448 610.42C235.568 610.42 234.798 610.23 234.138 609.85C233.478 609.47 232.908 608.99 232.428 608.41V617.5ZM236.388 598.585C235.708 598.585 235.093 598.765 234.543 599.125C234.003 599.475 233.573 599.945 233.253 600.535C232.943 601.125 232.788 601.78 232.788 602.5C232.788 603.22 232.943 603.88 233.253 604.48C233.573 605.07 234.003 605.54 234.543 605.89C235.093 606.24 235.708 606.415 236.388 606.415C237.068 606.415 237.688 606.24 238.248 605.89C238.818 605.54 239.268 605.07 239.598 604.48C239.938 603.89 240.108 603.23 240.108 602.5C240.108 601.79 239.943 601.14 239.613 600.55C239.283 599.95 238.833 599.475 238.263 599.125C237.703 598.765 237.078 598.585 236.388 598.585ZM252.745 610.39C251.365 610.39 250.105 610.035 248.965 609.325C247.835 608.615 246.93 607.665 246.25 606.475C245.58 605.275 245.245 603.95 245.245 602.5C245.245 601.4 245.44 600.375 245.83 599.425C246.22 598.465 246.755 597.625 247.435 596.905C248.125 596.175 248.925 595.605 249.835 595.195C250.745 594.785 251.715 594.58 252.745 594.58C254.125 594.58 255.38 594.935 256.51 595.645C257.65 596.355 258.555 597.31 259.225 598.51C259.905 599.71 260.245 601.04 260.245 602.5C260.245 603.59 260.05 604.61 259.66 605.56C259.27 606.51 258.73 607.35 258.04 608.08C257.36 608.8 256.565 609.365 255.655 609.775C254.755 610.185 253.785 610.39 252.745 610.39ZM252.745 606.25C253.385 606.25 253.96 606.08 254.47 605.74C254.98 605.39 255.38 604.93 255.67 604.36C255.96 603.79 256.105 603.17 256.105 602.5C256.105 601.81 255.95 601.18 255.64 600.61C255.34 600.03 254.935 599.57 254.425 599.23C253.915 598.89 253.355 598.72 252.745 598.72C252.115 598.72 251.545 598.895 251.035 599.245C250.525 599.595 250.12 600.055 249.82 600.625C249.53 601.195 249.385 601.82 249.385 602.5C249.385 603.21 249.535 603.85 249.835 604.42C250.145 604.98 250.555 605.425 251.065 605.755C251.575 606.085 252.135 606.25 252.745 606.25ZM261.937 610L261.922 595H266.062L266.077 596.11C266.577 595.63 267.162 595.255 267.832 594.985C268.512 594.715 269.227 594.58 269.977 594.58C270.527 594.58 271.077 594.66 271.627 594.82L269.992 599.005C269.632 598.855 269.267 598.78 268.897 598.78C268.377 598.78 267.902 598.905 267.472 599.155C267.042 599.405 266.702 599.745 266.452 600.175C266.202 600.595 266.077 601.07 266.077 601.6V610H261.937ZM281.289 599.14H278.589V610H274.449V599.14H272.379V595H274.449V590.29H278.589V595H281.289V599.14ZM283.105 595H287.245V610H283.105V595ZM285.205 593.275C284.605 593.275 284.1 593.075 283.69 592.675C283.28 592.275 283.075 591.78 283.075 591.19C283.075 590.6 283.28 590.105 283.69 589.705C284.1 589.305 284.6 589.105 285.19 589.105C285.78 589.105 286.275 589.305 286.675 589.705C287.085 590.105 287.29 590.6 287.29 591.19C287.29 591.78 287.09 592.275 286.69 592.675C286.3 593.075 285.805 593.275 285.205 593.275ZM299.598 610H294.243L288.783 595H293.193L296.913 605.245L300.633 595H305.058L299.598 610ZM312.616 610.39C311.236 610.39 309.976 610.035 308.836 609.325C307.706 608.615 306.801 607.66 306.121 606.46C305.451 605.26 305.116 603.935 305.116 602.485C305.116 601.395 305.311 600.375 305.701 599.425C306.091 598.465 306.626 597.625 307.306 596.905C307.996 596.175 308.796 595.605 309.706 595.195C310.616 594.785 311.586 594.58 312.616 594.58C313.806 594.58 314.891 594.835 315.871 595.345C316.861 595.855 317.696 596.55 318.376 597.43C319.066 598.31 319.556 599.305 319.846 600.415C320.146 601.525 320.196 602.68 319.996 603.88H309.586C309.716 604.32 309.916 604.72 310.186 605.08C310.466 605.43 310.806 605.71 311.206 605.92C311.616 606.13 312.086 606.24 312.616 606.25C313.136 606.26 313.616 606.14 314.056 605.89C314.496 605.64 314.871 605.305 315.181 604.885L319.411 605.86C318.801 607.19 317.891 608.28 316.681 609.13C315.471 609.97 314.116 610.39 312.616 610.39ZM309.436 600.82H315.811C315.681 600.32 315.461 599.87 315.151 599.47C314.841 599.07 314.466 598.755 314.026 598.525C313.596 598.295 313.126 598.18 312.616 598.18C312.116 598.18 311.646 598.295 311.206 598.525C310.776 598.755 310.406 599.07 310.096 599.47C309.796 599.86 309.576 600.31 309.436 600.82Z" fill="#4B3425"/>
            <path d="M122.143 648.39C120.723 648.39 119.388 648.11 118.138 647.55C116.888 646.98 115.788 646.195 114.838 645.195C113.898 644.195 113.158 643.04 112.618 641.73C112.088 640.41 111.823 639 111.823 637.5C111.823 635.99 112.088 634.58 112.618 633.27C113.158 631.95 113.898 630.795 114.838 629.805C115.788 628.805 116.888 628.025 118.138 627.465C119.388 626.895 120.723 626.61 122.143 626.61C123.843 626.61 125.408 627.005 126.838 627.795C128.268 628.575 129.453 629.62 130.393 630.93L126.703 632.925C126.143 632.265 125.468 631.74 124.678 631.35C123.888 630.95 123.043 630.75 122.143 630.75C121.293 630.75 120.493 630.925 119.743 631.275C118.993 631.625 118.333 632.11 117.763 632.73C117.203 633.35 116.763 634.065 116.443 634.875C116.123 635.685 115.963 636.56 115.963 637.5C115.963 638.43 116.123 639.305 116.443 640.125C116.763 640.935 117.203 641.65 117.763 642.27C118.333 642.88 118.993 643.365 119.743 643.725C120.493 644.075 121.293 644.25 122.143 644.25C123.053 644.25 123.898 644.05 124.678 643.65C125.468 643.25 126.143 642.72 126.703 642.06L130.393 644.07C129.453 645.37 128.268 646.415 126.838 647.205C125.408 647.995 123.843 648.39 122.143 648.39ZM138.374 648.39C136.994 648.39 135.734 648.035 134.594 647.325C133.464 646.615 132.559 645.665 131.879 644.475C131.209 643.275 130.874 641.95 130.874 640.5C130.874 639.4 131.069 638.375 131.459 637.425C131.849 636.465 132.384 635.625 133.064 634.905C133.754 634.175 134.554 633.605 135.464 633.195C136.374 632.785 137.344 632.58 138.374 632.58C139.754 632.58 141.009 632.935 142.139 633.645C143.279 634.355 144.184 635.31 144.854 636.51C145.534 637.71 145.874 639.04 145.874 640.5C145.874 641.59 145.679 642.61 145.289 643.56C144.899 644.51 144.359 645.35 143.669 646.08C142.989 646.8 142.194 647.365 141.284 647.775C140.384 648.185 139.414 648.39 138.374 648.39ZM138.374 644.25C139.014 644.25 139.589 644.08 140.099 643.74C140.609 643.39 141.009 642.93 141.299 642.36C141.589 641.79 141.734 641.17 141.734 640.5C141.734 639.81 141.579 639.18 141.269 638.61C140.969 638.03 140.564 637.57 140.054 637.23C139.544 636.89 138.984 636.72 138.374 636.72C137.744 636.72 137.174 636.895 136.664 637.245C136.154 637.595 135.749 638.055 135.449 638.625C135.159 639.195 135.014 639.82 135.014 640.5C135.014 641.21 135.164 641.85 135.464 642.42C135.774 642.98 136.184 643.425 136.694 643.755C137.204 644.085 137.764 644.25 138.374 644.25ZM147.551 648V633H151.691V634.11C152.201 633.63 152.791 633.255 153.461 632.985C154.131 632.715 154.841 632.58 155.591 632.58C156.611 632.58 157.546 632.815 158.396 633.285C159.256 633.755 159.946 634.38 160.466 635.16C160.996 634.38 161.686 633.755 162.536 633.285C163.386 632.815 164.316 632.58 165.326 632.58C166.416 632.58 167.401 632.845 168.281 633.375C169.171 633.905 169.881 634.615 170.411 635.505C170.941 636.385 171.206 637.37 171.206 638.46V648H167.066V639.6C167.066 639.08 166.936 638.61 166.676 638.19C166.426 637.76 166.091 637.42 165.671 637.17C165.251 636.91 164.781 636.78 164.261 636.78C163.741 636.78 163.266 636.905 162.836 637.155C162.416 637.405 162.076 637.745 161.816 638.175C161.566 638.595 161.441 639.07 161.441 639.6V648H157.301V639.6C157.301 639.07 157.176 638.595 156.926 638.175C156.676 637.745 156.336 637.405 155.906 637.155C155.486 636.905 155.016 636.78 154.496 636.78C153.986 636.78 153.516 636.91 153.086 637.17C152.666 637.42 152.326 637.76 152.066 638.19C151.816 638.61 151.691 639.08 151.691 639.6V648H147.551ZM173.611 648V633H177.751V634.11C178.261 633.63 178.851 633.255 179.521 632.985C180.191 632.715 180.901 632.58 181.651 632.58C182.671 632.58 183.606 632.815 184.456 633.285C185.316 633.755 186.006 634.38 186.526 635.16C187.056 634.38 187.746 633.755 188.596 633.285C189.446 632.815 190.376 632.58 191.386 632.58C192.476 632.58 193.461 632.845 194.341 633.375C195.231 633.905 195.941 634.615 196.471 635.505C197.001 636.385 197.266 637.37 197.266 638.46V648H193.126V639.6C193.126 639.08 192.996 638.61 192.736 638.19C192.486 637.76 192.151 637.42 191.731 637.17C191.311 636.91 190.841 636.78 190.321 636.78C189.801 636.78 189.326 636.905 188.896 637.155C188.476 637.405 188.136 637.745 187.876 638.175C187.626 638.595 187.501 639.07 187.501 639.6V648H183.361V639.6C183.361 639.07 183.236 638.595 182.986 638.175C182.736 637.745 182.396 637.405 181.966 637.155C181.546 636.905 181.076 636.78 180.556 636.78C180.046 636.78 179.576 636.91 179.146 637.17C178.726 637.42 178.386 637.76 178.126 638.19C177.876 638.61 177.751 639.08 177.751 639.6V648H173.611ZM199.071 642.51V633H203.211V641.37C203.211 641.9 203.336 642.38 203.586 642.81C203.846 643.23 204.191 643.565 204.621 643.815C205.051 644.065 205.521 644.19 206.031 644.19C206.551 644.19 207.026 644.065 207.456 643.815C207.886 643.565 208.226 643.23 208.476 642.81C208.726 642.38 208.851 641.9 208.851 641.37V633H212.991L213.006 648H208.866L208.851 646.86C208.351 647.34 207.761 647.715 207.081 647.985C206.411 648.255 205.701 648.39 204.951 648.39C203.871 648.39 202.886 648.125 201.996 647.595C201.106 647.065 200.396 646.36 199.866 645.48C199.336 644.59 199.071 643.6 199.071 642.51ZM229.354 638.46V648H225.214V639.6C225.214 639.07 225.084 638.595 224.824 638.175C224.574 637.745 224.234 637.405 223.804 637.155C223.384 636.905 222.914 636.78 222.394 636.78C221.874 636.78 221.399 636.905 220.969 637.155C220.539 637.405 220.199 637.745 219.949 638.175C219.699 638.595 219.574 639.07 219.574 639.6V648H215.434L215.419 633H219.559L219.574 634.11C220.074 633.63 220.659 633.255 221.329 632.985C222.009 632.715 222.724 632.58 223.474 632.58C224.564 632.58 225.549 632.845 226.429 633.375C227.319 633.905 228.029 634.615 228.559 635.505C229.089 636.385 229.354 637.37 229.354 638.46ZM231.752 633H235.892V648H231.752V633ZM233.852 631.275C233.252 631.275 232.747 631.075 232.337 630.675C231.927 630.275 231.722 629.78 231.722 629.19C231.722 628.6 231.927 628.105 232.337 627.705C232.747 627.305 233.247 627.105 233.837 627.105C234.427 627.105 234.922 627.305 235.322 627.705C235.732 628.105 235.937 628.6 235.937 629.19C235.937 629.78 235.737 630.275 235.337 630.675C234.947 631.075 234.452 631.275 233.852 631.275ZM247.047 637.14H244.347V648H240.207V637.14H238.137V633H240.207V628.29H244.347V633H247.047V637.14ZM258.772 633H263.182L254.962 655.5H250.582L253.282 648L247.882 633H252.412L255.352 642.345L258.772 633Z" fill="#7152FF"/>
        </g>
    </g>
    <defs>
        <filter id="filter0_ddddd_2667_17599" x="-403" y="88" width="1180" height="1365" filterUnits="userSpaceOnUse" color-interpolation-filters="sRGB">
            <feFlood flood-opacity="0" result="BackgroundImageFix"/>
            <feColorMatrix in="SourceAlpha" type="matrix" values="0 0 0 0 0 0 0 0 0 0 0 0 0 0 0 0 0 0 127 0" result="hardAlpha"/>
            <feOffset/>
            <feColorMatrix type="matrix" values="0 0 0 0 0.294118 0 0 0 0 0.203922 0 0 0 0 0.145098 0 0 0 0.05 0"/>
            <feBlend mode="normal" in2="BackgroundImageFix" result="effect1_dropShadow_2667_17599"/>
            <feColorMatrix in="SourceAlpha" type="matrix" values="0 0 0 0 0 0 0 0 0 0 0 0 0 0 0 0 0 0 127 0" result="hardAlpha"/>
            <feOffset dy="-17"/>
            <feGaussianBlur stdDeviation="19"/>
            <feColorMatrix type="matrix" values="0 0 0 0 0.294118 0 0 0 0 0.203922 0 0 0 0 0.145098 0 0 0 0.05 0"/>
            <feBlend mode="normal" in2="effect1_dropShadow_2667_17599" result="effect2_dropShadow_2667_17599"/>
            <feColorMatrix in="SourceAlpha" type="matrix" values="0 0 0 0 0 0 0 0 0 0 0 0 0 0 0 0 0 0 127 0" result="hardAlpha"/>
            <feOffset dy="-69"/>
            <feGaussianBlur stdDeviation="34.5"/>
            <feColorMatrix type="matrix" values="0 0 0 0 0.294118 0 0 0 0 0.203922 0 0 0 0 0.145098 0 0 0 0.04 0"/>
            <feBlend mode="normal" in2="effect2_dropShadow_2667_17599" result="effect3_dropShadow_2667_17599"/>
            <feColorMatrix in="SourceAlpha" type="matrix" values="0 0 0 0 0 0 0 0 0 0 0 0 0 0 0 0 0 0 127 0" result="hardAlpha"/>
            <feOffset dy="-154"/>
            <feGaussianBlur stdDeviation="46.5"/>
            <feColorMatrix type="matrix" values="0 0 0 0 0.294118 0 0 0 0 0.203922 0 0 0 0 0.145098 0 0 0 0.03 0"/>
            <feBlend mode="normal" in2="effect3_dropShadow_2667_17599" result="effect4_dropShadow_2667_17599"/>
            <feColorMatrix in="SourceAlpha" type="matrix" values="0 0 0 0 0 0 0 0 0 0 0 0 0 0 0 0 0 0 127 0" result="hardAlpha"/>
            <feOffset dy="-274"/>
            <feGaussianBlur stdDeviation="55"/>
            <feColorMatrix type="matrix" values="0 0 0 0 0.294118 0 0 0 0 0.203922 0 0 0 0 0.145098 0 0 0 0.01 0"/>
            <feBlend mode="normal" in2="effect4_dropShadow_2667_17599" result="effect5_dropShadow_2667_17599"/>
            <feBlend mode="normal" in="SourceGraphic" in2="effect5_dropShadow_2667_17599" result="shape"/>
        </filter>
        <clipPath id="clip0_2667_17599">
            <rect width="375" height="812" rx="40" fill="white"/>
        </clipPath>
        <clipPath id="clip1_2667_17599">
            <rect width="680.504" height="493.194" fill="white" transform="translate(74.8442 -114.696) rotate(30)"/>
        </clipPath>
    </defs>
</svg>
