<svg width="375" height="734" viewBox="0 0 375 734" fill="none" xmlns="http://www.w3.org/2000/svg">
    <path d="M-16.7751 55.5665C-22.7055 53.1283 -26.2316 45.9221 -24.6021 39.664C-22.9459 33.4059 -16.3209 28.9629 -9.98985 29.857C-6.73081 30.3175 -3.79233 31.9701 -0.933989 33.5955C2.69904 35.6545 6.33208 37.7405 9.96511 39.7994C0.909243 36.5756 -3.47177 25.2514 -1.49497 15.7153C-0.0524406 8.86124 4.56899 2.30516 11.2474 0.517139C16.6969 -0.945788 22.4937 0.896418 27.4891 3.52427C43.0097 11.5975 53.882 26.4705 63.1249 41.4791C60.2398 37.4425 63.4455 31.2386 68.1203 29.6131C72.7952 28.0147 77.9241 29.6944 82.3319 31.9159C92.1624 36.9007 100.337 46.4368 106 56L-16.7751 55.5665Z" fill="#F2F5EB"/>
    <path d="M383.452 80.4504C391.057 77.3591 395.58 68.2226 393.49 60.2883C391.366 52.3539 382.87 46.7209 374.75 47.8544C370.571 48.4383 366.802 50.5335 363.137 52.5943C358.478 55.2048 353.818 57.8496 349.159 60.46C360.773 56.3726 366.391 42.0152 363.856 29.9248C362.006 21.2348 356.079 12.9226 347.515 10.6557C340.526 8.80088 333.092 11.1365 326.686 14.4683C306.781 24.7039 292.838 43.5609 280.985 62.5896C284.685 57.4717 280.574 49.6061 274.579 47.5452C268.583 45.5187 262.006 47.6483 256.353 50.4648C243.746 56.7848 233.263 68.8752 226 81L383.452 80.4504Z" fill="#F2F5EB"/>
    <path d="M-33.0657 297.211C-40.2164 294.326 -44.5027 285.713 -42.5119 278.258C-40.5211 270.802 -32.4969 265.5 -24.8587 266.557C-20.9381 267.105 -17.3627 269.076 -13.9093 271.026C-9.5214 273.484 -5.13351 275.942 -0.745609 278.4C-11.6747 274.54 -16.9768 261.072 -14.5797 249.716C-12.853 241.55 -7.2462 233.749 0.818596 231.616C7.40044 229.869 14.3886 232.083 20.4626 235.191C39.2127 244.82 52.3561 262.514 63.5086 280.391C60.0146 275.576 63.8946 268.182 69.542 266.272C75.1691 264.363 81.3853 266.353 86.7076 269.015C98.5712 274.967 108.464 286.302 115.29 297.698L-33.0657 297.211Z" fill="#F2F5EB"/>
    <path d="M463.436 244.232C474.639 239.691 481.354 226.132 478.235 214.395C475.116 202.659 462.544 194.312 450.577 195.975C444.435 196.838 438.833 199.94 433.422 203.01C426.548 206.88 419.673 210.75 412.798 214.619C429.921 208.543 438.228 187.34 434.473 169.464C431.767 156.608 422.983 144.327 410.347 140.97C400.035 138.219 389.087 141.705 379.57 146.598C350.194 161.756 329.601 189.611 312.128 217.753C317.602 210.174 311.523 198.533 302.675 195.527C293.859 192.521 284.12 195.655 275.781 199.844C257.194 209.215 241.694 227.059 231 245L463.436 244.232Z" fill="#F2F5EB"/>
    <path d="M218.01 60.9583C220.438 69.5829 230.302 73.6696 238.112 69.282C248.126 63.6409 260.218 71.9647 258.59 83.3472C257.314 92.2225 264.649 99.9697 273.561 99.1172C285.002 98.0391 292.662 110.575 286.554 120.303C281.772 127.899 285.352 137.953 293.839 140.811C304.704 144.497 306.656 159.063 297.093 165.457C289.658 170.446 288.832 181.076 295.416 187.169C303.852 194.966 299.697 209.056 288.381 211.012C279.569 212.541 274.487 221.918 278.017 230.166C282.573 240.722 273.035 251.904 261.92 249.096C253.233 246.889 244.797 253.408 244.671 262.358C244.546 273.866 231.303 280.209 222.266 273.089C215.231 267.548 204.867 270.055 201.137 278.204C196.355 288.658 181.66 289.06 176.303 278.881C172.122 270.958 161.633 269.002 154.923 274.944C146.312 282.541 132.743 276.925 131.967 265.442C131.366 256.492 122.579 250.449 114.042 253.132C103.077 256.567 92.9635 245.886 96.944 235.106C100.048 226.681 94.4656 217.58 85.5534 216.553C74.1628 215.224 69.231 201.359 77.242 193.111C83.4755 186.692 82.0736 176.087 74.3881 171.524C64.5246 165.657 65.6511 150.99 76.3157 146.728C84.6271 143.394 87.6562 133.164 82.4742 125.844C75.8401 116.467 82.8246 103.53 94.2903 103.981C103.228 104.332 110.162 96.2089 108.385 87.4088C106.132 76.1266 117.773 67.176 128.062 72.2405C136.098 76.2018 145.711 71.5886 147.688 62.8386C150.217 51.6316 164.487 48.1717 171.822 56.9969C177.554 63.8916 188.219 63.5908 193.551 56.3952C200.436 47.219 214.881 49.9017 218.01 60.9583Z" fill="#4B3425"/>
    <path d="M359.203 331.531C349.815 298.637 320.901 275.17 286.829 272.763C208.847 267.222 75.6898 265.217 47.4261 295.453C38.1884 305.331 57.0393 287.38 47.4261 295.453C4.19187 331.731 -2.54236 419.733 -2.54236 419.733L98.446 419.031L379.706 419.833C381.258 411.81 369.617 368.085 359.203 331.531Z" fill="#9BB068"/>
    <path d="M227.673 236.233L220.714 214.07C226.546 215.449 232.955 213.995 237.687 209.607C245.272 202.587 245.748 190.753 238.738 183.157C231.729 175.56 219.912 175.084 212.327 182.104C211.876 182.53 211.451 182.956 211.05 183.407L202.839 157.283C201.813 154.049 198.608 152.043 195.254 152.544C178.631 155.026 132.217 166.685 128.838 219.335C128.587 223.321 131.717 226.731 135.722 226.731L156.2 226.706L154.573 240.947C179.257 245.685 203.84 243.103 227.673 236.233Z" fill="#CFD9B5"/>
    <path d="M227.673 236.233C203.865 243.128 179.257 245.685 154.598 240.947L149.741 283.493C147.288 304.93 159.755 325.639 180.158 332.584C181.109 332.909 182.086 333.21 183.062 333.511C218.41 343.791 250.78 309.768 239.715 274.593L227.673 236.233Z" fill="#9BB068"/>
    <path d="M164.261 168.791C154.147 174.03 144.008 179.245 133.895 184.485C132.568 185.162 132.443 187.093 133.419 188.096C136.423 191.154 139.402 194.188 142.406 197.247C144.484 199.353 147.713 196.119 145.636 194.013C142.632 190.954 139.652 187.92 136.648 184.861C136.498 186.065 136.348 187.268 136.173 188.472C146.287 183.232 156.425 178.017 166.539 172.777C169.193 171.398 166.865 167.437 164.261 168.791Z" fill="#4B3425"/>
    <path d="M161.382 204.292C161.658 206.648 158.904 208.805 156.751 207.476C154.222 205.946 151.919 209.908 154.448 211.437C159.329 214.421 166.639 210.158 165.988 204.292C165.838 203.063 165.037 202.01 163.685 202.01C162.559 201.985 161.257 203.038 161.382 204.292Z" fill="#4B3425"/>
    <path d="M228.524 191.43C224.594 192.759 220.663 194.088 216.733 195.416C213.954 196.369 215.156 200.782 217.96 199.829C221.89 198.5 225.82 197.171 229.751 195.843C232.53 194.915 231.328 190.477 228.524 191.43Z" fill="#4B3425"/>
    <path d="M173.198 182.505C177.579 192.408 191.248 194.941 199.284 188.071C201.537 186.14 198.283 182.906 196.055 184.837C190.046 189.976 180.283 187.218 177.179 180.198C175.977 177.491 172.022 179.822 173.198 182.505Z" fill="#4B3425"/>
    <path d="M176.954 184.335C175.276 186.04 173.574 187.72 171.897 189.425C169.819 191.506 173.048 194.765 175.126 192.659C176.803 190.954 178.506 189.274 180.183 187.569C182.286 185.488 179.057 182.254 176.954 184.335Z" fill="#4B3425"/>
    <path d="M184.188 190.954C184.213 192.658 184.238 194.338 184.264 196.043C184.289 199.002 188.895 199.002 188.845 196.043C188.82 194.338 188.795 192.658 188.77 190.954C188.72 188.02 184.138 187.995 184.188 190.954Z" fill="#4B3425"/>
    <path d="M193.201 190.904C193.751 192.409 194.277 193.938 194.828 195.442C195.254 196.596 196.38 197.398 197.657 197.047C198.783 196.746 199.685 195.392 199.259 194.214C198.708 192.709 198.183 191.18 197.632 189.676C197.206 188.497 196.08 187.72 194.803 188.071C193.676 188.397 192.8 189.751 193.201 190.904Z" fill="#4B3425"/>
    <path d="M208.972 359.335C208.972 363.723 205.417 367.308 201.011 367.308C196.63 367.308 193.051 363.748 193.051 359.335C193.051 354.948 196.605 351.362 201.011 351.362C205.417 351.362 208.972 354.922 208.972 359.335Z" fill="#4B3425"/>
    <path d="M93.7646 334.163C68.2546 347.275 42.7447 360.388 17.2097 373.5C11.3517 376.509 5.49365 379.517 -0.364378 382.526C-9.97755 387.49 -17.7882 394.034 -22.019 404.313C-25.7742 413.414 -26.2248 425.975 -21.969 435.051C-17.5629 444.453 -10.278 453.077 -0.239206 456.738C9.29886 460.198 21.065 461.501 30.4528 456.688C46.4498 448.464 62.4717 440.241 78.4686 431.992C101.475 420.158 124.482 408.35 147.488 396.516C134.32 373.35 121.252 350.108 108.91 326.391C103.853 328.998 98.7965 331.58 93.7646 334.163Z" fill="#9BB068"/>
    <path d="M172.573 383.629C182.186 378.69 189.996 372.146 194.227 361.867C197.982 352.766 198.433 340.205 194.177 331.129C189.771 321.727 182.486 313.103 172.447 309.442C162.909 305.982 171.246 292.218 161.858 297.057C150.893 302.698 119.85 320.775 108.885 326.391C121.227 350.133 134.27 373.375 147.463 396.516C149.967 395.237 152.495 393.934 154.998 392.655C160.856 389.646 166.714 386.638 172.573 383.629Z" fill="#CFD9B5"/>
    <path d="M176.878 327.569C179.908 307.236 182.937 286.878 185.966 266.545C186.842 260.628 182.586 254.11 176.428 253.433C170.294 252.756 164.286 256.642 163.335 262.985C160.306 283.318 157.276 303.676 154.247 324.009C153.371 329.926 157.627 336.445 163.785 337.122C169.919 337.824 175.927 333.912 176.878 327.569Z" fill="#CFD9B5"/>
    <path d="M177.98 327.87C180.258 312.502 182.561 297.108 184.839 281.739C186.191 272.613 191.048 258.222 179.757 253.182C175.777 251.402 170.87 252.129 167.34 254.586C162.959 257.62 162.284 262.183 161.558 267.147C159.279 282.541 156.976 297.91 154.698 313.304C154.473 314.758 156.701 315.36 156.901 313.906C158.754 301.495 160.581 289.085 162.434 276.674C162.884 273.691 163.31 270.707 163.761 267.749C164.161 265.066 164.261 262.133 165.638 259.701C168.467 254.737 175.577 252.856 180.333 256.116C186.016 260.027 184.864 266.27 183.988 272.161C183.112 278.103 182.211 284.07 181.335 290.012C179.482 302.423 177.655 314.808 175.802 327.219C175.552 328.723 177.755 329.325 177.98 327.87Z" fill="#4B3425"/>
    <path d="M182.361 366.155C187.543 332.985 192.725 299.791 197.907 266.621C198.834 260.704 194.628 254.16 188.444 253.433C182.311 252.706 176.278 256.567 175.276 262.91C170.094 296.08 164.912 329.275 159.73 362.444C158.804 368.361 163.009 374.905 169.193 375.632C175.326 376.359 181.36 372.498 182.361 366.155Z" fill="#CFD9B5"/>
    <path d="M189.27 333.386C191.173 320.549 193.101 307.713 195.003 294.901C195.955 288.483 196.906 282.065 197.857 275.646C198.533 271.033 200.16 265.843 198.783 261.205C196.631 253.934 188.995 250.324 182.036 253.107C178.531 254.511 175.752 257.419 174.675 261.055C172.948 266.896 172.698 273.565 171.797 279.608C169.619 294.174 167.466 308.716 165.288 323.282C165.062 324.736 167.29 325.338 167.491 323.884C169.543 310.07 171.596 296.255 173.649 282.441C174.6 276.047 175.226 269.529 176.503 263.186C177.73 257.093 183.963 252.756 190.172 254.862C197.607 257.394 197.106 265.066 196.155 271.309C195.154 277.978 194.177 284.647 193.176 291.291C191.123 305.105 189.07 318.92 187.017 332.759C186.842 334.213 189.045 334.84 189.27 333.386Z" fill="#4B3425"/>
    <path d="M183.638 274.92C179.958 299.64 176.278 324.361 172.598 349.081C171.721 354.998 175.977 361.517 182.136 362.194C188.269 362.871 194.277 358.985 195.229 352.641C198.909 327.921 202.589 303.2 206.269 278.48C207.145 272.563 202.889 266.044 196.731 265.367C190.597 264.69 184.589 268.576 183.638 274.92Z" fill="#CFD9B5"/>
    <path d="M194.402 365.954C198.483 338.601 202.539 311.248 206.619 283.895C207.395 278.755 208.322 273.942 205.142 269.379C202.238 265.217 197.356 263.387 192.4 264.465C180.834 266.972 181.56 281.137 180.183 290.414C178.13 304.278 176.052 318.143 174 332.033C173.774 333.487 176.002 334.088 176.203 332.634C177.73 322.305 179.282 311.975 180.809 301.646C181.635 296.005 182.486 290.364 183.312 284.748C183.988 280.185 183.863 273.841 186.992 270.206C191.699 264.765 200.436 265.392 203.915 271.811C206.644 276.875 204.291 283.87 203.49 289.235C201.662 301.52 199.835 313.831 198.007 326.116C196.055 339.178 194.127 352.265 192.174 365.328C191.974 366.782 194.177 367.409 194.402 365.954Z" fill="#4B3425"/>
    <path d="M294.239 335.341C319.749 348.454 345.259 361.566 370.794 374.679C376.652 377.687 382.51 380.696 388.368 383.704C397.981 388.643 405.792 395.187 410.023 405.466C413.778 414.567 414.228 427.128 409.973 436.204C405.566 445.606 398.282 454.256 388.243 457.891C378.705 461.351 366.939 462.655 357.551 457.841C341.554 449.618 325.532 441.394 309.535 433.145C286.528 421.312 263.522 409.503 240.515 397.669C253.683 374.503 266.751 351.262 279.093 327.544C284.15 330.151 289.207 332.759 294.239 335.341Z" fill="#9BB068"/>
    <path d="M215.431 384.782C205.818 379.843 198.007 373.3 193.776 363.02C190.021 353.919 189.571 341.358 193.826 332.282C198.232 322.881 205.517 314.231 215.556 310.596C225.094 307.136 216.758 293.371 226.146 298.21C237.111 303.851 268.153 321.928 279.118 327.569C266.776 351.312 253.733 374.553 240.54 397.694C238.037 396.416 235.509 395.112 233.005 393.833C227.147 390.825 221.289 387.816 215.431 384.782Z" fill="#CFD9B5"/>
    <path d="M211.125 328.748C208.096 308.415 205.067 288.057 202.038 267.724C201.162 261.807 205.417 255.288 211.576 254.611C217.709 253.934 223.718 257.821 224.669 264.164C227.698 284.497 230.727 304.855 233.756 325.188C234.633 331.105 230.377 337.623 224.218 338.3C218.085 338.977 212.077 335.091 211.125 328.748Z" fill="#CFD9B5"/>
    <path d="M212.227 328.447C210.374 316.037 208.547 303.651 206.694 291.241C205.818 285.299 204.917 279.332 204.04 273.39C203.164 267.498 201.988 261.255 207.695 257.344C212.452 254.06 219.537 255.965 222.391 260.929C223.768 263.311 223.868 266.295 224.268 268.977C224.719 271.961 225.144 274.944 225.595 277.903C227.448 290.313 229.275 302.724 231.128 315.134C231.353 316.588 233.556 315.961 233.331 314.532C231.052 299.138 228.749 283.77 226.471 268.376C225.72 263.411 225.069 258.848 220.688 255.815C217.158 253.358 212.252 252.631 208.271 254.411C196.956 259.45 201.837 273.816 203.189 282.967C205.467 298.336 207.771 313.73 210.049 329.099C210.224 330.503 212.452 329.876 212.227 328.447Z" fill="#4B3425"/>
    <path d="M205.643 367.333C200.461 334.163 195.278 300.968 190.096 267.799C189.17 261.882 193.376 255.338 199.559 254.611C205.693 253.884 211.726 257.745 212.727 264.088C217.909 297.258 223.092 330.452 228.274 363.622C229.2 369.539 224.994 376.083 218.811 376.81C212.677 377.537 206.644 373.676 205.643 367.333Z" fill="#CFD9B5"/>
    <path d="M200.936 333.937C198.883 320.123 196.831 306.309 194.778 292.469C193.827 286.051 192.875 279.632 191.924 273.214C190.973 266.796 190.046 258.673 197.807 256.04C203.64 254.059 210.074 257.945 211.376 263.837C212.777 270.306 213.378 277.05 214.33 283.594C216.382 297.408 218.435 311.223 220.488 325.037C220.713 326.491 222.916 325.864 222.691 324.435C220.788 311.599 218.861 298.762 216.958 285.95C216.007 279.532 215.056 273.114 214.104 266.695C213.478 262.559 212.677 258.973 209.298 256.216C203.39 251.377 194.427 252.68 190.497 259.324C188.144 263.311 188.694 267.222 189.345 271.584C190.297 278.003 191.248 284.421 192.199 290.839C194.377 305.406 196.53 319.948 198.708 334.514C198.933 336.018 201.162 335.392 200.936 333.937Z" fill="#4B3425"/>
    <path d="M204.366 276.097C208.046 300.818 211.726 325.538 215.406 350.259C216.282 356.176 212.026 362.694 205.868 363.371C199.735 364.048 193.726 360.162 192.775 353.819C189.095 329.099 185.415 304.378 181.735 279.657C180.859 273.74 185.115 267.222 191.273 266.545C197.406 265.868 203.415 269.754 204.366 276.097Z" fill="#CFD9B5"/>
    <path d="M195.804 366.505C192.249 342.662 188.695 318.794 185.165 294.951C184.364 289.511 182.786 283.644 182.786 278.153C182.761 270.807 189.871 265.743 196.756 268.375C202.814 270.707 203.29 276.423 204.116 282.014C204.917 287.43 205.718 292.845 206.544 298.261C208.296 310.094 210.074 321.928 211.826 333.787C212.052 335.241 214.255 334.614 214.029 333.185C212.202 320.975 210.399 308.766 208.572 296.531C207.696 290.589 206.794 284.647 205.918 278.705C205.142 273.565 203.64 269.127 198.683 266.695C188.544 261.731 179.357 270.682 180.784 280.936C182.661 294.324 184.764 307.662 186.742 321.026C189.02 336.394 191.323 351.738 193.601 367.107C193.802 368.586 196.03 367.96 195.804 366.505Z" fill="#4B3425"/>
    <path d="M6.64528 380.245C36.0355 364.55 65.4508 348.855 94.8411 333.16C98.9968 330.929 103.152 328.723 107.308 326.491C108.61 325.789 107.458 323.809 106.157 324.511C76.7663 340.205 47.351 355.9 17.9608 371.595C13.8051 373.826 9.64939 376.033 5.4937 378.264C4.16688 378.966 5.3435 380.947 6.64528 380.245Z" fill="#4B3425"/>
    <path d="M366.288 371.093C340.978 357.931 315.694 344.743 290.384 331.58C286.854 329.75 283.324 327.895 279.769 326.065C278.468 325.388 277.291 327.368 278.618 328.045C303.927 341.208 329.212 354.396 354.522 367.558C358.052 369.388 361.581 371.244 365.136 373.074C366.438 373.751 367.59 371.77 366.288 371.093Z" fill="#4B3425"/>
    <path d="M23.8187 357.73C29.2261 359.21 34.6335 360.664 40.066 362.143C41.4929 362.519 42.0938 360.313 40.6668 359.937C35.2594 358.457 29.852 357.003 24.4196 355.524C22.9926 355.123 22.3918 357.329 23.8187 357.73Z" fill="#4B3425"/>
    <path d="M343.281 360.137C347.612 358.783 351.843 357.154 355.974 355.248C357.301 354.647 356.149 352.666 354.822 353.268C350.867 355.073 346.811 356.627 342.68 357.931C341.279 358.357 341.879 360.589 343.281 360.137Z" fill="#4B3425"/>
    <path d="M293.964 146.878C298.17 156.029 309.735 155.528 316.77 150.213C324.305 144.496 331.891 132.236 328.586 122.484C326.133 115.238 315.068 110.85 310.887 119.224C309.085 122.81 310.512 127.097 313.29 129.779C316.845 133.189 322.278 133.766 326.959 133.916C338.049 134.292 351.017 129.303 352.719 116.893C353.12 114.009 348.714 112.756 348.313 115.664C347.062 124.665 338.55 128.927 330.214 129.303C326.258 129.479 321.351 129.504 317.822 127.423C315.894 126.295 314.292 124.214 314.843 121.932C315.393 119.575 318.122 118.798 320.225 119.475C324.531 120.879 325.157 126.295 324.431 130.055C323.554 134.568 321.026 139.031 318.122 142.541C313.391 148.232 302.25 153.948 297.944 144.522C296.668 141.889 292.737 144.221 293.964 146.878Z" fill="#4B3425"/>
    <path d="M47.0506 85.7537C46.2244 96.5847 55.2368 105.961 66.1517 104.883C76.8163 103.805 84.0763 93.3003 81.3475 82.8956C80.3462 79.1098 77.1668 74.647 72.8109 77.104C68.4549 79.561 67.5286 86.1047 68.1294 90.5424C69.8067 102.827 81.2224 109.12 92.0372 112.33C94.8661 113.182 96.0677 108.744 93.2639 107.917C86.5046 105.911 79.2697 102.953 75.2642 96.8103C73.2615 93.7265 72.0598 89.7903 72.6606 86.0797C72.7858 85.3526 72.9611 84.6004 73.2364 83.9235C73.5368 83.0961 74.8136 81.1155 76.0152 81.6921C77.1167 82.2186 77.3421 86.4808 77.3421 87.2831C77.3921 94.7043 71.3839 100.596 63.9737 100.396C56.2381 100.195 51.0811 93.1749 51.6318 85.7537C51.8571 82.8204 47.2759 82.8204 47.0506 85.7537Z" fill="#4B3425"/>
    <path d="M51.031 260.302C56.864 265.818 66.1267 266.846 72.961 262.484C76.6911 260.102 78.9442 256.341 80.4964 252.305C82.0485 248.168 83.9511 242.602 81.4727 238.415C79.7453 235.481 75.6898 233.576 72.5355 235.381C69.3311 237.211 68.8804 241.348 69.8818 244.557C72.3352 252.505 81.5478 256.466 89.2834 256.065C100.273 255.489 108.585 247.165 114.518 238.641C116.195 236.209 112.24 233.927 110.563 236.334C106.232 242.552 100.624 248.669 93.1136 250.825C87.0053 252.58 78.9943 251.051 75.3393 245.41C74.6634 244.357 73.5869 242.451 73.9624 241.123C75.0639 237.186 77.3671 240.496 77.7927 241.875C78.1932 243.178 77.9929 244.382 77.7176 245.686C76.9665 249.446 75.4645 253.784 72.8108 256.642C67.9792 261.832 59.2923 261.807 54.2604 257.018C52.1325 255.012 48.878 258.272 51.031 260.302Z" fill="#4B3425"/>
    <path d="M242.168 80.589C238.012 73.9701 238.588 64.7688 244.571 59.3784C249.728 54.7402 262.07 52.584 266.226 59.8297C267.628 62.2867 266.601 65.6212 263.247 64.8942C260.643 64.3175 259.466 61.6349 259.266 59.2029C258.941 55.392 260.393 51.4307 262.32 48.2215C266.226 41.7531 273.11 37.3154 280.62 36.5883C283.524 36.3125 283.549 31.7244 280.62 32.0002C271.433 32.8527 263.147 37.9422 258.365 45.8899C254.359 52.5339 251.631 65.5962 261.169 69.031C264.523 70.2344 268.554 69.4572 270.507 66.2731C272.96 62.3118 271.107 57.473 267.803 54.6649C260.768 48.7481 249.578 49.7008 242.593 55.0912C234.157 61.6098 232.655 74.0453 238.212 82.8956C239.79 85.4027 243.745 83.0961 242.168 80.589Z" fill="#4B3425"/>
    <g filter="url(#filter0_ddddd_2337_15542)">
        <rect x="-292" y="394" width="960" height="960" rx="480" fill="white"/>
    </g>
    <defs>
        <filter id="filter0_ddddd_2337_15542" x="-402" y="10" width="1180" height="1365" filterUnits="userSpaceOnUse" color-interpolation-filters="sRGB">
            <feFlood flood-opacity="0" result="BackgroundImageFix"/>
            <feColorMatrix in="SourceAlpha" type="matrix" values="0 0 0 0 0 0 0 0 0 0 0 0 0 0 0 0 0 0 127 0" result="hardAlpha"/>
            <feOffset/>
            <feColorMatrix type="matrix" values="0 0 0 0 0.294118 0 0 0 0 0.203922 0 0 0 0 0.145098 0 0 0 0.05 0"/>
            <feBlend mode="normal" in2="BackgroundImageFix" result="effect1_dropShadow_2337_15542"/>
            <feColorMatrix in="SourceAlpha" type="matrix" values="0 0 0 0 0 0 0 0 0 0 0 0 0 0 0 0 0 0 127 0" result="hardAlpha"/>
            <feOffset dy="-17"/>
            <feGaussianBlur stdDeviation="19"/>
            <feColorMatrix type="matrix" values="0 0 0 0 0.294118 0 0 0 0 0.203922 0 0 0 0 0.145098 0 0 0 0.05 0"/>
            <feBlend mode="normal" in2="effect1_dropShadow_2337_15542" result="effect2_dropShadow_2337_15542"/>
            <feColorMatrix in="SourceAlpha" type="matrix" values="0 0 0 0 0 0 0 0 0 0 0 0 0 0 0 0 0 0 127 0" result="hardAlpha"/>
            <feOffset dy="-69"/>
            <feGaussianBlur stdDeviation="34.5"/>
            <feColorMatrix type="matrix" values="0 0 0 0 0.294118 0 0 0 0 0.203922 0 0 0 0 0.145098 0 0 0 0.04 0"/>
            <feBlend mode="normal" in2="effect2_dropShadow_2337_15542" result="effect3_dropShadow_2337_15542"/>
            <feColorMatrix in="SourceAlpha" type="matrix" values="0 0 0 0 0 0 0 0 0 0 0 0 0 0 0 0 0 0 127 0" result="hardAlpha"/>
            <feOffset dy="-154"/>
            <feGaussianBlur stdDeviation="46.5"/>
            <feColorMatrix type="matrix" values="0 0 0 0 0.294118 0 0 0 0 0.203922 0 0 0 0 0.145098 0 0 0 0.03 0"/>
            <feBlend mode="normal" in2="effect3_dropShadow_2337_15542" result="effect4_dropShadow_2337_15542"/>
            <feColorMatrix in="SourceAlpha" type="matrix" values="0 0 0 0 0 0 0 0 0 0 0 0 0 0 0 0 0 0 127 0" result="hardAlpha"/>
            <feOffset dy="-274"/>
            <feGaussianBlur stdDeviation="55"/>
            <feColorMatrix type="matrix" values="0 0 0 0 0.294118 0 0 0 0 0.203922 0 0 0 0 0.145098 0 0 0 0.01 0"/>
            <feBlend mode="normal" in2="effect4_dropShadow_2337_15542" result="effect5_dropShadow_2337_15542"/>
            <feBlend mode="normal" in="SourceGraphic" in2="effect5_dropShadow_2337_15542" result="shape"/>
        </filter>
    </defs>
</svg>
